Sans_opsz8.ufo
<glyph name="exclam" format="2">
	<unicode hex="0021"/>
	<advance width="336"/>
	<outline>
		<contour>
			<point x="129" y="357" type="line"/>
			<point x="132" y="180" type="line"/>
			<point x="132" y="180" type="line"/>
			<point x="204" y="180" type="line"/>
			<point x="204" y="180" type="line"/>
			<point x="207" y="357" type="line"/>
			<point x="213" y="694" type="line"/>
			<point x="213" y="694" type="line"/>
			<point x="123" y="694" type="line"/>
			<point x="123" y="694" type="line"/>
		</contour>
		<contour>
			<point x="123" y="0" type="line"/>
			<point x="123" y="0" type="line"/>
			<point x="213" y="0" type="line"/>
			<point x="213" y="0" type="line"/>
			<point x="213" y="90" type="line"/>
			<point x="213" y="90" type="line"/>
			<point x="123" y="90" type="line"/>
			<point x="123" y="90" type="line"/>
		</contour>
	</outline>
</glyph>
<glyph name="numbersign" format="2">
	<unicode hex="0023"/>
	<advance width="1770"/>
	<outline>
		<contour>
			<point x="1096" y="236" type="line"/>
			<point x="1578" y="236" type="line" smooth="yes"/>
			<point x="1606" y="236"/>
			<point x="1650" y="236"/>
			<point x="1650" y="282" type="curve" smooth="yes"/>
			<point x="1650" y="328"/>
			<point x="1606" y="328"/>
			<point x="1578" y="328" type="curve" smooth="yes"/>
			<point x="1124" y="328" type="line"/>
			<point x="1222" y="672" type="line"/>
			<point x="1578" y="672" type="line" smooth="yes"/>
			<point x="1606" y="672"/>
			<point x="1650" y="672"/>
			<point x="1650" y="718" type="curve" smooth="yes"/>
			<point x="1650" y="764"/>
			<point x="1606" y="764"/>
			<point x="1578" y="764" type="curve" smooth="yes"/>
			<point x="1250" y="764" type="line"/>
			<point x="1406" y="1304" type="line" smooth="yes"/>
			<point x="1412" y="1322"/>
			<point x="1414" y="1336"/>
			<point x="1414" y="1342" type="curve" smooth="yes"/>
			<point x="1414" y="1368"/>
			<point x="1394" y="1388"/>
			<point x="1368" y="1388" type="curve" smooth="yes"/>
			<point x="1334" y="1388"/>
			<point x="1328" y="1364"/>
			<point x="1320" y="1338" type="curve" smooth="yes"/>
			<point x="1156" y="764" type="line"/>
			<point x="766" y="764" type="line"/>
			<point x="922" y="1304" type="line" smooth="yes"/>
			<point x="928" y="1322"/>
			<point x="930" y="1336"/>
			<point x="930" y="1342" type="curve" smooth="yes"/>
			<point x="930" y="1368"/>
			<point x="910" y="1388"/>
			<point x="884" y="1388" type="curve" smooth="yes"/>
			<point x="850" y="1388"/>
			<point x="844" y="1364"/>
			<point x="836" y="1338" type="curve" smooth="yes"/>
			<point x="672" y="764" type="line"/>
			<point x="190" y="764" type="line" smooth="yes"/>
			<point x="162" y="764"/>
			<point x="118" y="764"/>
			<point x="118" y="718" type="curve" smooth="yes"/>
			<point x="118" y="672"/>
			<point x="162" y="672"/>
			<point x="190" y="672" type="curve" smooth="yes"/>
			<point x="644" y="672" type="line"/>
			<point x="546" y="328" type="line"/>
			<point x="190" y="328" type="line" smooth="yes"/>
			<point x="162" y="328"/>
			<point x="118" y="328"/>
			<point x="118" y="282" type="curve" smooth="yes"/>
			<point x="118" y="236"/>
			<point x="162" y="236"/>
			<point x="190" y="236" type="curve" smooth="yes"/>
			<point x="518" y="236" type="line"/>
			<point x="362" y="-304" type="line" smooth="yes"/>
			<point x="356" y="-322"/>
			<point x="354" y="-336"/>
			<point x="354" y="-342" type="curve" smooth="yes"/>
			<point x="354" y="-368"/>
			<point x="374" y="-388"/>
			<point x="400" y="-388" type="curve" smooth="yes"/>
			<point x="434" y="-388"/>
			<point x="440" y="-364"/>
			<point x="448" y="-338" type="curve" smooth="yes"/>
			<point x="612" y="236" type="line"/>
			<point x="1002" y="236" type="line"/>
			<point x="846" y="-304" type="line" smooth="yes"/>
			<point x="840" y="-322"/>
			<point x="838" y="-336"/>
			<point x="838" y="-342" type="curve" smooth="yes"/>
			<point x="838" y="-368"/>
			<point x="858" y="-388"/>
			<point x="884" y="-388" type="curve" smooth="yes"/>
			<point x="918" y="-388"/>
			<point x="924" y="-364"/>
			<point x="932" y="-338" type="curve" smooth="yes"/>
		</contour>
		<contour>
			<point x="640" y="328" type="line"/>
			<point x="738" y="672" type="line"/>
			<point x="1128" y="672" type="line"/>
			<point x="1030" y="328" type="line"/>
		</contour>
	</outline>
</glyph>
<glyph name="dollar" format="2">
	<unicode hex="0024"/>
	<advance width="1062"/>
	<outline>
		<contour>
			<point x="594" y="1268" type="line"/>
			<point x="714" y="1258"/>
			<point x="804" y="1210"/>
			<point x="880" y="1152" type="curve"/>
			<point x="880" y="1152"/>
			<point x="880" y="1152"/>
			<point x="880" y="1152" type="curve"/>
			<point x="880" y="1152"/>
			<point x="880" y="1152"/>
			<point x="880" y="1152" type="curve"/>
			<point x="906" y="1296" type="line"/>
			<point x="906" y="1296"/>
			<point x="906" y="1296"/>
			<point x="906" y="1296" type="curve"/>
			<point x="804" y="1362"/>
			<point x="718" y="1396"/>
			<point x="594" y="1406" type="curve"/>
			<point x="594" y="1500" type="line"/>
			<point x="594" y="1500"/>
			<point x="594" y="1500"/>
			<point x="594" y="1500" type="curve"/>
			<point x="468" y="1500" type="line"/>
			<point x="468" y="1500"/>
			<point x="468" y="1500"/>
			<point x="468" y="1500" type="curve"/>
			<point x="468" y="1404" type="line"/>
			<point x="264" y="1374"/>
			<point x="118" y="1210"/>
			<point x="118" y="1018" type="curve" smooth="yes"/>
			<point x="118" y="898"/>
			<point x="188" y="690"/>
			<point x="468" y="632" type="curve"/>
			<point x="468" y="122" type="line"/>
			<point x="310" y="138"/>
			<point x="198" y="202"/>
			<point x="122" y="268" type="curve"/>
			<point x="122" y="268"/>
			<point x="122" y="268"/>
			<point x="122" y="268" type="curve"/>
			<point x="122" y="268"/>
			<point x="122" y="268"/>
			<point x="122" y="268" type="curve"/>
			<point x="113" y="219"/>
			<point x="103" y="169"/>
			<point x="94" y="120" type="curve"/>
			<point x="94" y="120"/>
			<point x="94" y="120"/>
			<point x="94" y="120" type="curve"/>
			<point x="228" y="22"/>
			<point x="366" y="-8"/>
			<point x="468" y="-18" type="curve"/>
			<point x="468" y="-112" type="line"/>
			<point x="468" y="-112"/>
			<point x="468" y="-112"/>
			<point x="468" y="-112" type="curve"/>
			<point x="594" y="-112" type="line"/>
			<point x="594" y="-112"/>
			<point x="594" y="-112"/>
			<point x="594" y="-112" type="curve"/>
			<point x="594" y="-14" type="line"/>
			<point x="798" y="18"/>
			<point x="942" y="196"/>
			<point x="942" y="398" type="curve" smooth="yes"/>
			<point x="942" y="574"/>
			<point x="826" y="766"/>
			<point x="594" y="810" type="curve"/>
		</contour>
		<contour>
			<point x="468" y="840" type="line"/>
			<point x="368" y="862"/>
			<point x="278" y="942"/>
			<point x="278" y="1052" type="curve" smooth="yes"/>
			<point x="278" y="1146"/>
			<point x="350" y="1236"/>
			<point x="468" y="1264" type="curve"/>
		</contour>
		<contour>
			<point x="594" y="602" type="line"/>
			<point x="740" y="562"/>
			<point x="782" y="442"/>
			<point x="782" y="364" type="curve" smooth="yes"/>
			<point x="782" y="270"/>
			<point x="724" y="162"/>
			<point x="594" y="126" type="curve"/>
		</contour>
	</outline>
</glyph>
<glyph name="ampersand" format="2">
	<unicode hex="0026"/>
	<advance width="1610"/>
	<outline>
		<contour>
			<point x="478" y="-42" type="curve" smooth="yes"/>
			<point x="576" y="-42"/>
			<point x="734" y="-22"/>
			<point x="898" y="74" type="curve"/>
			<point x="1054" y="-34"/>
			<point x="1178" y="-42"/>
			<point x="1246" y="-42" type="curve" smooth="yes"/>
			<point x="1280" y="-42"/>
			<point x="1380" y="-40"/>
			<point x="1492" y="-12" type="curve"/>
			<point x="1492" y="-12"/>
			<point x="1492" y="-12"/>
			<point x="1492" y="-12" type="curve"/>
			<point x="1492" y="134" type="line"/>
			<point x="1492" y="134"/>
			<point x="1492" y="134"/>
			<point x="1492" y="134" type="curve"/>
			<point x="1492" y="134"/>
			<point x="1492" y="134"/>
			<point x="1492" y="134" type="curve"/>
			<point x="1386" y="102"/>
			<point x="1300" y="96"/>
			<point x="1246" y="96" type="curve" smooth="yes"/>
			<point x="1204" y="96"/>
			<point x="1124" y="100"/>
			<point x="1026" y="164" type="curve"/>
			<point x="1130" y="244"/>
			<point x="1318" y="438"/>
			<point x="1416" y="774" type="curve"/>
			<point x="1416" y="774"/>
			<point x="1416" y="774"/>
			<point x="1416" y="774" type="curve"/>
			<point x="1282" y="812" type="line"/>
			<point x="1282" y="812"/>
			<point x="1282" y="812"/>
			<point x="1282" y="812" type="curve"/>
			<point x="1196" y="532"/>
			<point x="1056" y="358"/>
			<point x="918" y="252" type="curve"/>
			<point x="838" y="328"/>
			<point x="686" y="498"/>
			<point x="592" y="682" type="curve"/>
			<point x="740" y="804"/>
			<point x="914" y="948"/>
			<point x="914" y="1112" type="curve" smooth="yes"/>
			<point x="914" y="1270"/>
			<point x="804" y="1430"/>
			<point x="640" y="1430" type="curve" smooth="yes"/>
			<point x="456" y="1430"/>
			<point x="344" y="1238"/>
			<point x="344" y="1024" type="curve" smooth="yes"/>
			<point x="344" y="920"/>
			<point x="366" y="812"/>
			<point x="406" y="702" type="curve"/>
			<point x="356" y="662"/>
			<point x="304" y="622"/>
			<point x="254" y="582" type="curve" smooth="yes"/>
			<point x="186" y="526"/>
			<point x="88" y="450"/>
			<point x="88" y="298" type="curve" smooth="yes"/>
			<point x="88" y="112"/>
			<point x="254" y="-42"/>
		</contour>
		<contour>
			<point x="536" y="808" type="curve"/>
			<point x="494" y="938"/>
			<point x="484" y="1036"/>
			<point x="484" y="1100" type="curve" smooth="yes"/>
			<point x="484" y="1226"/>
			<point x="560" y="1298"/>
			<point x="638" y="1298" type="curve" smooth="yes"/>
			<point x="736" y="1298"/>
			<point x="766" y="1180"/>
			<point x="766" y="1114" type="curve" smooth="yes"/>
			<point x="766" y="1044"/>
			<point x="722" y="958"/>
		</contour>
		<contour>
			<point x="464" y="578" type="curve"/>
			<point x="540" y="426"/>
			<point x="692" y="254"/>
			<point x="782" y="168" type="curve"/>
			<point x="650" y="102"/>
			<point x="526" y="96"/>
			<point x="482" y="96" type="curve" smooth="yes"/>
			<point x="328" y="96"/>
			<point x="262" y="220"/>
			<point x="262" y="312" type="curve" smooth="yes"/>
			<point x="262" y="381"/>
			<point x="283" y="424"/>
			<point x="330" y="471" type="curve" smooth="yes"/>
			<point x="362" y="502"/>
			<point x="406" y="535"/>
		</contour>
	</outline>
</glyph>
<glyph name="parenleft" format="2">
	<unicode hex="0028"/>
	<advance width="826"/>
	<outline>
		<contour>
			<point x="168" y="500" type="curve" smooth="yes"/>
			<point x="168" y="122"/>
			<point x="278" y="-254"/>
			<point x="576" y="-500" type="curve"/>
			<point x="576" y="-500"/>
			<point x="576" y="-500"/>
			<point x="576" y="-500" type="curve"/>
			<point x="706" y="-500" type="line"/>
			<point x="706" y="-500"/>
			<point x="706" y="-500"/>
			<point x="706" y="-500" type="curve"/>
			<point x="706" y="-500"/>
			<point x="706" y="-500"/>
			<point x="706" y="-500" type="curve"/>
			<point x="562" y="-370"/>
			<point x="342" y="-76"/>
			<point x="342" y="500" type="curve" smooth="yes"/>
			<point x="342" y="1192"/>
			<point x="666" y="1466"/>
			<point x="706" y="1500" type="curve"/>
			<point x="706" y="1500"/>
			<point x="706" y="1500"/>
			<point x="706" y="1500" type="curve"/>
			<point x="706" y="1500"/>
			<point x="706" y="1500"/>
			<point x="706" y="1500" type="curve"/>
			<point x="576" y="1500" type="line"/>
			<point x="576" y="1500"/>
			<point x="576" y="1500"/>
			<point x="576" y="1500" type="curve"/>
			<point x="328" y="1298"/>
			<point x="168" y="958"/>
		</contour>
	</outline>
</glyph>
<glyph name="parenright" format="2">
	<unicode hex="0029"/>
	<advance width="413"/>
	<outline>
		<contour>
			<point x="59" y="-250" type="curve"/>
			<point x="124" y="-250" type="line"/>
			<point x="273" y="-127"/>
			<point x="328" y="61"/>
			<point x="328" y="250" type="curve" smooth="yes"/>
			<point x="328" y="479"/>
			<point x="248" y="649"/>
			<point x="124" y="750" type="curve"/>
			<point x="59" y="750" type="line"/>
			<point x="79" y="733"/>
			<point x="241" y="596"/>
			<point x="241" y="250" type="curve" smooth="yes"/>
			<point x="241" y="-38"/>
			<point x="131" y="-185"/>
		</contour>
	</outline>
</glyph>
<glyph name="asterisk" format="2">
	<unicode hex="002A"/>
	<advance width="1062"/>
	<outline>
		<contour>
			<point x="530" y="612" type="curve" smooth="yes"/>
			<point x="560" y="612"/>
			<point x="606" y="632"/>
			<point x="606" y="688" type="curve"/>
			<point x="600" y="777"/>
			<point x="594" y="865"/>
			<point x="588" y="954" type="curve"/>
			<point x="796" y="816" type="line" smooth="yes"/>
			<point x="816" y="802"/>
			<point x="828" y="794"/>
			<point x="848" y="794" type="curve" smooth="yes"/>
			<point x="880" y="794"/>
			<point x="924" y="822"/>
			<point x="924" y="874" type="curve" smooth="yes"/>
			<point x="924" y="918"/>
			<point x="896" y="932"/>
			<point x="872" y="944" type="curve" smooth="yes"/>
			<point x="648" y="1056" type="line"/>
			<point x="872" y="1168" type="line" smooth="yes"/>
			<point x="896" y="1180"/>
			<point x="924" y="1194"/>
			<point x="924" y="1238" type="curve" smooth="yes"/>
			<point x="924" y="1290"/>
			<point x="880" y="1318"/>
			<point x="848" y="1318" type="curve" smooth="yes"/>
			<point x="828" y="1318"/>
			<point x="816" y="1310"/>
			<point x="796" y="1296" type="curve" smooth="yes"/>
			<point x="588" y="1158" type="line"/>
			<point x="594" y="1247"/>
			<point x="600" y="1335"/>
			<point x="606" y="1424" type="curve"/>
			<point x="606" y="1480"/>
			<point x="560" y="1500"/>
			<point x="530" y="1500" type="curve" smooth="yes"/>
			<point x="500" y="1500"/>
			<point x="454" y="1480"/>
			<point x="454" y="1424" type="curve"/>
			<point x="460" y="1335"/>
			<point x="466" y="1247"/>
			<point x="472" y="1158" type="curve"/>
			<point x="264" y="1296" type="line" smooth="yes"/>
			<point x="244" y="1310"/>
			<point x="232" y="1318"/>
			<point x="212" y="1318" type="curve" smooth="yes"/>
			<point x="180" y="1318"/>
			<point x="136" y="1290"/>
			<point x="136" y="1238" type="curve" smooth="yes"/>
			<point x="136" y="1194"/>
			<point x="164" y="1180"/>
			<point x="188" y="1168" type="curve" smooth="yes"/>
			<point x="412" y="1056" type="line"/>
			<point x="188" y="944" type="line" smooth="yes"/>
			<point x="164" y="932"/>
			<point x="136" y="918"/>
			<point x="136" y="874" type="curve" smooth="yes"/>
			<point x="136" y="822"/>
			<point x="180" y="794"/>
			<point x="212" y="794" type="curve" smooth="yes"/>
			<point x="230" y="794"/>
			<point x="234" y="794"/>
			<point x="278" y="826" type="curve"/>
			<point x="472" y="954" type="line"/>
			<point x="466" y="865"/>
			<point x="460" y="777"/>
			<point x="454" y="688" type="curve"/>
			<point x="454" y="632"/>
			<point x="500" y="612"/>
		</contour>
	</outline>
</glyph>
<glyph name="plus" format="2">
	<unicode hex="002B"/>
	<advance width="1652"/>
	<outline>
		<contour>
			<point x="872" y="454" type="line"/>
			<point x="1460" y="454" type="line" smooth="yes"/>
			<point x="1488" y="454"/>
			<point x="1532" y="454"/>
			<point x="1532" y="500" type="curve" smooth="yes"/>
			<point x="1532" y="546"/>
			<point x="1488" y="546"/>
			<point x="1460" y="546" type="curve" smooth="yes"/>
			<point x="872" y="546" type="line"/>
			<point x="872" y="1136" type="line" smooth="yes"/>
			<point x="872" y="1164"/>
			<point x="872" y="1208"/>
			<point x="826" y="1208" type="curve" smooth="yes"/>
			<point x="780" y="1208"/>
			<point x="780" y="1164"/>
			<point x="780" y="1136" type="curve" smooth="yes"/>
			<point x="780" y="546" type="line"/>
			<point x="190" y="546" type="line" smooth="yes"/>
			<point x="162" y="546"/>
			<point x="118" y="546"/>
			<point x="118" y="500" type="curve" smooth="yes"/>
			<point x="118" y="454"/>
			<point x="162" y="454"/>
			<point x="190" y="454" type="curve" smooth="yes"/>
			<point x="780" y="454" type="line"/>
			<point x="780" y="-136" type="line" smooth="yes"/>
			<point x="780" y="-164"/>
			<point x="780" y="-208"/>
			<point x="826" y="-208" type="curve" smooth="yes"/>
			<point x="872" y="-208"/>
			<point x="872" y="-164"/>
			<point x="872" y="-136" type="curve" smooth="yes"/>
		</contour>
	</outline>
</glyph>
<glyph name="comma" format="2">
	<unicode hex="002C"/>
	<advance width="295"/>
	<outline>
		<contour>
			<point x="130" y="0" type="line"/>
			<point x="101" y="-128" type="line"/>
			<point x="101" y="-128"/>
			<point x="101" y="-128"/>
			<point x="101" y="-128" type="curve"/>
			<point x="101" y="-128"/>
			<point x="101" y="-128"/>
			<point x="101" y="-128" type="curve"/>
			<point x="146" y="-128" type="line"/>
			<point x="146" y="-128"/>
			<point x="146" y="-128"/>
			<point x="146" y="-128" type="curve"/>
			<point x="161.318" y="-85.043"/>
			<point x="176.636" y="-42.086"/>
			<point x="192" y="1" type="curve"/>
			<point x="192" y="1"/>
			<point x="192" y="1"/>
			<point x="192" y="1" type="curve"/>
			<point x="192" y="90" type="line"/>
			<point x="192" y="90"/>
			<point x="192" y="90"/>
			<point x="192" y="90" type="curve"/>
			<point x="102" y="90" type="line"/>
			<point x="102" y="90"/>
			<point x="102" y="90"/>
			<point x="102" y="90" type="curve"/>
			<point x="102" y="0" type="line"/>
			<point x="102" y="0"/>
			<point x="102" y="0"/>
			<point x="102" y="0" type="curve"/>
		</contour>
	</outline>
</glyph>
<glyph name="hyphen" format="2">
	<unicode hex="002D"/>
	<advance width="354"/>
	<outline>
		<contour>
			<point x="294" y="191" type="line"/>
			<point x="294" y="254" type="line"/>
			<point x="12" y="254" type="line"/>
			<point x="12" y="191" type="line"/>
		</contour>
	</outline>
</glyph>
<glyph name="period" format="2">
	<unicode hex="002E"/>
	<advance width="295"/>
	<outline>
		<contour>
			<point x="192" y="90" type="line"/>
			<point x="192" y="90"/>
			<point x="192" y="90"/>
			<point x="192" y="90" type="curve"/>
			<point x="102" y="90" type="line"/>
			<point x="102" y="90"/>
			<point x="102" y="90"/>
			<point x="102" y="90" type="curve"/>
			<point x="102" y="0" type="line"/>
			<point x="102" y="0"/>
			<point x="102" y="0"/>
			<point x="102" y="0" type="curve"/>
			<point x="192" y="0" type="line"/>
			<point x="192" y="0"/>
			<point x="192" y="0"/>
			<point x="192" y="0" type="curve"/>
		</contour>
	</outline>
</glyph>
<glyph name="slash" format="2">
	<unicode hex="002F"/>
	<advance width="1062"/>
	<outline>
		<contour>
			<point x="932" y="1418" type="line" smooth="yes"/>
			<point x="942" y="1442"/>
			<point x="942" y="1450"/>
			<point x="942" y="1454" type="curve" smooth="yes"/>
			<point x="942" y="1480"/>
			<point x="922" y="1500"/>
			<point x="896" y="1500" type="curve" smooth="yes"/>
			<point x="864" y="1500"/>
			<point x="856" y="1476"/>
			<point x="846" y="1452" type="curve" smooth="yes"/>
			<point x="128" y="-418" type="line" smooth="yes"/>
			<point x="118" y="-442"/>
			<point x="118" y="-450"/>
			<point x="118" y="-454" type="curve" smooth="yes"/>
			<point x="118" y="-480"/>
			<point x="138" y="-500"/>
			<point x="164" y="-500" type="curve" smooth="yes"/>
			<point x="196" y="-500"/>
			<point x="204" y="-476"/>
			<point x="214" y="-452" type="curve" smooth="yes"/>
		</contour>
	</outline>
</glyph>
<glyph name="zero" format="2">
	<unicode hex="0030"/>
	<advance width="1062"/>
	<outline>
		<contour>
			<point x="530" y="-42" type="curve" smooth="yes"/>
			<point x="730" y="-42"/>
			<point x="840" y="74"/>
			<point x="900" y="200" type="curve" smooth="yes"/>
			<point x="970" y="342"/>
			<point x="976" y="526"/>
			<point x="976" y="650" type="curve" smooth="yes"/>
			<point x="976" y="746"/>
			<point x="976" y="980"/>
			<point x="882" y="1144" type="curve" smooth="yes"/>
			<point x="780" y="1324"/>
			<point x="626" y="1354"/>
			<point x="530" y="1354" type="curve" smooth="yes"/>
			<point x="440" y="1354"/>
			<point x="284" y="1326"/>
			<point x="184" y="1154" type="curve" smooth="yes"/>
			<point x="88" y="994"/>
			<point x="84" y="776"/>
			<point x="84" y="650" type="curve" smooth="yes"/>
			<point x="84" y="502"/>
			<point x="92" y="320"/>
			<point x="176" y="168" type="curve" smooth="yes"/>
			<point x="264" y="6"/>
			<point x="412" y="-42"/>
		</contour>
		<contour>
			<point x="530" y="90" type="curve" smooth="yes"/>
			<point x="446" y="90"/>
			<point x="350" y="138"/>
			<point x="300" y="282" type="curve" smooth="yes"/>
			<point x="260" y="404"/>
			<point x="258" y="530"/>
			<point x="258" y="676" type="curve" smooth="yes"/>
			<point x="258" y="776"/>
			<point x="258" y="926"/>
			<point x="300" y="1044" type="curve" smooth="yes"/>
			<point x="338" y="1146"/>
			<point x="404" y="1222"/>
			<point x="530" y="1222" type="curve" smooth="yes"/>
			<point x="654" y="1222"/>
			<point x="722" y="1146"/>
			<point x="760" y="1046" type="curve" smooth="yes"/>
			<point x="802" y="926"/>
			<point x="802" y="776"/>
			<point x="802" y="676" type="curve" smooth="yes"/>
			<point x="802" y="544"/>
			<point x="802" y="394"/>
			<point x="754" y="266" type="curve" smooth="yes"/>
			<point x="698" y="122"/>
			<point x="596" y="90"/>
		</contour>
	</outline>
</glyph>
<glyph name="one" format="2">
	<unicode hex="0031"/>
	<advance width="1062"/>
	<outline>
		<contour>
			<point x="462" y="126" type="line"/>
			<point x="196" y="126" type="line"/>
			<point x="196" y="126"/>
			<point x="196" y="126"/>
			<point x="196" y="126" type="curve"/>
			<point x="196" y="0" type="line"/>
			<point x="196" y="0"/>
			<point x="196" y="0"/>
			<point x="196" y="0" type="curve"/>
			<point x="908" y="0" type="line"/>
			<point x="908" y="0"/>
			<point x="908" y="0"/>
			<point x="908" y="0" type="curve"/>
			<point x="908" y="126" type="line"/>
			<point x="908" y="126"/>
			<point x="908" y="126"/>
			<point x="908" y="126" type="curve"/>
			<point x="642" y="126" type="line"/>
			<point x="642" y="1354" type="line"/>
			<point x="642" y="1354"/>
			<point x="642" y="1354"/>
			<point x="642" y="1354" type="curve"/>
			<point x="598" y="1354" type="line"/>
			<point x="598" y="1354"/>
			<point x="598" y="1354"/>
			<point x="598" y="1354" type="curve"/>
			<point x="468" y="1234"/>
			<point x="304" y="1226"/>
			<point x="184" y="1222" type="curve"/>
			<point x="184" y="1222"/>
			<point x="184" y="1222"/>
			<point x="184" y="1222" type="curve"/>
			<point x="184" y="1096" type="line"/>
			<point x="184" y="1096"/>
			<point x="184" y="1096"/>
			<point x="184" y="1096" type="curve"/>
			<point x="262" y="1098"/>
			<point x="362" y="1102"/>
			<point x="462" y="1142" type="curve"/>
		</contour>
	</outline>
</glyph>
<glyph name="two" format="2">
	<unicode hex="0032"/>
	<advance width="531"/>
	<outline>
		<contour>
			<point x="384" y="459" type="curve" smooth="yes"/>
			<point x="384" y="337"/>
			<point x="252" y="258"/>
			<point x="180" y="187" type="curve" smooth="yes"/>
			<point x="152" y="159"/>
			<point x="82" y="94"/>
			<point x="53" y="69" type="curve"/>
			<point x="53" y="69"/>
			<point x="53" y="69"/>
			<point x="53" y="69" type="curve"/>
			<point x="53" y="0" type="line"/>
			<point x="53" y="0"/>
			<point x="53" y="0"/>
			<point x="53" y="0" type="curve"/>
			<point x="477" y="0" type="line"/>
			<point x="477" y="0"/>
			<point x="477" y="0"/>
			<point x="477" y="0" type="curve"/>
			<point x="477" y="77" type="line"/>
			<point x="477" y="77"/>
			<point x="477" y="77"/>
			<point x="477" y="77" type="curve"/>
			<point x="412.398" y="77"/>
			<point x="347.796" y="77"/>
			<point x="283" y="77" type="curve" smooth="yes"/>
			<point x="271" y="77"/>
			<point x="259" y="76"/>
			<point x="133" y="76" type="curve"/>
			<point x="306" y="229"/>
			<point x="355" y="266"/>
			<point x="374" y="282" type="curve" smooth="yes"/>
			<point x="418" y="322"/>
			<point x="477" y="374"/>
			<point x="477" y="461" type="curve" smooth="yes"/>
			<point x="477" y="574"/>
			<point x="393" y="677"/>
			<point x="250" y="677" type="curve" smooth="yes"/>
			<point x="188.76698" y="677"/>
			<point x="140.882065156" y="657.9789501527"/>
			<point x="104.8030954869" y="622.2500904297" type="curve" smooth="yes"/>
			<point x="78.4260441248" y="596.1290016995"/>
			<point x="58.35922" y="561.07766"/>
			<point x="44" y="518" type="curve"/>
			<point x="91" y="459" type="line"/>
			<point x="91" y="459"/>
			<point x="91" y="459"/>
			<point x="91" y="459" type="curve"/>
			<point x="91" y="459"/>
			<point x="91" y="459"/>
			<point x="91" y="459" type="curve"/>
			<point x="114" y="543"/>
			<point x="149" y="608"/>
			<point x="236" y="608" type="curve" smooth="yes"/>
			<point x="320" y="608"/>
			<point x="384" y="549"/>
		</contour>
	</outline>
</glyph>
<glyph name="three" format="2">
	<unicode hex="0033"/>
	<advance width="1062"/>
	<outline>
		<contour>
			<point x="522" y="-42" type="curve" smooth="yes"/>
			<point x="784" y="-42"/>
			<point x="972" y="154"/>
			<point x="972" y="364" type="curve" smooth="yes"/>
			<point x="972" y="528"/>
			<point x="840" y="660"/>
			<point x="682" y="706" type="curve"/>
			<point x="834" y="784"/>
			<point x="912" y="918"/>
			<point x="912" y="1048" type="curve" smooth="yes"/>
			<point x="912" y="1218"/>
			<point x="738" y="1354"/>
			<point x="524" y="1354" type="curve" smooth="yes"/>
			<point x="348" y="1354"/>
			<point x="202" y="1262"/>
			<point x="118" y="1142" type="curve"/>
			<point x="118" y="1142"/>
			<point x="118" y="1142"/>
			<point x="118" y="1142" type="curve"/>
			<point x="200" y="1026" type="line"/>
			<point x="200" y="1026"/>
			<point x="200" y="1026"/>
			<point x="200" y="1026" type="curve"/>
			<point x="200" y="1026"/>
			<point x="200" y="1026"/>
			<point x="200" y="1026" type="curve"/>
			<point x="282" y="1186"/>
			<point x="426" y="1230"/>
			<point x="522" y="1230" type="curve" smooth="yes"/>
			<point x="640" y="1230"/>
			<point x="728" y="1162"/>
			<point x="728" y="1048" type="curve" smooth="yes"/>
			<point x="728" y="942"/>
			<point x="656" y="812"/>
			<point x="504" y="786" type="curve" smooth="yes"/>
			<point x="494" y="784"/>
			<point x="486" y="784"/>
			<point x="354" y="774" type="curve"/>
			<point x="354" y="774"/>
			<point x="354" y="774"/>
			<point x="354" y="774" type="curve"/>
			<point x="354" y="642" type="line"/>
			<point x="354" y="642"/>
			<point x="354" y="642"/>
			<point x="354" y="642" type="curve"/>
			<point x="510" y="642" type="line" smooth="yes"/>
			<point x="700" y="642"/>
			<point x="770" y="492"/>
			<point x="770" y="366" type="curve" smooth="yes"/>
			<point x="770" y="210"/>
			<point x="674" y="90"/>
			<point x="518" y="90" type="curve" smooth="yes"/>
			<point x="376" y="90"/>
			<point x="214" y="158"/>
			<point x="114" y="286" type="curve"/>
			<point x="114" y="286"/>
			<point x="114" y="286"/>
			<point x="114" y="286" type="curve"/>
			<point x="114" y="286"/>
			<point x="114" y="286"/>
			<point x="114" y="286" type="curve"/>
			<point x="88" y="156" type="line"/>
			<point x="88" y="156"/>
			<point x="88" y="156"/>
			<point x="88" y="156" type="curve"/>
			<point x="204" y="26"/>
			<point x="366" y="-42"/>
		</contour>
	</outline>
</glyph>
<glyph name="four" format="2">
	<unicode hex="0034"/>
	<advance width="1062"/>
	<outline>
		<contour>
			<point x="620" y="334" type="line"/>
			<point x="620" y="0" type="line"/>
			<point x="620" y="0"/>
			<point x="620" y="0"/>
			<point x="620" y="0" type="curve"/>
			<point x="792" y="0" type="line"/>
			<point x="792" y="0"/>
			<point x="792" y="0"/>
			<point x="792" y="0" type="curve"/>
			<point x="792" y="334" type="line"/>
			<point x="1000" y="334" type="line"/>
			<point x="1000" y="334"/>
			<point x="1000" y="334"/>
			<point x="1000" y="334" type="curve"/>
			<point x="1000" y="466" type="line"/>
			<point x="1000" y="466"/>
			<point x="1000" y="466"/>
			<point x="1000" y="466" type="curve"/>
			<point x="792" y="466" type="line"/>
			<point x="792" y="1312" type="line"/>
			<point x="792" y="1312"/>
			<point x="792" y="1312"/>
			<point x="792" y="1312" type="curve"/>
			<point x="594" y="1312" type="line"/>
			<point x="594" y="1312"/>
			<point x="594" y="1312"/>
			<point x="594" y="1312" type="curve"/>
			<point x="60" y="466" type="line"/>
			<point x="60" y="466"/>
			<point x="60" y="466"/>
			<point x="60" y="466" type="curve"/>
			<point x="60" y="334" type="line"/>
			<point x="60" y="334"/>
			<point x="60" y="334"/>
			<point x="60" y="334" type="curve"/>
		</contour>
		<contour>
			<point x="230" y="466" type="line"/>
			<point x="266" y="522"/>
			<point x="404" y="738"/>
			<point x="510" y="928" type="curve" smooth="yes"/>
			<point x="580" y="1052"/>
			<point x="634" y="1166"/>
			<point x="634" y="1214" type="curve"/>
			<point x="634" y="466" type="line"/>
		</contour>
	</outline>
</glyph>
<glyph name="five" format="2">
	<unicode hex="0035"/>
	<advance width="1062"/>
	<outline>
		<contour>
			<point x="328" y="1174" type="line"/>
			<point x="882" y="1174" type="line"/>
			<point x="882" y="1174"/>
			<point x="882" y="1174"/>
			<point x="882" y="1174" type="curve"/>
			<point x="882" y="1312" type="line"/>
			<point x="882" y="1312"/>
			<point x="882" y="1312"/>
			<point x="882" y="1312" type="curve"/>
			<point x="168" y="1312" type="line"/>
			<point x="168" y="1312"/>
			<point x="168" y="1312"/>
			<point x="168" y="1312" type="curve"/>
			<point x="168" y="564" type="line"/>
			<point x="168" y="564"/>
			<point x="168" y="564"/>
			<point x="168" y="564" type="curve"/>
			<point x="314" y="564" type="line"/>
			<point x="314" y="564"/>
			<point x="314" y="564"/>
			<point x="314" y="564" type="curve"/>
			<point x="362" y="672"/>
			<point x="456" y="720"/>
			<point x="546" y="720" type="curve" smooth="yes"/>
			<point x="628" y="720"/>
			<point x="752" y="664"/>
			<point x="752" y="410" type="curve" smooth="yes"/>
			<point x="752" y="148"/>
			<point x="586" y="90"/>
			<point x="484" y="90" type="curve" smooth="yes"/>
			<point x="352" y="90"/>
			<point x="224" y="160"/>
			<point x="156" y="274" type="curve"/>
			<point x="156" y="274"/>
			<point x="156" y="274"/>
			<point x="156" y="274" type="curve"/>
			<point x="156" y="274"/>
			<point x="156" y="274"/>
			<point x="156" y="274" type="curve"/>
			<point x="131" y="234"/>
			<point x="105" y="194"/>
			<point x="80" y="154" type="curve"/>
			<point x="178" y="32"/>
			<point x="326" y="-42"/>
			<point x="484" y="-42" type="curve" smooth="yes"/>
			<point x="748" y="-42"/>
			<point x="954" y="162"/>
			<point x="954" y="406" type="curve" smooth="yes"/>
			<point x="954" y="654"/>
			<point x="770" y="852"/>
			<point x="550" y="852" type="curve" smooth="yes"/>
			<point x="464" y="852"/>
			<point x="388" y="822"/>
			<point x="328" y="772" type="curve"/>
		</contour>
	</outline>
</glyph>
<glyph name="six" format="2">
	<unicode hex="0036"/>
	<advance width="1062"/>
	<outline>
		<contour>
			<point x="88" y="646" type="curve" smooth="yes"/>
			<point x="88" y="104"/>
			<point x="332" y="-42"/>
			<point x="534" y="-42" type="curve" smooth="yes"/>
			<point x="696" y="-42"/>
			<point x="780" y="34"/>
			<point x="842" y="98" type="curve" smooth="yes"/>
			<point x="970" y="234"/>
			<point x="972" y="376"/>
			<point x="972" y="436" type="curve" smooth="yes"/>
			<point x="972" y="706"/>
			<point x="830" y="926"/>
			<point x="636" y="926" type="curve" smooth="yes"/>
			<point x="440" y="926"/>
			<point x="334" y="824"/>
			<point x="276" y="766" type="curve"/>
			<point x="284" y="858"/>
			<point x="306" y="944"/>
			<point x="340" y="1014" type="curve" smooth="yes"/>
			<point x="404" y="1150"/>
			<point x="514" y="1230"/>
			<point x="658" y="1230" type="curve" smooth="yes"/>
			<point x="698" y="1230"/>
			<point x="778" y="1226"/>
			<point x="878" y="1188" type="curve"/>
			<point x="878" y="1188"/>
			<point x="878" y="1188"/>
			<point x="878" y="1188" type="curve"/>
			<point x="878" y="1188"/>
			<point x="878" y="1188"/>
			<point x="878" y="1188" type="curve"/>
			<point x="878" y="1314" type="line"/>
			<point x="878" y="1314"/>
			<point x="878" y="1314"/>
			<point x="878" y="1314" type="curve"/>
			<point x="770" y="1354"/>
			<point x="694" y="1354"/>
			<point x="656" y="1354" type="curve" smooth="yes"/>
			<point x="352" y="1354"/>
			<point x="88" y="1068"/>
		</contour>
		<contour>
			<point x="534" y="90" type="curve" smooth="yes"/>
			<point x="322" y="90"/>
			<point x="288" y="352"/>
			<point x="278" y="440" type="curve"/>
			<point x="278" y="452"/>
			<point x="278" y="482"/>
			<point x="280" y="492" type="curve"/>
			<point x="280" y="628"/>
			<point x="366" y="794"/>
			<point x="544" y="794" type="curve" smooth="yes"/>
			<point x="634" y="794"/>
			<point x="692" y="756"/>
			<point x="728" y="704" type="curve" smooth="yes"/>
			<point x="788" y="616"/>
			<point x="788" y="488"/>
			<point x="788" y="446" type="curve" smooth="yes"/>
			<point x="788" y="370"/>
			<point x="788" y="286"/>
			<point x="734" y="202" type="curve" smooth="yes"/>
			<point x="686" y="130"/>
			<point x="626" y="90"/>
		</contour>
	</outline>
</glyph>
<glyph name="seven" format="2">
	<unicode hex="0037"/>
	<advance width="531"/>
	<outline>
		<contour>
			<point x="409" y="580" type="line"/>
			<point x="257" y="431"/>
			<point x="160" y="222"/>
			<point x="160" y="-10" type="curve"/>
			<point x="160" y="-10"/>
			<point x="160" y="-10"/>
			<point x="160" y="-10" type="curve"/>
			<point x="254" y="-10" type="line"/>
			<point x="254" y="-10"/>
			<point x="254" y="-10"/>
			<point x="254" y="-10" type="curve"/>
			<point x="254" y="282"/>
			<point x="396" y="492"/>
			<point x="486" y="586" type="curve"/>
			<point x="486" y="586"/>
			<point x="486" y="586"/>
			<point x="486" y="586" type="curve"/>
			<point x="486" y="656" type="line"/>
			<point x="486" y="656"/>
			<point x="486" y="656"/>
			<point x="486" y="656" type="curve"/>
			<point x="404.748" y="656"/>
			<point x="323.496" y="656"/>
			<point x="242" y="656" type="curve"/>
			<point x="44" y="656" type="line"/>
			<point x="44" y="656"/>
			<point x="44" y="656"/>
			<point x="44" y="656" type="curve"/>
			<point x="44" y="579" type="line"/>
			<point x="44" y="579"/>
			<point x="44" y="579"/>
			<point x="44" y="579" type="curve"/>
			<point x="139" y="579"/>
			<point x="231" y="580"/>
			<point x="263" y="580" type="curve" smooth="yes"/>
		</contour>
	</outline>
</glyph>
<glyph name="eight" format="2">
	<unicode hex="0038"/>
	<advance width="1062"/>
	<outline>
		<contour>
			<point x="684" y="708" type="curve"/>
			<point x="816" y="750"/>
			<point x="942" y="856"/>
			<point x="942" y="1004" type="curve" smooth="yes"/>
			<point x="942" y="1186"/>
			<point x="768" y="1354"/>
			<point x="530" y="1354" type="curve" smooth="yes"/>
			<point x="292" y="1354"/>
			<point x="118" y="1186"/>
			<point x="118" y="1004" type="curve" smooth="yes"/>
			<point x="118" y="854"/>
			<point x="248" y="748"/>
			<point x="376" y="708" type="curve"/>
			<point x="200" y="654"/>
			<point x="88" y="518"/>
			<point x="88" y="364" type="curve" smooth="yes"/>
			<point x="88" y="150"/>
			<point x="278" y="-42"/>
			<point x="530" y="-42" type="curve" smooth="yes"/>
			<point x="782" y="-42"/>
			<point x="972" y="150"/>
			<point x="972" y="364" type="curve" smooth="yes"/>
			<point x="972" y="518"/>
			<point x="858" y="654"/>
		</contour>
		<contour>
			<point x="530" y="774" type="curve" smooth="yes"/>
			<point x="388" y="774"/>
			<point x="272" y="856"/>
			<point x="272" y="1002" type="curve" smooth="yes"/>
			<point x="272" y="1130"/>
			<point x="362" y="1230"/>
			<point x="530" y="1230" type="curve" smooth="yes"/>
			<point x="696" y="1230"/>
			<point x="788" y="1130"/>
			<point x="788" y="1002" type="curve" smooth="yes"/>
			<point x="788" y="860"/>
			<point x="676" y="774"/>
		</contour>
		<contour>
			<point x="530" y="90" type="curve" smooth="yes"/>
			<point x="392" y="90"/>
			<point x="270" y="178"/>
			<point x="270" y="366" type="curve" smooth="yes"/>
			<point x="270" y="546"/>
			<point x="386" y="642"/>
			<point x="530" y="642" type="curve" smooth="yes"/>
			<point x="674" y="642"/>
			<point x="790" y="544"/>
			<point x="790" y="366" type="curve" smooth="yes"/>
			<point x="790" y="178"/>
			<point x="666" y="90"/>
		</contour>
	</outline>
</glyph>
<glyph name="nine" format="2">
	<unicode hex="0039"/>
	<advance width="1062"/>
	<outline>
		<contour>
			<point x="436" y="-42" type="curve" smooth="yes"/>
			<point x="716" y="-42"/>
			<point x="972" y="240"/>
			<point x="972" y="670" type="curve" smooth="yes"/>
			<point x="972" y="1216"/>
			<point x="730" y="1354"/>
			<point x="538" y="1354" type="curve" smooth="yes"/>
			<point x="360" y="1354"/>
			<point x="278" y="1270"/>
			<point x="220" y="1212" type="curve" smooth="yes"/>
			<point x="92" y="1082"/>
			<point x="88" y="944"/>
			<point x="88" y="866" type="curve" smooth="yes"/>
			<point x="88" y="732"/>
			<point x="126" y="610"/>
			<point x="188" y="520" type="curve" smooth="yes"/>
			<point x="248" y="438"/>
			<point x="330" y="386"/>
			<point x="424" y="386" type="curve" smooth="yes"/>
			<point x="650" y="386"/>
			<point x="774" y="536"/>
			<point x="784" y="548" type="curve"/>
			<point x="779" y="495"/>
			<point x="771" y="447"/>
			<point x="760" y="404" type="curve" smooth="yes"/>
			<point x="704" y="187"/>
			<point x="573" y="90"/>
			<point x="436" y="90" type="curve" smooth="yes"/>
			<point x="332" y="90"/>
			<point x="268" y="128"/>
			<point x="222" y="166" type="curve"/>
			<point x="222" y="166"/>
			<point x="222" y="166"/>
			<point x="222" y="166" type="curve"/>
			<point x="222" y="166"/>
			<point x="222" y="166"/>
			<point x="222" y="166" type="curve"/>
			<point x="199" y="127"/>
			<point x="177" y="89"/>
			<point x="154" y="50" type="curve"/>
			<point x="154" y="50"/>
			<point x="154" y="50"/>
			<point x="154" y="50" type="curve"/>
			<point x="252" y="-22"/>
			<point x="342" y="-42"/>
		</contour>
		<contour>
			<point x="516" y="518" type="curve" smooth="yes"/>
			<point x="440" y="518"/>
			<point x="380" y="540"/>
			<point x="328" y="622" type="curve" smooth="yes"/>
			<point x="276" y="700"/>
			<point x="272" y="776"/>
			<point x="272" y="866" type="curve" smooth="yes"/>
			<point x="272" y="944"/>
			<point x="272" y="1034"/>
			<point x="334" y="1122" type="curve" smooth="yes"/>
			<point x="376" y="1182"/>
			<point x="436" y="1230"/>
			<point x="536" y="1230" type="curve" smooth="yes"/>
			<point x="730" y="1230"/>
			<point x="770" y="998"/>
			<point x="780" y="868" type="curve" smooth="yes"/>
			<point x="780" y="856"/>
			<point x="780" y="836"/>
			<point x="780" y="824" type="curve" smooth="yes"/>
			<point x="780" y="676"/>
			<point x="690" y="518"/>
		</contour>
	</outline>
</glyph>
<glyph name="colon" format="2">
	<unicode hex="003A"/>
	<advance width="590"/>
	<outline>
		<contour>
			<point x="384" y="888" type="line"/>
			<point x="384" y="888"/>
			<point x="384" y="888"/>
			<point x="384" y="888" type="curve"/>
			<point x="204" y="888" type="line"/>
			<point x="204" y="888"/>
			<point x="204" y="888"/>
			<point x="204" y="888" type="curve"/>
			<point x="204" y="708" type="line"/>
			<point x="204" y="708"/>
			<point x="204" y="708"/>
			<point x="204" y="708" type="curve"/>
			<point x="384" y="708" type="line"/>
			<point x="384" y="708"/>
			<point x="384" y="708"/>
			<point x="384" y="708" type="curve"/>
		</contour>
		<contour>
			<point x="204" y="0" type="curve"/>
			<point x="204" y="0"/>
			<point x="204" y="0"/>
			<point x="204" y="0" type="curve"/>
			<point x="264" y="0"/>
			<point x="324" y="0"/>
			<point x="384" y="0" type="curve"/>
			<point x="384" y="0"/>
			<point x="384" y="0"/>
			<point x="384" y="0" type="curve"/>
			<point x="384" y="60"/>
			<point x="384" y="120"/>
			<point x="384" y="180" type="curve"/>
			<point x="384" y="180"/>
			<point x="384" y="180"/>
			<point x="384" y="180" type="curve"/>
			<point x="324" y="180"/>
			<point x="264" y="180"/>
			<point x="204" y="180" type="curve"/>
			<point x="204" y="180"/>
			<point x="204" y="180"/>
			<point x="204" y="180" type="curve"/>
			<point x="204" y="120"/>
			<point x="204" y="60"/>
		</contour>
	</outline>
</glyph>
<glyph name="semicolon" format="2">
	<unicode hex="003B"/>
	<advance width="590"/>
	<outline>
		<contour>
			<point x="384" y="888" type="line"/>
			<point x="384" y="888"/>
			<point x="384" y="888"/>
			<point x="384" y="888" type="curve"/>
			<point x="204" y="888" type="line"/>
			<point x="204" y="888"/>
			<point x="204" y="888"/>
			<point x="204" y="888" type="curve"/>
			<point x="204" y="708" type="line"/>
			<point x="204" y="708"/>
			<point x="204" y="708"/>
			<point x="204" y="708" type="curve"/>
			<point x="384" y="708" type="line"/>
			<point x="384" y="708"/>
			<point x="384" y="708"/>
			<point x="384" y="708" type="curve"/>
		</contour>
		<contour>
			<point x="260" y="0" type="line"/>
			<point x="202" y="-256" type="line"/>
			<point x="202" y="-256"/>
			<point x="202" y="-256"/>
			<point x="202" y="-256" type="curve"/>
			<point x="202" y="-256"/>
			<point x="202" y="-256"/>
			<point x="202" y="-256" type="curve"/>
			<point x="292" y="-256" type="line"/>
			<point x="292" y="-256"/>
			<point x="292" y="-256"/>
			<point x="292" y="-256" type="curve"/>
			<point x="323" y="-170"/>
			<point x="353" y="-84"/>
			<point x="384" y="2" type="curve"/>
			<point x="384" y="2"/>
			<point x="384" y="2"/>
			<point x="384" y="2" type="curve"/>
			<point x="384" y="180" type="line"/>
			<point x="384" y="180"/>
			<point x="384" y="180"/>
			<point x="384" y="180" type="curve"/>
			<point x="204" y="180" type="line"/>
			<point x="204" y="180"/>
			<point x="204" y="180"/>
			<point x="204" y="180" type="curve"/>
			<point x="204" y="0" type="line"/>
			<point x="204" y="0"/>
			<point x="204" y="0"/>
			<point x="204" y="0" type="curve"/>
		</contour>
	</outline>
</glyph>
<glyph name="equal" format="2">
	<unicode hex="003D"/>
	<advance width="1652"/>
	<outline>
		<contour>
			<point x="1460" y="672" type="line" smooth="yes"/>
			<point x="1488" y="672"/>
			<point x="1532" y="672"/>
			<point x="1532" y="718" type="curve" smooth="yes"/>
			<point x="1532" y="764"/>
			<point x="1488" y="764"/>
			<point x="1460" y="764" type="curve" smooth="yes"/>
			<point x="190" y="764" type="line" smooth="yes"/>
			<point x="162" y="764"/>
			<point x="118" y="764"/>
			<point x="118" y="718" type="curve" smooth="yes"/>
			<point x="118" y="672"/>
			<point x="162" y="672"/>
			<point x="190" y="672" type="curve" smooth="yes"/>
		</contour>
		<contour>
			<point x="1460" y="236" type="line" smooth="yes"/>
			<point x="1488" y="236"/>
			<point x="1532" y="236"/>
			<point x="1532" y="282" type="curve" smooth="yes"/>
			<point x="1532" y="328"/>
			<point x="1488" y="328"/>
			<point x="1460" y="328" type="curve" smooth="yes"/>
			<point x="190" y="328" type="line" smooth="yes"/>
			<point x="162" y="328"/>
			<point x="118" y="328"/>
			<point x="118" y="282" type="curve" smooth="yes"/>
			<point x="118" y="236"/>
			<point x="162" y="236"/>
			<point x="190" y="236" type="curve" smooth="yes"/>
		</contour>
	</outline>
</glyph>
<glyph name="question" format="2">
  <advance width="501"/>
  <unicode hex="003F"/>
  <outline>
    <contour>
      <point x="272" y="226" type="line" smooth="yes"/>
      <point x="272" y="342"/>
      <point x="358" y="410"/>
      <point x="388" y="433" type="curve" smooth="yes"/>
      <point x="424" y="462"/>
      <point x="442" y="503"/>
      <point x="442" y="548" type="curve" smooth="yes"/>
      <point x="442" y="627"/>
      <point x="390" y="704"/>
      <point x="238" y="704" type="curve" smooth="yes"/>
      <point x="177" y="704"/>
      <point x="118" y="689"/>
      <point x="59" y="652" type="curve"/>
      <point x="83" y="584" type="line"/>
      <point x="154" y="638"/>
      <point x="218" y="638"/>
      <point x="240" y="638" type="curve" smooth="yes"/>
      <point x="281" y="638"/>
      <point x="355" y="634"/>
      <point x="355" y="550" type="curve" smooth="yes"/>
      <point x="355" y="508"/>
      <point x="335" y="491"/>
      <point x="315" y="475" type="curve" smooth="yes"/>
      <point x="246" y="419"/>
      <point x="200" y="330"/>
      <point x="200" y="230" type="curve" smooth="yes"/>
      <point x="200" y="180" type="line"/>
      <point x="272" y="180" type="line"/>
    </contour>
    <contour>
      <point x="191" y="0" type="line"/>
      <point x="281" y="0" type="line"/>
      <point x="281" y="90" type="line"/>
      <point x="191" y="90" type="line"/>
    </contour>
  </outline>
</glyph>
<glyph name="at" format="2">
	<unicode hex="0040"/>
	<advance width="708"/>
	<outline>
		<contour>
			<point x="594" y="88" type="line" smooth="yes"/>
			<point x="579" y="88"/>
			<point x="577" y="87"/>
			<point x="569" y="84" type="curve" smooth="yes"/>
			<point x="520" y="67"/>
			<point x="469" y="56"/>
			<point x="416" y="56" type="curve" smooth="yes"/>
			<point x="255" y="56"/>
			<point x="140" y="192"/>
			<point x="140" y="347" type="curve" smooth="yes"/>
			<point x="140" y="515"/>
			<point x="270" y="638"/>
			<point x="410" y="638" type="curve" smooth="yes"/>
			<point x="438" y="638"/>
			<point x="504" y="631"/>
			<point x="537" y="551" type="curve"/>
			<point x="509" y="567"/>
			<point x="478" y="574"/>
			<point x="452" y="574" type="curve" smooth="yes"/>
			<point x="345" y="574"/>
			<point x="255" y="474"/>
			<point x="255" y="347" type="curve" smooth="yes"/>
			<point x="255" y="217"/>
			<point x="348" y="120"/>
			<point x="451" y="120" type="curve" smooth="yes"/>
			<point x="529" y="120"/>
			<point x="648" y="183"/>
			<point x="648" y="361" type="curve" smooth="yes"/>
			<point x="648" y="462"/>
			<point x="641" y="704"/>
			<point x="411" y="704" type="curve" smooth="yes"/>
			<point x="221" y="704"/>
			<point x="59" y="547"/>
			<point x="59" y="347" type="curve" smooth="yes"/>
			<point x="59" y="149"/>
			<point x="219" y="-10"/>
			<point x="412" y="-10" type="curve" smooth="yes"/>
			<point x="504" y="-10"/>
			<point x="590" y="28"/>
			<point x="648" y="88" type="curve"/>
			<point x="648" y="88"/>
			<point x="648" y="88"/>
			<point x="648" y="88" type="curve"/>
			<point x="648" y="88"/>
			<point x="648" y="88"/>
			<point x="648" y="88" type="curve"/>
		</contour>
		<contour>
			<point x="452" y="186" type="curve" smooth="yes"/>
			<point x="390" y="186"/>
			<point x="336" y="255"/>
			<point x="336" y="347" type="curve" smooth="yes"/>
			<point x="336" y="442"/>
			<point x="392" y="508"/>
			<point x="451" y="508" type="curve" smooth="yes"/>
			<point x="513" y="508"/>
			<point x="567" y="439"/>
			<point x="567" y="347" type="curve" smooth="yes"/>
			<point x="567" y="252"/>
			<point x="511" y="186"/>
		</contour>
	</outline>
</glyph>
<glyph name="A" format="2">
  <advance width="708"/>
  <unicode hex="0041"/>
  <outline>
    <contour>
      <point x="30" y="0" type="line"/>
      <point x="112" y="0" type="line"/>
      <point x="190" y="198" type="line"/>
      <point x="494" y="198" type="line"/>
      <point x="572" y="0" type="line"/>
      <point x="677" y="0" type="line"/>
      <point x="402" y="694" type="line"/>
      <point x="305" y="694" type="line"/>
    </contour>
    <contour>
      <point x="215" y="257" type="line"/>
      <point x="258" y="377"/>
      <point x="300" y="498"/>
      <point x="343" y="617" type="curve"/>
      <point x="343" y="618" type="line"/>
      <point x="385" y="498"/>
      <point x="427" y="377"/>
      <point x="469" y="257" type="curve"/>
    </contour>
  </outline>
</glyph>
<glyph name="B" format="2">
	<unicode hex="0042"/>
	<advance width="1416"/>
	<outline>
		<contour>
			<point x="200" y="1388" type="line"/>
			<point x="200" y="1388"/>
			<point x="200" y="1388"/>
			<point x="200" y="1388" type="curve"/>
			<point x="200" y="0" type="line"/>
			<point x="200" y="0"/>
			<point x="200" y="0"/>
			<point x="200" y="0" type="curve"/>
			<point x="770" y="0" type="line" smooth="yes"/>
			<point x="1066" y="0"/>
			<point x="1296" y="176"/>
			<point x="1296" y="376" type="curve" smooth="yes"/>
			<point x="1296" y="552"/>
			<point x="1110" y="694"/>
			<point x="888" y="726" type="curve"/>
			<point x="1096" y="776"/>
			<point x="1236" y="896"/>
			<point x="1236" y="1040" type="curve" smooth="yes"/>
			<point x="1236" y="1224"/>
			<point x="1006" y="1388"/>
			<point x="712" y="1388" type="curve" smooth="yes"/>
		</contour>
		<contour>
			<point x="388" y="788" type="line"/>
			<point x="388" y="1270" type="line"/>
			<point x="652" y="1270" type="line" smooth="yes"/>
			<point x="876" y="1270"/>
			<point x="1062" y="1166"/>
			<point x="1062" y="1038" type="curve" smooth="yes"/>
			<point x="1062" y="904"/>
			<point x="880" y="788"/>
			<point x="654" y="788" type="curve" smooth="yes"/>
		</contour>
		<contour>
			<point x="388" y="118" type="line"/>
			<point x="388" y="656" type="line"/>
			<point x="674" y="656" type="line" smooth="yes"/>
			<point x="926" y="656"/>
			<point x="1114" y="528"/>
			<point x="1114" y="378" type="curve" smooth="yes"/>
			<point x="1114" y="230"/>
			<point x="928" y="118"/>
			<point x="708" y="118" type="curve" smooth="yes"/>
		</contour>
	</outline>
</glyph>
<glyph name="C" format="2">
	<unicode hex="0043"/>
	<advance width="1358"/>
	<outline>
		<contour>
			<point x="136" y="696" type="curve" smooth="yes"/>
			<point x="136" y="284"/>
			<point x="450" y="-20"/>
			<point x="840" y="-20" type="curve" smooth="yes"/>
			<point x="1036" y="-20"/>
			<point x="1118" y="20"/>
			<point x="1250" y="92" type="curve"/>
			<point x="1250" y="92"/>
			<point x="1250" y="92"/>
			<point x="1250" y="92" type="curve"/>
			<point x="1238" y="244" type="line"/>
			<point x="1238" y="244"/>
			<point x="1238" y="244"/>
			<point x="1238" y="244" type="curve"/>
			<point x="1098" y="158"/>
			<point x="1034" y="120"/>
			<point x="834" y="120" type="curve" smooth="yes"/>
			<point x="524" y="120"/>
			<point x="336" y="410"/>
			<point x="336" y="698" type="curve" smooth="yes"/>
			<point x="336" y="994"/>
			<point x="542" y="1272"/>
			<point x="834" y="1272" type="curve" smooth="yes"/>
			<point x="966" y="1272"/>
			<point x="1102" y="1230"/>
			<point x="1194" y="1160" type="curve"/>
			<point x="1194" y="1160"/>
			<point x="1194" y="1160"/>
			<point x="1194" y="1160" type="curve"/>
			<point x="1194" y="1160"/>
			<point x="1194" y="1160"/>
			<point x="1194" y="1160" type="curve"/>
			<point x="1226" y="1342" type="line"/>
			<point x="1226" y="1342"/>
			<point x="1226" y="1342"/>
			<point x="1226" y="1342" type="curve"/>
			<point x="1086" y="1394"/>
			<point x="974" y="1410"/>
			<point x="828" y="1410" type="curve" smooth="yes"/>
			<point x="432" y="1410"/>
			<point x="136" y="1082"/>
		</contour>
	</outline>
</glyph>
<glyph name="D" format="2">
	<unicode hex="0044"/>
	<advance width="1534"/>
	<outline>
		<contour>
			<point x="764" y="0" type="line" smooth="yes"/>
			<point x="1124" y="0"/>
			<point x="1414" y="304"/>
			<point x="1414" y="682" type="curve" smooth="yes"/>
			<point x="1414" y="1074"/>
			<point x="1122" y="1388"/>
			<point x="764" y="1388" type="curve" smooth="yes"/>
			<point x="196" y="1388" type="line"/>
			<point x="196" y="1388"/>
			<point x="196" y="1388"/>
			<point x="196" y="1388" type="curve"/>
			<point x="196" y="0" type="line"/>
			<point x="196" y="0"/>
			<point x="196" y="0"/>
			<point x="196" y="0" type="curve"/>
		</contour>
		<contour>
			<point x="392" y="118" type="line"/>
			<point x="392" y="1270" type="line"/>
			<point x="710" y="1270" type="line" smooth="yes"/>
			<point x="984" y="1270"/>
			<point x="1218" y="1052"/>
			<point x="1218" y="684" type="curve" smooth="yes"/>
			<point x="1218" y="312"/>
			<point x="974" y="118"/>
			<point x="710" y="118" type="curve" smooth="yes"/>
		</contour>
	</outline>
</glyph>
<glyph name="E" format="2">
	<unicode hex="0045"/>
	<advance width="1274"/>
	<outline>
		<contour>
			<point x="396" y="156" type="line"/>
			<point x="396" y="652" type="line"/>
			<point x="1094" y="652" type="line"/>
			<point x="1094" y="652"/>
			<point x="1094" y="652"/>
			<point x="1094" y="652" type="curve"/>
			<point x="1094" y="784" type="line"/>
			<point x="1094" y="784"/>
			<point x="1094" y="784"/>
			<point x="1094" y="784" type="curve"/>
			<point x="396" y="784" type="line"/>
			<point x="396" y="1242" type="line"/>
			<point x="1154" y="1242" type="line"/>
			<point x="1154" y="1242"/>
			<point x="1154" y="1242"/>
			<point x="1154" y="1242" type="curve"/>
			<point x="1154" y="1382" type="line"/>
			<point x="1154" y="1382"/>
			<point x="1154" y="1382"/>
			<point x="1154" y="1382" type="curve"/>
			<point x="194" y="1382" type="line"/>
			<point x="194" y="1382"/>
			<point x="194" y="1382"/>
			<point x="194" y="1382" type="curve"/>
			<point x="194" y="0" type="line"/>
			<point x="194" y="0"/>
			<point x="194" y="0"/>
			<point x="194" y="0" type="curve"/>
			<point x="1184" y="0" type="line"/>
			<point x="1184" y="0"/>
			<point x="1184" y="0"/>
			<point x="1184" y="0" type="curve"/>
			<point x="1184" y="156" type="line"/>
			<point x="1184" y="156"/>
			<point x="1184" y="156"/>
			<point x="1184" y="156" type="curve"/>
		</contour>
	</outline>
</glyph>
<glyph name="F" format="2">
	<unicode hex="0046"/>
	<advance width="607"/>
	<outline>
		<contour>
			<point x="198" y="313" type="line"/>
			<point x="518" y="313" type="line"/>
			<point x="518" y="313"/>
			<point x="518" y="313"/>
			<point x="518" y="313" type="curve"/>
			<point x="518" y="379" type="line"/>
			<point x="518" y="379"/>
			<point x="518" y="379"/>
			<point x="518" y="379" type="curve"/>
			<point x="198" y="379" type="line"/>
			<point x="198" y="621" type="line"/>
			<point x="563" y="621" type="line"/>
			<point x="563" y="621"/>
			<point x="563" y="621"/>
			<point x="563" y="621" type="curve"/>
			<point x="563" y="691" type="line"/>
			<point x="563" y="691"/>
			<point x="563" y="691"/>
			<point x="563" y="691" type="curve"/>
			<point x="97" y="691" type="line"/>
			<point x="97" y="691"/>
			<point x="97" y="691"/>
			<point x="97" y="691" type="curve"/>
			<point x="97" y="0" type="line"/>
			<point x="97" y="0"/>
			<point x="97" y="0"/>
			<point x="97" y="0" type="curve"/>
			<point x="198" y="0" type="line"/>
			<point x="198" y="0"/>
			<point x="198" y="0"/>
			<point x="198" y="0" type="curve"/>
		</contour>
	</outline>
</glyph>
<glyph name="G" format="2">
	<unicode hex="0047"/>
	<advance width="708"/>
	<outline>
		<contour>
			<point x="68" y="348" type="curve" smooth="yes"/>
			<point x="68" y="153"/>
			<point x="219" y="-10"/>
			<point x="416" y="-10" type="curve" smooth="yes"/>
			<point x="488" y="-10"/>
			<point x="573" y="6"/>
			<point x="637" y="39" type="curve"/>
			<point x="637" y="299" type="line"/>
			<point x="637" y="299"/>
			<point x="637" y="299"/>
			<point x="637" y="299" type="curve"/>
			<point x="413" y="299" type="line"/>
			<point x="413" y="299"/>
			<point x="413" y="299"/>
			<point x="413" y="299" type="curve"/>
			<point x="413" y="233" type="line"/>
			<point x="413" y="233"/>
			<point x="413" y="233"/>
			<point x="413" y="233" type="curve"/>
			<point x="549" y="233" type="line"/>
			<point x="549" y="80" type="line"/>
			<point x="511" y="67"/>
			<point x="462" y="60"/>
			<point x="417" y="60" type="curve" smooth="yes"/>
			<point x="263" y="60"/>
			<point x="168" y="205"/>
			<point x="168" y="348" type="curve" smooth="yes"/>
			<point x="168" y="485"/>
			<point x="261" y="636"/>
			<point x="412" y="636" type="curve" smooth="yes"/>
			<point x="504" y="636"/>
			<point x="562" y="608"/>
			<point x="612" y="566" type="curve"/>
			<point x="612" y="566"/>
			<point x="612" y="566"/>
			<point x="612" y="566" type="curve"/>
			<point x="612" y="566"/>
			<point x="612" y="566"/>
			<point x="612" y="566" type="curve"/>
			<point x="628" y="657" type="line"/>
			<point x="628" y="657"/>
			<point x="628" y="657"/>
			<point x="628" y="657" type="curve"/>
			<point x="559" y="690"/>
			<point x="498" y="706"/>
			<point x="422" y="706" type="curve" smooth="yes"/>
			<point x="220" y="706"/>
			<point x="68" y="548"/>
		</contour>
	</outline>
</glyph>
<glyph name="H" format="2">
	<unicode hex="0048"/>
	<advance width="1500"/>
	<outline>
		<contour>
			<point x="396" y="656" type="line"/>
			<point x="1102" y="656" type="line"/>
			<point x="1102" y="0" type="line"/>
			<point x="1102" y="0"/>
			<point x="1102" y="0"/>
			<point x="1102" y="0" type="curve"/>
			<point x="1304" y="0" type="line"/>
			<point x="1304" y="0"/>
			<point x="1304" y="0"/>
			<point x="1304" y="0" type="curve"/>
			<point x="1304" y="1388" type="line"/>
			<point x="1304" y="1388"/>
			<point x="1304" y="1388"/>
			<point x="1304" y="1388" type="curve"/>
			<point x="1102" y="1388" type="line"/>
			<point x="1102" y="1388"/>
			<point x="1102" y="1388"/>
			<point x="1102" y="1388" type="curve"/>
			<point x="1102" y="788" type="line"/>
			<point x="396" y="788" type="line"/>
			<point x="396" y="1388" type="line"/>
			<point x="396" y="1388"/>
			<point x="396" y="1388"/>
			<point x="396" y="1388" type="curve"/>
			<point x="194" y="1388" type="line"/>
			<point x="194" y="1388"/>
			<point x="194" y="1388"/>
			<point x="194" y="1388" type="curve"/>
			<point x="194" y="0" type="line"/>
			<point x="194" y="0"/>
			<point x="194" y="0"/>
			<point x="194" y="0" type="curve"/>
			<point x="396" y="0" type="line"/>
			<point x="396" y="0"/>
			<point x="396" y="0"/>
			<point x="396" y="0" type="curve"/>
		</contour>
	</outline>
</glyph>
<glyph name="I" format="2">
	<unicode hex="0049"/>
	<advance width="590"/>
	<outline>
		<contour>
			<point x="194" y="1388" type="line"/>
			<point x="194" y="1388"/>
			<point x="194" y="1388"/>
			<point x="194" y="1388" type="curve"/>
			<point x="194" y="0" type="line"/>
			<point x="194" y="0"/>
			<point x="194" y="0"/>
			<point x="194" y="0" type="curve"/>
			<point x="396" y="0" type="line"/>
			<point x="396" y="0"/>
			<point x="396" y="0"/>
			<point x="396" y="0" type="curve"/>
			<point x="396" y="1388" type="line"/>
			<point x="396" y="1388"/>
			<point x="396" y="1388"/>
			<point x="396" y="1388" type="curve"/>
		</contour>
	</outline>
</glyph>
<glyph name="J" format="2">
	<unicode hex="004A"/>
	<advance width="1002"/>
	<outline>
		<contour>
			<point x="452" y="-42" type="curve" smooth="yes"/>
			<point x="664" y="-42"/>
			<point x="826" y="66"/>
			<point x="826" y="298" type="curve" smooth="yes"/>
			<point x="826" y="1388" type="line"/>
			<point x="826" y="1388"/>
			<point x="826" y="1388"/>
			<point x="826" y="1388" type="curve"/>
			<point x="630" y="1388" type="line"/>
			<point x="630" y="1388"/>
			<point x="630" y="1388"/>
			<point x="630" y="1388" type="curve"/>
			<point x="630" y="306" type="line" smooth="yes"/>
			<point x="630" y="264"/>
			<point x="630" y="92"/>
			<point x="386" y="92" type="curve" smooth="yes"/>
			<point x="244" y="92"/>
			<point x="158" y="164"/>
			<point x="118" y="206" type="curve"/>
			<point x="118" y="206"/>
			<point x="118" y="206"/>
			<point x="118" y="206" type="curve"/>
			<point x="118" y="206"/>
			<point x="118" y="206"/>
			<point x="118" y="206" type="curve"/>
			<point x="108" y="151"/>
			<point x="98" y="97"/>
			<point x="88" y="42" type="curve"/>
			<point x="88" y="42"/>
			<point x="88" y="42"/>
			<point x="88" y="42" type="curve"/>
			<point x="196" y="-10"/>
			<point x="328" y="-42"/>
		</contour>
	</outline>
</glyph>
<glyph name="K" format="2">
	<unicode hex="004B"/>
	<advance width="1474"/>
	<outline>
		<contour>
			<point x="788" y="840" type="line"/>
			<point x="1356" y="1388" type="line"/>
			<point x="1356" y="1388"/>
			<point x="1356" y="1388"/>
			<point x="1356" y="1388" type="curve"/>
			<point x="1356" y="1388"/>
			<point x="1356" y="1388"/>
			<point x="1356" y="1388" type="curve"/>
			<point x="1152" y="1388" type="line"/>
			<point x="1152" y="1388"/>
			<point x="1152" y="1388"/>
			<point x="1152" y="1388" type="curve"/>
			<point x="388" y="652" type="line"/>
			<point x="388" y="1388" type="line"/>
			<point x="388" y="1388"/>
			<point x="388" y="1388"/>
			<point x="388" y="1388" type="curve"/>
			<point x="200" y="1388" type="line"/>
			<point x="200" y="1388"/>
			<point x="200" y="1388"/>
			<point x="200" y="1388" type="curve"/>
			<point x="200" y="0" type="line"/>
			<point x="200" y="0"/>
			<point x="200" y="0"/>
			<point x="200" y="0" type="curve"/>
			<point x="388" y="0" type="line"/>
			<point x="388" y="0"/>
			<point x="388" y="0"/>
			<point x="388" y="0" type="curve"/>
			<point x="388" y="456" type="line"/>
			<point x="666" y="722" type="line"/>
			<point x="1180" y="0" type="line"/>
			<point x="1180" y="0"/>
			<point x="1180" y="0"/>
			<point x="1180" y="0" type="curve"/>
			<point x="1386" y="0" type="line"/>
			<point x="1386" y="0"/>
			<point x="1386" y="0"/>
			<point x="1386" y="0" type="curve"/>
		</contour>
	</outline>
</glyph>
<glyph name="L" format="2">
	<unicode hex="004C"/>
	<advance width="1156"/>
	<outline>
		<contour>
			<point x="396" y="142" type="line"/>
			<point x="396" y="1388" type="line"/>
			<point x="396" y="1388"/>
			<point x="396" y="1388"/>
			<point x="396" y="1388" type="curve"/>
			<point x="194" y="1388" type="line"/>
			<point x="194" y="1388"/>
			<point x="194" y="1388"/>
			<point x="194" y="1388" type="curve"/>
			<point x="194" y="0" type="line"/>
			<point x="194" y="0"/>
			<point x="194" y="0"/>
			<point x="194" y="0" type="curve"/>
			<point x="1066" y="0" type="line"/>
			<point x="1066" y="0"/>
			<point x="1066" y="0"/>
			<point x="1066" y="0" type="curve"/>
			<point x="1066" y="142" type="line"/>
			<point x="1066" y="142"/>
			<point x="1066" y="142"/>
			<point x="1066" y="142" type="curve"/>
		</contour>
	</outline>
</glyph>
<glyph name="M" format="2">
	<unicode hex="004D"/>
	<advance width="1854"/>
	<outline>
		<contour>
			<point x="510" y="872" type="curve" smooth="yes"/>
			<point x="844" y="42" type="line"/>
			<point x="844" y="42"/>
			<point x="844" y="42"/>
			<point x="844" y="42" type="curve"/>
			<point x="1002" y="42" type="line"/>
			<point x="1002" y="42"/>
			<point x="1002" y="42"/>
			<point x="1002" y="42" type="curve"/>
			<point x="1300" y="778" type="line"/>
			<point x="1300" y="780"/>
			<point x="1438" y="1120"/>
			<point x="1472" y="1230" type="curve"/>
			<point x="1474" y="1230" type="line"/>
			<point x="1474" y="0" type="line"/>
			<point x="1474" y="0"/>
			<point x="1474" y="0"/>
			<point x="1474" y="0" type="curve"/>
			<point x="1642" y="0" type="line"/>
			<point x="1642" y="0"/>
			<point x="1642" y="0"/>
			<point x="1642" y="0" type="curve"/>
			<point x="1642" y="1388" type="line"/>
			<point x="1642" y="1388"/>
			<point x="1642" y="1388"/>
			<point x="1642" y="1388" type="curve"/>
			<point x="1396" y="1388" type="line"/>
			<point x="1396" y="1388"/>
			<point x="1396" y="1388"/>
			<point x="1396" y="1388" type="curve"/>
			<point x="1114" y="694" type="line" smooth="yes"/>
			<point x="1090" y="634"/>
			<point x="946" y="282"/>
			<point x="926" y="198" type="curve"/>
			<point x="924" y="198" type="line"/>
			<point x="910" y="256"/>
			<point x="818" y="486"/>
			<point x="798" y="538" type="curve" smooth="yes"/>
			<point x="454" y="1388" type="line"/>
			<point x="454" y="1388"/>
			<point x="454" y="1388"/>
			<point x="454" y="1388" type="curve"/>
			<point x="210" y="1388" type="line"/>
			<point x="210" y="1388"/>
			<point x="210" y="1388"/>
			<point x="210" y="1388" type="curve"/>
			<point x="210" y="0" type="line"/>
			<point x="210" y="0"/>
			<point x="210" y="0"/>
			<point x="210" y="0" type="curve"/>
			<point x="378" y="0" type="line"/>
			<point x="378" y="0"/>
			<point x="378" y="0"/>
			<point x="378" y="0" type="curve"/>
			<point x="378" y="1228" type="line"/>
			<point x="380" y="1228" type="line"/>
			<point x="396" y="1158"/>
			<point x="500" y="894"/>
		</contour>
	</outline>
</glyph>
<glyph name="N" format="2">
  <advance width="750"/>
  <unicode hex="004E"/>
  <outline>
    <contour>
      <point x="100" y="0" type="line"/>
      <point x="184" y="0" type="line"/>
      <point x="184" y="615" type="line"/>
      <point x="185" y="615" type="line"/>
      <point x="207" y="573"/>
      <point x="230" y="531"/>
      <point x="252" y="489" type="curve" smooth="yes"/>
      <point x="513" y="0" type="line"/>
      <point x="649" y="0" type="line"/>
      <point x="649" y="694" type="line"/>
      <point x="565" y="694" type="line"/>
      <point x="565" y="79" type="line"/>
      <point x="564" y="79" type="line"/>
      <point x="544" y="117"/>
      <point x="523" y="155"/>
      <point x="503" y="193" type="curve" smooth="yes"/>
      <point x="236" y="694" type="line"/>
      <point x="100" y="694" type="line"/>
    </contour>
  </outline>
</glyph>
<glyph name="O" format="2">
	<unicode hex="004F"/>
	<advance width="1568"/>
	<outline>
		<contour>
			<point x="1450" y="688" type="curve" smooth="yes"/>
			<point x="1450" y="1102"/>
			<point x="1146" y="1430"/>
			<point x="784" y="1430" type="curve" smooth="yes"/>
			<point x="422" y="1430"/>
			<point x="118" y="1102"/>
			<point x="118" y="688" type="curve" smooth="yes"/>
			<point x="118" y="274"/>
			<point x="426" y="-42"/>
			<point x="784" y="-42" type="curve" smooth="yes"/>
			<point x="1144" y="-42"/>
			<point x="1450" y="276"/>
		</contour>
		<contour>
			<point x="784" y="100" type="curve" smooth="yes"/>
			<point x="542" y="100"/>
			<point x="320" y="342"/>
			<point x="320" y="720" type="curve" smooth="yes"/>
			<point x="320" y="1074"/>
			<point x="544" y="1292"/>
			<point x="784" y="1292" type="curve" smooth="yes"/>
			<point x="1024" y="1292"/>
			<point x="1248" y="1074"/>
			<point x="1248" y="720" type="curve" smooth="yes"/>
			<point x="1248" y="340"/>
			<point x="1026" y="100"/>
		</contour>
	</outline>
</glyph>
<glyph name="P" format="2">
	<unicode hex="0050"/>
	<advance width="678"/>
	<outline>
		<contour>
			<point x="199" y="285" type="line"/>
			<point x="375" y="285" type="line" smooth="yes"/>
			<point x="504" y="285"/>
			<point x="619" y="376"/>
			<point x="619" y="491" type="curve" smooth="yes"/>
			<point x="619" y="598"/>
			<point x="513" y="694"/>
			<point x="368" y="694" type="curve" smooth="yes"/>
			<point x="98" y="694" type="line"/>
			<point x="98" y="694"/>
			<point x="98" y="694"/>
			<point x="98" y="694" type="curve"/>
			<point x="98" y="0" type="line"/>
			<point x="98" y="0"/>
			<point x="98" y="0"/>
			<point x="98" y="0" type="curve"/>
			<point x="199" y="0" type="line"/>
			<point x="199" y="0"/>
			<point x="199" y="0"/>
			<point x="199" y="0" type="curve"/>
		</contour>
		<contour>
			<point x="343" y="635" type="line" smooth="yes"/>
			<point x="456" y="635"/>
			<point x="528" y="575"/>
			<point x="528" y="491" type="curve" smooth="yes"/>
			<point x="528" y="409"/>
			<point x="460" y="347"/>
			<point x="343" y="347" type="curve" smooth="yes"/>
			<point x="196" y="347" type="line"/>
			<point x="196" y="635" type="line"/>
		</contour>
	</outline>
</glyph>
<glyph name="Q" format="2">
	<unicode hex="0051"/>
	<advance width="1568"/>
	<outline>
		<contour>
			<point x="118" y="688" type="curve" smooth="yes"/>
			<point x="118" y="274"/>
			<point x="426" y="-42"/>
			<point x="784" y="-42" type="curve" smooth="yes"/>
			<point x="874" y="-42"/>
			<point x="956" y="-18"/>
			<point x="976" y="-12" type="curve"/>
			<point x="1035" y="-93"/>
			<point x="1095" y="-175"/>
			<point x="1154" y="-256" type="curve"/>
			<point x="1154" y="-256"/>
			<point x="1154" y="-256"/>
			<point x="1154" y="-256" type="curve"/>
			<point x="1390" y="-256" type="line"/>
			<point x="1390" y="-256"/>
			<point x="1390" y="-256"/>
			<point x="1390" y="-256" type="curve"/>
			<point x="1390" y="-256"/>
			<point x="1390" y="-256"/>
			<point x="1390" y="-256" type="curve"/>
			<point x="1136" y="66" type="line"/>
			<point x="1332" y="206"/>
			<point x="1450" y="430"/>
			<point x="1450" y="688" type="curve" smooth="yes"/>
			<point x="1450" y="1102"/>
			<point x="1146" y="1430"/>
			<point x="784" y="1430" type="curve" smooth="yes"/>
			<point x="422" y="1430"/>
			<point x="118" y="1102"/>
		</contour>
		<contour>
			<point x="314" y="688" type="curve" smooth="yes"/>
			<point x="314" y="1056"/>
			<point x="538" y="1292"/>
			<point x="784" y="1292" type="curve" smooth="yes"/>
			<point x="1030" y="1292"/>
			<point x="1254" y="1056"/>
			<point x="1254" y="688" type="curve" smooth="yes"/>
			<point x="1254" y="462"/>
			<point x="1168" y="290"/>
			<point x="1042" y="188" type="curve"/>
			<point x="882" y="388" type="line"/>
			<point x="882" y="388"/>
			<point x="882" y="388"/>
			<point x="882" y="388" type="curve"/>
			<point x="686" y="388" type="line"/>
			<point x="686" y="388"/>
			<point x="686" y="388"/>
			<point x="686" y="388" type="curve"/>
			<point x="753" y="295"/>
			<point x="821" y="203"/>
			<point x="888" y="110" type="curve"/>
			<point x="888" y="110"/>
			<point x="888" y="110"/>
			<point x="888" y="110" type="curve"/>
			<point x="854" y="100"/>
			<point x="810" y="96"/>
			<point x="784" y="96" type="curve" smooth="yes"/>
			<point x="540" y="96"/>
			<point x="314" y="324"/>
		</contour>
	</outline>
</glyph>
<glyph name="R" format="2">
	<unicode hex="0052"/>
	<advance width="1374"/>
	<outline>
		<contour>
			<point x="898" y="648" type="line"/>
			<point x="1184" y="732"/>
			<point x="1256" y="906"/>
			<point x="1256" y="1014" type="curve" smooth="yes"/>
			<point x="1256" y="1222"/>
			<point x="1012" y="1388"/>
			<point x="722" y="1388" type="curve" smooth="yes"/>
			<point x="196" y="1388" type="line"/>
			<point x="196" y="1388"/>
			<point x="196" y="1388"/>
			<point x="196" y="1388" type="curve"/>
			<point x="196" y="0" type="line"/>
			<point x="196" y="0"/>
			<point x="196" y="0"/>
			<point x="196" y="0" type="curve"/>
			<point x="392" y="0" type="line"/>
			<point x="392" y="0"/>
			<point x="392" y="0"/>
			<point x="392" y="0" type="curve"/>
			<point x="392" y="628" type="line"/>
			<point x="722" y="628" type="line"/>
			<point x="1112" y="0" type="line"/>
			<point x="1112" y="0"/>
			<point x="1112" y="0"/>
			<point x="1112" y="0" type="curve"/>
			<point x="1314" y="0" type="line"/>
			<point x="1314" y="0"/>
			<point x="1314" y="0"/>
			<point x="1314" y="0" type="curve"/>
		</contour>
		<contour>
			<point x="392" y="760" type="line"/>
			<point x="392" y="1270" type="line"/>
			<point x="696" y="1270" type="line" smooth="yes"/>
			<point x="926" y="1270"/>
			<point x="1074" y="1162"/>
			<point x="1074" y="1014" type="curve" smooth="yes"/>
			<point x="1074" y="874"/>
			<point x="936" y="760"/>
			<point x="696" y="760" type="curve" smooth="yes"/>
		</contour>
	</outline>
</glyph>
<glyph name="S" format="2">
	<unicode hex="0053"/>
	<advance width="1180"/>
	<outline>
		<contour>
			<point x="888" y="360" type="curve" smooth="yes"/>
			<point x="888" y="236"/>
			<point x="776" y="108"/>
			<point x="582" y="108" type="curve" smooth="yes"/>
			<point x="468" y="108"/>
			<point x="284" y="142"/>
			<point x="126" y="276" type="curve"/>
			<point x="126" y="276"/>
			<point x="126" y="276"/>
			<point x="126" y="276" type="curve"/>
			<point x="126" y="276"/>
			<point x="126" y="276"/>
			<point x="126" y="276" type="curve"/>
			<point x="94" y="96" type="line"/>
			<point x="94" y="96"/>
			<point x="94" y="96"/>
			<point x="94" y="96" type="curve"/>
			<point x="194" y="38"/>
			<point x="360" y="-42"/>
			<point x="584" y="-42" type="curve" smooth="yes"/>
			<point x="862" y="-42"/>
			<point x="1060" y="160"/>
			<point x="1060" y="384" type="curve" smooth="yes"/>
			<point x="1060" y="546"/>
			<point x="966" y="638"/>
			<point x="926" y="680" type="curve" smooth="yes"/>
			<point x="842" y="762"/>
			<point x="750" y="784"/>
			<point x="596" y="820" type="curve" smooth="yes"/>
			<point x="474" y="848"/>
			<point x="410" y="864"/>
			<point x="362" y="910" type="curve" smooth="yes"/>
			<point x="336" y="936"/>
			<point x="290" y="982"/>
			<point x="290" y="1058" type="curve" smooth="yes"/>
			<point x="290" y="1170"/>
			<point x="402" y="1286"/>
			<point x="596" y="1286" type="curve" smooth="yes"/>
			<point x="748" y="1286"/>
			<point x="854" y="1238"/>
			<point x="956" y="1152" type="curve"/>
			<point x="956" y="1152"/>
			<point x="956" y="1152"/>
			<point x="956" y="1152" type="curve"/>
			<point x="956" y="1152"/>
			<point x="956" y="1152"/>
			<point x="956" y="1152" type="curve"/>
			<point x="988" y="1332" type="line"/>
			<point x="988" y="1332"/>
			<point x="988" y="1332"/>
			<point x="988" y="1332" type="curve"/>
			<point x="860" y="1398"/>
			<point x="746" y="1430"/>
			<point x="598" y="1430" type="curve" smooth="yes"/>
			<point x="296" y="1430"/>
			<point x="118" y="1226"/>
			<point x="118" y="1034" type="curve" smooth="yes"/>
			<point x="118" y="952"/>
			<point x="144" y="856"/>
			<point x="242" y="764" type="curve" smooth="yes"/>
			<point x="330" y="682"/>
			<point x="422" y="662"/>
			<point x="546" y="632" type="curve" smooth="yes"/>
			<point x="714" y="592"/>
			<point x="760" y="582"/>
			<point x="818" y="522" type="curve" smooth="yes"/>
			<point x="856" y="484"/>
			<point x="888" y="428"/>
		</contour>
	</outline>
</glyph>
<glyph name="T" format="2">
  <advance width="725"/>
  <unicode hex="0054"/>
  <outline>
    <contour>
      <point x="312" y="0" type="line"/>
      <point x="413" y="0" type="line"/>
      <point x="413" y="617" type="line"/>
      <point x="687" y="617" type="line"/>
      <point x="687" y="687" type="line"/>
      <point x="38" y="687" type="line"/>
      <point x="38" y="617" type="line"/>
      <point x="312" y="617" type="line"/>
    </contour>
  </outline>
</glyph>
<glyph name="U" format="2">
	<unicode hex="0055"/>
	<advance width="1458"/>
	<outline>
		<contour>
			<point x="734" y="-42" type="curve" smooth="yes"/>
			<point x="1020" y="-42"/>
			<point x="1262" y="176"/>
			<point x="1262" y="468" type="curve" smooth="yes"/>
			<point x="1262" y="1388" type="line"/>
			<point x="1262" y="1388"/>
			<point x="1262" y="1388"/>
			<point x="1262" y="1388" type="curve"/>
			<point x="1088" y="1388" type="line"/>
			<point x="1088" y="1388"/>
			<point x="1088" y="1388"/>
			<point x="1088" y="1388" type="curve"/>
			<point x="1088" y="466" type="line" smooth="yes"/>
			<point x="1088" y="198"/>
			<point x="908" y="76"/>
			<point x="736" y="76" type="curve" smooth="yes"/>
			<point x="564" y="76"/>
			<point x="396" y="200"/>
			<point x="396" y="464" type="curve" smooth="yes"/>
			<point x="396" y="1388" type="line"/>
			<point x="396" y="1388"/>
			<point x="396" y="1388"/>
			<point x="396" y="1388" type="curve"/>
			<point x="194" y="1388" type="line"/>
			<point x="194" y="1388"/>
			<point x="194" y="1388"/>
			<point x="194" y="1388" type="curve"/>
			<point x="194" y="468" type="line" smooth="yes"/>
			<point x="194" y="174"/>
			<point x="446" y="-42"/>
		</contour>
	</outline>
</glyph>
<glyph name="V" format="2">
	<unicode hex="0056"/>
	<advance width="1416"/>
	<outline>
		<contour>
			<point x="498" y="764" type="curve" smooth="yes"/>
			<point x="242" y="1388" type="line"/>
			<point x="242" y="1388"/>
			<point x="242" y="1388"/>
			<point x="242" y="1388" type="curve"/>
			<point x="30" y="1388" type="line"/>
			<point x="30" y="1388"/>
			<point x="30" y="1388"/>
			<point x="30" y="1388" type="curve"/>
			<point x="30" y="1388"/>
			<point x="30" y="1388"/>
			<point x="30" y="1388" type="curve"/>
			<point x="606" y="0" type="line"/>
			<point x="606" y="0"/>
			<point x="606" y="0"/>
			<point x="606" y="0" type="curve"/>
			<point x="808" y="0" type="line"/>
			<point x="808" y="0"/>
			<point x="808" y="0"/>
			<point x="808" y="0" type="curve"/>
			<point x="1384" y="1388" type="line"/>
			<point x="1384" y="1388"/>
			<point x="1384" y="1388"/>
			<point x="1384" y="1388" type="curve"/>
			<point x="1384" y="1388"/>
			<point x="1384" y="1388"/>
			<point x="1384" y="1388" type="curve"/>
			<point x="1210" y="1388" type="line"/>
			<point x="1210" y="1388"/>
			<point x="1210" y="1388"/>
			<point x="1210" y="1388" type="curve"/>
			<point x="1126" y="1184"/>
			<point x="1042" y="979"/>
			<point x="958" y="774" type="curve" smooth="yes"/>
			<point x="944" y="740"/>
			<point x="746" y="258"/>
			<point x="728" y="158" type="curve"/>
			<point x="726" y="158" type="line"/>
			<point x="706" y="260"/>
			<point x="506" y="744"/>
		</contour>
	</outline>
</glyph>
<glyph name="W" format="2">
	<unicode hex="0057"/>
	<advance width="2006"/>
	<outline>
		<contour>
			<point x="938" y="1004" type="line" smooth="yes"/>
			<point x="970" y="1110"/>
			<point x="986" y="1174"/>
			<point x="994" y="1228" type="curve"/>
			<point x="996" y="1228" type="line"/>
			<point x="1008" y="1134"/>
			<point x="1058" y="970"/>
			<point x="1094" y="852" type="curve" smooth="yes"/>
			<point x="1356" y="0" type="line"/>
			<point x="1356" y="0"/>
			<point x="1356" y="0"/>
			<point x="1356" y="0" type="curve"/>
			<point x="1540" y="0" type="line"/>
			<point x="1540" y="0"/>
			<point x="1540" y="0"/>
			<point x="1540" y="0" type="curve"/>
			<point x="1974" y="1388" type="line"/>
			<point x="1974" y="1388"/>
			<point x="1974" y="1388"/>
			<point x="1974" y="1388" type="curve"/>
			<point x="1974" y="1388"/>
			<point x="1974" y="1388"/>
			<point x="1974" y="1388" type="curve"/>
			<point x="1818" y="1388" type="line"/>
			<point x="1818" y="1388"/>
			<point x="1818" y="1388"/>
			<point x="1818" y="1388" type="curve"/>
			<point x="1624" y="758" type="line" smooth="yes"/>
			<point x="1612" y="716"/>
			<point x="1472" y="268"/>
			<point x="1458" y="160" type="curve"/>
			<point x="1456" y="160" type="line"/>
			<point x="1444" y="262"/>
			<point x="1300" y="732"/>
			<point x="1296" y="744" type="curve" smooth="yes"/>
			<point x="1096" y="1388" type="line"/>
			<point x="1096" y="1388"/>
			<point x="1096" y="1388"/>
			<point x="1096" y="1388" type="curve"/>
			<point x="928" y="1388" type="line"/>
			<point x="928" y="1388"/>
			<point x="928" y="1388"/>
			<point x="928" y="1388" type="curve"/>
			<point x="742" y="788" type="line" smooth="yes"/>
			<point x="720" y="720"/>
			<point x="588" y="290"/>
			<point x="574" y="162" type="curve"/>
			<point x="572" y="162" type="line"/>
			<point x="560" y="284"/>
			<point x="412" y="762"/>
			<point x="406" y="784" type="curve" smooth="yes"/>
			<point x="220" y="1388" type="line"/>
			<point x="220" y="1388"/>
			<point x="220" y="1388"/>
			<point x="220" y="1388" type="curve"/>
			<point x="30" y="1388" type="line"/>
			<point x="30" y="1388"/>
			<point x="30" y="1388"/>
			<point x="30" y="1388" type="curve"/>
			<point x="30" y="1388"/>
			<point x="30" y="1388"/>
			<point x="30" y="1388" type="curve"/>
			<point x="464" y="0" type="line"/>
			<point x="464" y="0"/>
			<point x="464" y="0"/>
			<point x="464" y="0" type="curve"/>
			<point x="634" y="0" type="line"/>
			<point x="634" y="0"/>
			<point x="634" y="0"/>
			<point x="634" y="0" type="curve"/>
		</contour>
	</outline>
</glyph>
<glyph name="X" format="2">
	<unicode hex="0058"/>
	<advance width="1416"/>
	<outline>
		<contour>
			<point x="790" y="732" type="line"/>
			<point x="1296" y="1388" type="line"/>
			<point x="1296" y="1388"/>
			<point x="1296" y="1388"/>
			<point x="1296" y="1388" type="curve"/>
			<point x="1296" y="1388"/>
			<point x="1296" y="1388"/>
			<point x="1296" y="1388" type="curve"/>
			<point x="1078" y="1388" type="line"/>
			<point x="1078" y="1388"/>
			<point x="1078" y="1388"/>
			<point x="1078" y="1388" type="curve"/>
			<point x="692" y="876" type="line"/>
			<point x="298" y="1388" type="line"/>
			<point x="298" y="1388"/>
			<point x="298" y="1388"/>
			<point x="298" y="1388" type="curve"/>
			<point x="60" y="1388" type="line"/>
			<point x="60" y="1388"/>
			<point x="60" y="1388"/>
			<point x="60" y="1388" type="curve"/>
			<point x="60" y="1388"/>
			<point x="60" y="1388"/>
			<point x="60" y="1388" type="curve"/>
			<point x="594" y="732" type="line"/>
			<point x="30" y="0" type="line"/>
			<point x="30" y="0"/>
			<point x="30" y="0"/>
			<point x="30" y="0" type="curve"/>
			<point x="30" y="0"/>
			<point x="30" y="0"/>
			<point x="30" y="0" type="curve"/>
			<point x="248" y="0" type="line"/>
			<point x="248" y="0"/>
			<point x="248" y="0"/>
			<point x="248" y="0" type="curve"/>
			<point x="692" y="602" type="line"/>
			<point x="1146" y="0" type="line"/>
			<point x="1146" y="0"/>
			<point x="1146" y="0"/>
			<point x="1146" y="0" type="curve"/>
			<point x="1384" y="0" type="line"/>
			<point x="1384" y="0"/>
			<point x="1384" y="0"/>
			<point x="1384" y="0" type="curve"/>
			<point x="1384" y="0"/>
			<point x="1384" y="0"/>
			<point x="1384" y="0" type="curve"/>
		</contour>
	</outline>
</glyph>
<glyph name="Y" format="2">
	<unicode hex="0059"/>
	<advance width="1416"/>
	<outline>
		<contour>
			<point x="610" y="556" type="line"/>
			<point x="610" y="0" type="line"/>
			<point x="610" y="0"/>
			<point x="610" y="0"/>
			<point x="610" y="0" type="curve"/>
			<point x="806" y="0" type="line"/>
			<point x="806" y="0"/>
			<point x="806" y="0"/>
			<point x="806" y="0" type="curve"/>
			<point x="806" y="556" type="line"/>
			<point x="1408" y="1388" type="line"/>
			<point x="1408" y="1388"/>
			<point x="1408" y="1388"/>
			<point x="1408" y="1388" type="curve"/>
			<point x="1408" y="1388"/>
			<point x="1408" y="1388"/>
			<point x="1408" y="1388" type="curve"/>
			<point x="1208" y="1388" type="line"/>
			<point x="1208" y="1388"/>
			<point x="1208" y="1388"/>
			<point x="1208" y="1388" type="curve"/>
			<point x="882" y="930" type="line" smooth="yes"/>
			<point x="832" y="858"/>
			<point x="780" y="788"/>
			<point x="730" y="716" type="curve"/>
			<point x="678" y="788"/>
			<point x="628" y="858"/>
			<point x="576" y="930" type="curve" smooth="yes"/>
			<point x="248" y="1388" type="line"/>
			<point x="248" y="1388"/>
			<point x="248" y="1388"/>
			<point x="248" y="1388" type="curve"/>
			<point x="6" y="1388" type="line"/>
			<point x="6" y="1388"/>
			<point x="6" y="1388"/>
			<point x="6" y="1388" type="curve"/>
			<point x="6" y="1388"/>
			<point x="6" y="1388"/>
			<point x="6" y="1388" type="curve"/>
		</contour>
	</outline>
</glyph>
<glyph name="Z" format="2">
	<unicode hex="005A"/>
	<advance width="1298"/>
	<outline>
		<contour>
			<point x="920" y="1256" type="curve"/>
			<point x="118" y="92" type="line"/>
			<point x="118" y="92"/>
			<point x="118" y="92"/>
			<point x="118" y="92" type="curve"/>
			<point x="118" y="0" type="line"/>
			<point x="118" y="0"/>
			<point x="118" y="0"/>
			<point x="118" y="0" type="curve"/>
			<point x="1190" y="0" type="line"/>
			<point x="1190" y="0"/>
			<point x="1190" y="0"/>
			<point x="1190" y="0" type="curve"/>
			<point x="1190" y="142" type="line"/>
			<point x="1190" y="142"/>
			<point x="1190" y="142"/>
			<point x="1190" y="142" type="curve"/>
			<point x="990" y="142" type="line" smooth="yes"/>
			<point x="786" y="142"/>
			<point x="582" y="138"/>
			<point x="378" y="138" type="curve"/>
			<point x="1178" y="1300" type="line"/>
			<point x="1178" y="1300"/>
			<point x="1178" y="1300"/>
			<point x="1178" y="1300" type="curve"/>
			<point x="1178" y="1388" type="line"/>
			<point x="1178" y="1388"/>
			<point x="1178" y="1388"/>
			<point x="1178" y="1388" type="curve"/>
			<point x="148" y="1388" type="line"/>
			<point x="148" y="1388"/>
			<point x="148" y="1388"/>
			<point x="148" y="1388" type="curve"/>
			<point x="148" y="1254" type="line"/>
			<point x="148" y="1254"/>
			<point x="148" y="1254"/>
			<point x="148" y="1254" type="curve"/>
			<point x="287" y="1254"/>
			<point x="426" y="1254"/>
			<point x="566" y="1254" type="curve" smooth="yes"/>
			<point x="594" y="1254"/>
			<point x="618" y="1254"/>
		</contour>
	</outline>
</glyph>
<glyph name="bracketleft" format="2">
	<unicode hex="005B"/>
	<advance width="309"/>
	<outline>
		<contour>
			<point x="187" y="-184" type="line"/>
			<point x="187" y="684" type="line"/>
			<point x="285" y="684" type="line"/>
			<point x="285" y="684"/>
			<point x="285" y="684"/>
			<point x="285" y="684" type="curve"/>
			<point x="285" y="750" type="line"/>
			<point x="285" y="750"/>
			<point x="285" y="750"/>
			<point x="285" y="750" type="curve"/>
			<point x="107" y="750" type="line"/>
			<point x="107" y="750"/>
			<point x="107" y="750"/>
			<point x="107" y="750" type="curve"/>
			<point x="107" y="-250" type="line"/>
			<point x="107" y="-250"/>
			<point x="107" y="-250"/>
			<point x="107" y="-250" type="curve"/>
			<point x="285" y="-250" type="line"/>
			<point x="285" y="-250"/>
			<point x="285" y="-250"/>
			<point x="285" y="-250" type="curve"/>
			<point x="285" y="-184" type="line"/>
			<point x="285" y="-184"/>
			<point x="285" y="-184"/>
			<point x="285" y="-184" type="curve"/>
		</contour>
	</outline>
</glyph>
<glyph name="bracketright" format="2">
	<unicode hex="005D"/>
	<advance width="309"/>
	<outline>
		<contour>
			<point x="121" y="684" type="line"/>
			<point x="121" y="-184" type="line"/>
			<point x="23" y="-184" type="line"/>
			<point x="23" y="-184"/>
			<point x="23" y="-184"/>
			<point x="23" y="-184" type="curve"/>
			<point x="23" y="-250" type="line"/>
			<point x="23" y="-250"/>
			<point x="23" y="-250"/>
			<point x="23" y="-250" type="curve"/>
			<point x="201" y="-250" type="line"/>
			<point x="201" y="-250"/>
			<point x="201" y="-250"/>
			<point x="201" y="-250" type="curve"/>
			<point x="201" y="750" type="line"/>
			<point x="201" y="750"/>
			<point x="201" y="750"/>
			<point x="201" y="750" type="curve"/>
			<point x="23" y="750" type="line"/>
			<point x="23" y="750"/>
			<point x="23" y="750"/>
			<point x="23" y="750" type="curve"/>
			<point x="23" y="684" type="line"/>
			<point x="23" y="684"/>
			<point x="23" y="684"/>
			<point x="23" y="684" type="curve"/>
		</contour>
	</outline>
</glyph>
<glyph name="grave" format="2">
	<unicode hex="0060"/>
	<advance width="1062"/>
	<outline>
		<contour>
			<point x="494" y="1054" type="line"/>
			<point x="494" y="1054"/>
			<point x="494" y="1054"/>
			<point x="494" y="1054" type="curve"/>
			<point x="626" y="1054" type="line"/>
			<point x="626" y="1054"/>
			<point x="626" y="1054"/>
			<point x="626" y="1054" type="curve"/>
			<point x="626" y="1054"/>
			<point x="626" y="1054"/>
			<point x="626" y="1054" type="curve"/>
			<point x="352" y="1388" type="line"/>
			<point x="352" y="1388"/>
			<point x="352" y="1388"/>
			<point x="352" y="1388" type="curve"/>
			<point x="178" y="1388" type="line"/>
			<point x="178" y="1388"/>
			<point x="178" y="1388"/>
			<point x="178" y="1388" type="curve"/>
			<point x="178" y="1388"/>
			<point x="178" y="1388"/>
			<point x="178" y="1388" type="curve"/>
		</contour>
	</outline>
</glyph>
<glyph name="a" format="2">
	<unicode hex="0061"/>
	<advance width="1020"/>
	<outline>
		<contour>
			<point x="852" y="576" type="line" smooth="yes"/>
			<point x="852" y="780"/>
			<point x="696" y="918"/>
			<point x="498" y="918" type="curve" smooth="yes"/>
			<point x="372" y="918"/>
			<point x="276" y="892"/>
			<point x="164" y="832" type="curve"/>
			<point x="164" y="832"/>
			<point x="164" y="832"/>
			<point x="164" y="832" type="curve"/>
			<point x="168" y="783"/>
			<point x="172" y="735"/>
			<point x="176" y="686" type="curve"/>
			<point x="176" y="686"/>
			<point x="176" y="686"/>
			<point x="176" y="686" type="curve"/>
			<point x="176" y="686"/>
			<point x="176" y="686"/>
			<point x="176" y="686" type="curve"/>
			<point x="242" y="730"/>
			<point x="340" y="790"/>
			<point x="498" y="790" type="curve" smooth="yes"/>
			<point x="586" y="790"/>
			<point x="678" y="724"/>
			<point x="678" y="574" type="curve" smooth="yes"/>
			<point x="678" y="494" type="line"/>
			<point x="382" y="484"/>
			<point x="90" y="422"/>
			<point x="90" y="236" type="curve" smooth="yes"/>
			<point x="90" y="136"/>
			<point x="158" y="-20"/>
			<point x="334" y="-20" type="curve" smooth="yes"/>
			<point x="420" y="-20"/>
			<point x="578" y="-2"/>
			<point x="684" y="76" type="curve"/>
			<point x="684" y="0" type="line"/>
			<point x="684" y="0"/>
			<point x="684" y="0"/>
			<point x="684" y="0" type="curve"/>
			<point x="852" y="0" type="line"/>
			<point x="852" y="0"/>
			<point x="852" y="0"/>
			<point x="852" y="0" type="curve"/>
		</contour>
		<contour>
			<point x="678" y="284" type="line" smooth="yes"/>
			<point x="678" y="244"/>
			<point x="678" y="192"/>
			<point x="608" y="150" type="curve" smooth="yes"/>
			<point x="544" y="114"/>
			<point x="466" y="112"/>
			<point x="444" y="112" type="curve" smooth="yes"/>
			<point x="334" y="112"/>
			<point x="250" y="162"/>
			<point x="250" y="238" type="curve" smooth="yes"/>
			<point x="250" y="366"/>
			<point x="588" y="378"/>
			<point x="678" y="382" type="curve"/>
		</contour>
	</outline>
</glyph>
<glyph name="b" format="2">
	<unicode hex="0062"/>
	<advance width="1096"/>
	<outline>
		<contour>
			<point x="1024" y="446" type="curve" smooth="yes"/>
			<point x="1024" y="688"/>
			<point x="886" y="908"/>
			<point x="686" y="908" type="curve" smooth="yes"/>
			<point x="560" y="908"/>
			<point x="438" y="868"/>
			<point x="338" y="794" type="curve"/>
			<point x="338" y="1388" type="line"/>
			<point x="338" y="1388"/>
			<point x="338" y="1388"/>
			<point x="338" y="1388" type="curve"/>
			<point x="170" y="1388" type="line"/>
			<point x="170" y="1388"/>
			<point x="170" y="1388"/>
			<point x="170" y="1388" type="curve"/>
			<point x="170" y="0" type="line"/>
			<point x="170" y="0"/>
			<point x="170" y="0"/>
			<point x="170" y="0" type="curve"/>
			<point x="344" y="0" type="line"/>
			<point x="344" y="0"/>
			<point x="344" y="0"/>
			<point x="344" y="0" type="curve"/>
			<point x="344" y="94" type="line"/>
			<point x="388" y="56"/>
			<point x="484" y="-20"/>
			<point x="630" y="-20" type="curve" smooth="yes"/>
			<point x="848" y="-20"/>
			<point x="1024" y="184"/>
		</contour>
		<contour>
			<point x="344" y="630" type="line" smooth="yes"/>
			<point x="344" y="662"/>
			<point x="344" y="686"/>
			<point x="414" y="732" type="curve" smooth="yes"/>
			<point x="444" y="750"/>
			<point x="498" y="776"/>
			<point x="566" y="776" type="curve" smooth="yes"/>
			<point x="700" y="776"/>
			<point x="850" y="686"/>
			<point x="850" y="446" type="curve" smooth="yes"/>
			<point x="850" y="202"/>
			<point x="684" y="112"/>
			<point x="544" y="112" type="curve" smooth="yes"/>
			<point x="503" y="112"/>
			<point x="464" y="122"/>
			<point x="427" y="147" type="curve" smooth="yes"/>
			<point x="397" y="166"/>
			<point x="369" y="196"/>
			<point x="344" y="236" type="curve"/>
		</contour>
	</outline>
</glyph>
<glyph name="c" format="2">
	<unicode hex="0063"/>
	<advance width="944"/>
	<outline>
		<contour>
			<point x="72" y="444" type="curve" smooth="yes"/>
			<point x="72" y="200"/>
			<point x="264" y="-20"/>
			<point x="536" y="-20" type="curve" smooth="yes"/>
			<point x="676" y="-20"/>
			<point x="796" y="22"/>
			<point x="882" y="72" type="curve"/>
			<point x="882" y="72"/>
			<point x="882" y="72"/>
			<point x="882" y="72" type="curve"/>
			<point x="878" y="121"/>
			<point x="874" y="169"/>
			<point x="870" y="218" type="curve"/>
			<point x="870" y="218"/>
			<point x="870" y="218"/>
			<point x="870" y="218" type="curve"/>
			<point x="870" y="218"/>
			<point x="870" y="218"/>
			<point x="870" y="218" type="curve"/>
			<point x="770" y="154"/>
			<point x="662" y="118"/>
			<point x="538" y="118" type="curve" smooth="yes"/>
			<point x="354" y="118"/>
			<point x="246" y="266"/>
			<point x="246" y="446" type="curve" smooth="yes"/>
			<point x="246" y="600"/>
			<point x="326" y="780"/>
			<point x="544" y="780" type="curve" smooth="yes"/>
			<point x="680" y="780"/>
			<point x="744" y="752"/>
			<point x="846" y="688" type="curve"/>
			<point x="846" y="688"/>
			<point x="846" y="688"/>
			<point x="846" y="688" type="curve"/>
			<point x="846" y="688"/>
			<point x="846" y="688"/>
			<point x="846" y="688" type="curve"/>
			<point x="855" y="736"/>
			<point x="863" y="784"/>
			<point x="872" y="832" type="curve"/>
			<point x="872" y="832"/>
			<point x="872" y="832"/>
			<point x="872" y="832" type="curve"/>
			<point x="752" y="892"/>
			<point x="700" y="918"/>
			<point x="544" y="918" type="curve" smooth="yes"/>
			<point x="244" y="918"/>
			<point x="72" y="676"/>
		</contour>
	</outline>
</glyph>
<glyph name="d" format="2">
	<unicode hex="0064"/>
	<advance width="1096"/>
	<outline>
		<contour>
			<point x="72" y="444" type="curve" smooth="yes"/>
			<point x="72" y="190"/>
			<point x="230" y="-20"/>
			<point x="436" y="-20" type="curve" smooth="yes"/>
			<point x="560" y="-20"/>
			<point x="676" y="36"/>
			<point x="752" y="104" type="curve"/>
			<point x="752" y="0" type="line"/>
			<point x="752" y="0"/>
			<point x="752" y="0"/>
			<point x="752" y="0" type="curve"/>
			<point x="926" y="0" type="line"/>
			<point x="926" y="0"/>
			<point x="926" y="0"/>
			<point x="926" y="0" type="curve"/>
			<point x="926" y="1388" type="line"/>
			<point x="926" y="1388"/>
			<point x="926" y="1388"/>
			<point x="926" y="1388" type="curve"/>
			<point x="758" y="1388" type="line"/>
			<point x="758" y="1388"/>
			<point x="758" y="1388"/>
			<point x="758" y="1388" type="curve"/>
			<point x="758" y="802" type="line"/>
			<point x="630" y="896"/>
			<point x="500" y="908"/>
			<point x="442" y="908" type="curve" smooth="yes"/>
			<point x="232" y="908"/>
			<point x="72" y="698"/>
		</contour>
		<contour>
			<point x="752" y="248" type="line"/>
			<point x="727" y="207"/>
			<point x="695" y="172"/>
			<point x="657" y="149" type="curve" smooth="yes"/>
			<point x="620" y="125"/>
			<point x="578" y="112"/>
			<point x="530" y="112" type="curve" smooth="yes"/>
			<point x="390" y="112"/>
			<point x="246" y="210"/>
			<point x="246" y="442" type="curve" smooth="yes"/>
			<point x="246" y="692"/>
			<point x="416" y="776"/>
			<point x="552" y="776" type="curve" smooth="yes"/>
			<point x="632" y="776"/>
			<point x="700" y="742"/>
			<point x="752" y="674" type="curve"/>
		</contour>
	</outline>
</glyph>
<glyph name="e" format="2">
	<unicode hex="0065"/>
	<advance width="944"/>
	<outline>
		<contour>
			<point x="70" y="450" type="curve" smooth="yes"/>
			<point x="70" y="194"/>
			<point x="270" y="-20"/>
			<point x="534" y="-20" type="curve" smooth="yes"/>
			<point x="650" y="-20"/>
			<point x="770" y="14"/>
			<point x="872" y="76" type="curve"/>
			<point x="872" y="76"/>
			<point x="872" y="76"/>
			<point x="872" y="76" type="curve"/>
			<point x="868" y="123"/>
			<point x="864" y="171"/>
			<point x="860" y="218" type="curve"/>
			<point x="860" y="218"/>
			<point x="860" y="218"/>
			<point x="860" y="218" type="curve"/>
			<point x="860" y="218"/>
			<point x="860" y="218"/>
			<point x="860" y="218" type="curve"/>
			<point x="748" y="138"/>
			<point x="622" y="112"/>
			<point x="536" y="112" type="curve" smooth="yes"/>
			<point x="362" y="112"/>
			<point x="230" y="254"/>
			<point x="224" y="438" type="curve"/>
			<point x="880" y="438" type="line"/>
			<point x="880" y="438"/>
			<point x="880" y="438"/>
			<point x="880" y="438" type="curve"/>
			<point x="880" y="530"/>
			<point x="870" y="664"/>
			<point x="792" y="778" type="curve" smooth="yes"/>
			<point x="720" y="880"/>
			<point x="600" y="918"/>
			<point x="502" y="918" type="curve" smooth="yes"/>
			<point x="258" y="918"/>
			<point x="70" y="704"/>
		</contour>
		<contour>
			<point x="238" y="558" type="line"/>
			<point x="284" y="718"/>
			<point x="402" y="786"/>
			<point x="502" y="786" type="curve" smooth="yes"/>
			<point x="590" y="786"/>
			<point x="720" y="744"/>
			<point x="758" y="558" type="curve"/>
		</contour>
	</outline>
</glyph>
<glyph name="f" format="2">
	<unicode hex="0066"/>
	<advance width="648"/>
	<outline>
		<contour>
			<point x="212" y="888" type="line"/>
			<point x="58" y="888" type="line"/>
			<point x="58" y="888"/>
			<point x="58" y="888"/>
			<point x="58" y="888" type="curve"/>
			<point x="58" y="762" type="line"/>
			<point x="58" y="762"/>
			<point x="58" y="762"/>
			<point x="58" y="762" type="curve"/>
			<point x="212" y="762" type="line"/>
			<point x="212" y="0" type="line"/>
			<point x="212" y="0"/>
			<point x="212" y="0"/>
			<point x="212" y="0" type="curve"/>
			<point x="380" y="0" type="line"/>
			<point x="380" y="0"/>
			<point x="380" y="0"/>
			<point x="380" y="0" type="curve"/>
			<point x="380" y="762" type="line"/>
			<point x="608" y="762" type="line"/>
			<point x="608" y="762"/>
			<point x="608" y="762"/>
			<point x="608" y="762" type="curve"/>
			<point x="608" y="888" type="line"/>
			<point x="608" y="888"/>
			<point x="608" y="888"/>
			<point x="608" y="888" type="curve"/>
			<point x="374" y="888" type="line"/>
			<point x="374" y="1118" type="line" smooth="yes"/>
			<point x="374" y="1256"/>
			<point x="500" y="1276"/>
			<point x="566" y="1276" type="curve" smooth="yes"/>
			<point x="608" y="1276"/>
			<point x="662" y="1270"/>
			<point x="736" y="1242" type="curve"/>
			<point x="736" y="1242"/>
			<point x="736" y="1242"/>
			<point x="736" y="1242" type="curve"/>
			<point x="736" y="1242"/>
			<point x="736" y="1242"/>
			<point x="736" y="1242" type="curve"/>
			<point x="736" y="1388" type="line"/>
			<point x="736" y="1388"/>
			<point x="736" y="1388"/>
			<point x="736" y="1388" type="curve"/>
			<point x="684" y="1400"/>
			<point x="622" y="1408"/>
			<point x="568" y="1408" type="curve" smooth="yes"/>
			<point x="362" y="1408"/>
			<point x="212" y="1260"/>
			<point x="212" y="1062" type="curve" smooth="yes"/>
		</contour>
	</outline>
</glyph>
<glyph name="g" format="2">
  <advance width="531"/>
  <unicode hex="0067"/>
  <outline>
    <contour>
      <point x="30" y="-69" type="curve" smooth="yes"/>
      <point x="30" y="-145"/>
      <point x="135" y="-205"/>
      <point x="265" y="-205" type="curve" smooth="yes"/>
      <point x="396" y="-205"/>
      <point x="500" y="-145"/>
      <point x="500" y="-69" type="curve" smooth="yes"/>
      <point x="500" y="72"/>
      <point x="325" y="72"/>
      <point x="282" y="72" type="curve" smooth="yes"/>
      <point x="189" y="72" type="line" smooth="yes"/>
      <point x="173" y="72"/>
      <point x="130" y="72"/>
      <point x="130" y="124" type="curve" smooth="yes"/>
      <point x="130" y="144"/>
      <point x="137" y="154"/>
      <point x="138" y="156" type="curve"/>
      <point x="173" y="134"/>
      <point x="208" y="127"/>
      <point x="235" y="127" type="curve" smooth="yes"/>
      <point x="333" y="127"/>
      <point x="406" y="204"/>
      <point x="406" y="290" type="curve" smooth="yes"/>
      <point x="406" y="335"/>
      <point x="387" y="369"/>
      <point x="373" y="387" type="curve"/>
      <point x="390" y="391"/>
      <point x="476" y="392"/>
      <point x="515" y="386" type="curve"/>
      <point x="515" y="386" type="line"/>
      <point x="515" y="386" type="line"/>
      <point x="503" y="454" type="line"/>
      <point x="503" y="454" type="line"/>
      <point x="476" y="454"/>
      <point x="402" y="451"/>
      <point x="336" y="423" type="curve"/>
      <point x="300" y="447"/>
      <point x="265" y="454"/>
      <point x="236" y="454" type="curve" smooth="yes"/>
      <point x="138" y="454"/>
      <point x="65" y="377"/>
      <point x="65" y="291" type="curve" smooth="yes"/>
      <point x="65" y="256"/>
      <point x="77" y="220"/>
      <point x="100" y="192" type="curve"/>
      <point x="86" y="175"/>
      <point x="71" y="147"/>
      <point x="71" y="109" type="curve" smooth="yes"/>
      <point x="71" y="70"/>
      <point x="87" y="45"/>
      <point x="96" y="33" type="curve"/>
      <point x="41" y="1"/>
      <point x="30" y="-45"/>
    </contour>
    <contour>
      <point x="236" y="189" type="curve" smooth="yes"/>
      <point x="182" y="189"/>
      <point x="142" y="223"/>
      <point x="142" y="290" type="curve" smooth="yes"/>
      <point x="142" y="368"/>
      <point x="192" y="392"/>
      <point x="235" y="392" type="curve" smooth="yes"/>
      <point x="289" y="392"/>
      <point x="329" y="358"/>
      <point x="329" y="291" type="curve" smooth="yes"/>
      <point x="329" y="213"/>
      <point x="279" y="189"/>
    </contour>
    <contour>
      <point x="283" y="-6" type="line" smooth="yes"/>
      <point x="306" y="-6"/>
      <point x="424" y="-6"/>
      <point x="424" y="-70" type="curve" smooth="yes"/>
      <point x="424" y="-113"/>
      <point x="349" y="-143"/>
      <point x="265" y="-143" type="curve" smooth="yes"/>
      <point x="181" y="-143"/>
      <point x="106" y="-113"/>
      <point x="106" y="-70" type="curve" smooth="yes"/>
      <point x="106" y="-65"/>
      <point x="106" y="-6"/>
      <point x="187" y="-6" type="curve" smooth="yes"/>
    </contour>
  </outline>
</glyph>
<glyph name="h" format="2">
  <advance width="548"/>
  <unicode hex="0068"/>
  <outline>
    <contour>
      <point x="465" y="296" type="line" smooth="yes"/>
      <point x="465" y="374"/>
      <point x="442" y="454"/>
      <point x="319" y="454" type="curve" smooth="yes"/>
      <point x="233" y="454"/>
      <point x="187" y="404"/>
      <point x="167" y="383" type="curve"/>
      <point x="167" y="383" type="line"/>
      <point x="167" y="694" type="line"/>
      <point x="167" y="694" type="line"/>
      <point x="83" y="694" type="line"/>
      <point x="83" y="694" type="line"/>
      <point x="83" y="0" type="line"/>
      <point x="83" y="0" type="line"/>
      <point x="170" y="0" type="line"/>
      <point x="170" y="0" type="line"/>
      <point x="170" y="243" type="line" smooth="yes"/>
      <point x="170" y="309"/>
      <point x="198" y="388"/>
      <point x="275" y="388" type="curve" smooth="yes"/>
      <point x="378" y="388"/>
      <point x="378" y="318"/>
      <point x="378" y="289" type="curve" smooth="yes"/>
      <point x="378" y="0" type="line"/>
      <point x="378" y="0" type="line"/>
      <point x="465" y="0" type="line"/>
      <point x="465" y="0" type="line"/>
    </contour>
  </outline>
</glyph>
<glyph name="i" format="2">
	<unicode hex="0069"/>
	<advance width="253"/>
	<outline>
		<contour>
			<point x="75" y="686" type="curve"/>
			<point x="75" y="585" type="line"/>
			<point x="75" y="585"/>
			<point x="75" y="585"/>
			<point x="75" y="585" type="curve"/>
			<point x="176" y="585" type="line"/>
			<point x="176" y="585"/>
			<point x="176" y="585"/>
			<point x="176" y="585" type="curve"/>
			<point x="176" y="686" type="line"/>
			<point x="176" y="686"/>
			<point x="176" y="686"/>
			<point x="176" y="686" type="curve"/>
			<point x="75" y="686" type="line"/>
			<point x="75" y="686"/>
			<point x="75" y="686"/>
		</contour>
		<contour>
			<point x="84" y="444" type="curve"/>
			<point x="84" y="0" type="line"/>
			<point x="84" y="0"/>
			<point x="84" y="0"/>
			<point x="84" y="0" type="curve"/>
			<point x="168" y="0" type="line"/>
			<point x="168" y="0"/>
			<point x="168" y="0"/>
			<point x="168" y="0" type="curve"/>
			<point x="168" y="444" type="line"/>
			<point x="168" y="444"/>
			<point x="168" y="444"/>
			<point x="168" y="444" type="curve"/>
			<point x="84" y="444" type="line"/>
			<point x="84" y="444"/>
			<point x="84" y="444"/>
		</contour>
	</outline>
</glyph>
<glyph name="j" format="2">
	<unicode hex="006A"/>
	<advance width="564"/>
	<outline>
		<contour>
			<point x="194" y="1372" type="curve"/>
			<point x="194" y="1170" type="line"/>
			<point x="194" y="1170"/>
			<point x="194" y="1170"/>
			<point x="194" y="1170" type="curve"/>
			<point x="396" y="1170" type="line"/>
			<point x="396" y="1170"/>
			<point x="396" y="1170"/>
			<point x="396" y="1170" type="curve"/>
			<point x="396" y="1372" type="line"/>
			<point x="396" y="1372"/>
			<point x="396" y="1372"/>
			<point x="396" y="1372" type="curve"/>
			<point x="194" y="1372" type="line"/>
			<point x="194" y="1372"/>
			<point x="194" y="1372"/>
		</contour>
		<contour>
			<point x="228" y="-148" type="line" smooth="yes"/>
			<point x="228" y="-208"/>
			<point x="180" y="-268"/>
			<point x="66" y="-268" type="curve" smooth="yes"/>
			<point x="-18" y="-268"/>
			<point x="-70" y="-230"/>
			<point x="-94" y="-208" type="curve"/>
			<point x="-94" y="-208"/>
			<point x="-94" y="-208"/>
			<point x="-94" y="-208" type="curve"/>
			<point x="-94" y="-208"/>
			<point x="-94" y="-208"/>
			<point x="-94" y="-208" type="curve"/>
			<point x="-128" y="-336" type="line"/>
			<point x="-129" y="-337"/>
			<point x="-129" y="-339"/>
			<point x="-130" y="-340" type="curve"/>
			<point x="-38" y="-390"/>
			<point x="52" y="-408"/>
			<point x="128" y="-408" type="curve" smooth="yes"/>
			<point x="266" y="-408"/>
			<point x="396" y="-302"/>
			<point x="396" y="-118" type="curve" smooth="yes"/>
			<point x="396" y="888" type="line"/>
			<point x="396" y="888"/>
			<point x="396" y="888"/>
			<point x="396" y="888" type="curve"/>
			<point x="228" y="888" type="line"/>
			<point x="228" y="888"/>
			<point x="228" y="888"/>
			<point x="228" y="888" type="curve"/>
		</contour>
	</outline>
</glyph>
<glyph name="k" format="2">
	<unicode hex="006B"/>
	<advance width="519"/>
	<outline>
		<contour>
			<point x="299" y="272" type="line"/>
			<point x="477" y="444" type="line"/>
			<point x="477" y="444"/>
			<point x="477" y="444"/>
			<point x="477" y="444" type="curve"/>
			<point x="477" y="444"/>
			<point x="477" y="444"/>
			<point x="477" y="444" type="curve"/>
			<point x="380" y="444" type="line"/>
			<point x="380" y="444"/>
			<point x="380" y="444"/>
			<point x="380" y="444" type="curve"/>
			<point x="166" y="237" type="line"/>
			<point x="166" y="694" type="line"/>
			<point x="166" y="694"/>
			<point x="166" y="694"/>
			<point x="166" y="694" type="curve"/>
			<point x="88" y="694" type="line"/>
			<point x="88" y="694"/>
			<point x="88" y="694"/>
			<point x="88" y="694" type="curve"/>
			<point x="88" y="-1" type="line"/>
			<point x="88" y="-0.667"/>
			<point x="88" y="-0.334"/>
			<point x="88" y="0" type="curve"/>
			<point x="162" y="0" type="line"/>
			<point x="162" y="0"/>
			<point x="162" y="0"/>
			<point x="162" y="0" type="curve"/>
			<point x="162" y="140" type="line"/>
			<point x="247" y="222" type="line"/>
			<point x="412" y="0" type="line"/>
			<point x="412" y="0"/>
			<point x="412" y="0"/>
			<point x="412" y="0" type="curve"/>
			<point x="500" y="0" type="line"/>
			<point x="500" y="0"/>
			<point x="500" y="0"/>
			<point x="500" y="0" type="curve"/>
			<point x="500" y="0"/>
			<point x="500" y="0"/>
			<point x="500" y="0" type="curve"/>
		</contour>
	</outline>
</glyph>
<glyph name="m" format="2">
	<unicode hex="006D"/>
	<advance width="1686"/>
	<outline>
		<contour>
			<point x="1520" y="592" type="line" smooth="yes"/>
			<point x="1520" y="748"/>
			<point x="1474" y="908"/>
			<point x="1228" y="908" type="curve" smooth="yes"/>
			<point x="1060" y="908"/>
			<point x="956" y="810"/>
			<point x="908" y="746" type="curve"/>
			<point x="888" y="800"/>
			<point x="838" y="908"/>
			<point x="638" y="908" type="curve" smooth="yes"/>
			<point x="524" y="908"/>
			<point x="414" y="862"/>
			<point x="326" y="756" type="curve"/>
			<point x="326" y="756" type="line"/>
			<point x="326" y="902" type="line"/>
			<point x="326" y="902"/>
			<point x="326" y="902"/>
			<point x="326" y="902" type="curve"/>
			<point x="166" y="902" type="line"/>
			<point x="166" y="902"/>
			<point x="166" y="902"/>
			<point x="166" y="902" type="curve"/>
			<point x="166" y="0" type="line"/>
			<point x="166" y="0"/>
			<point x="166" y="0"/>
			<point x="166" y="0" type="curve"/>
			<point x="340" y="0" type="line"/>
			<point x="340" y="0"/>
			<point x="340" y="0"/>
			<point x="340" y="0" type="curve"/>
			<point x="340" y="486" type="line" smooth="yes"/>
			<point x="340" y="618"/>
			<point x="396" y="776"/>
			<point x="550" y="776" type="curve" smooth="yes"/>
			<point x="756" y="776"/>
			<point x="756" y="636"/>
			<point x="756" y="578" type="curve" smooth="yes"/>
			<point x="756" y="0" type="line"/>
			<point x="756" y="0"/>
			<point x="756" y="0"/>
			<point x="756" y="0" type="curve"/>
			<point x="930" y="0" type="line"/>
			<point x="930" y="0"/>
			<point x="930" y="0"/>
			<point x="930" y="0" type="curve"/>
			<point x="930" y="486" type="line" smooth="yes"/>
			<point x="930" y="618"/>
			<point x="986" y="776"/>
			<point x="1140" y="776" type="curve" smooth="yes"/>
			<point x="1346" y="776"/>
			<point x="1346" y="636"/>
			<point x="1346" y="578" type="curve" smooth="yes"/>
			<point x="1346" y="0" type="line"/>
			<point x="1346" y="0"/>
			<point x="1346" y="0"/>
			<point x="1346" y="0" type="curve"/>
			<point x="1520" y="0" type="line"/>
			<point x="1520" y="0"/>
			<point x="1520" y="0"/>
			<point x="1520" y="0" type="curve"/>
		</contour>
	</outline>
</glyph>
<glyph name="n" format="2">
	<unicode hex="006E"/>
	<advance width="1096"/>
	<outline>
		<contour>
			<point x="930" y="592" type="line" smooth="yes"/>
			<point x="930" y="748"/>
			<point x="884" y="908"/>
			<point x="638" y="908" type="curve" smooth="yes"/>
			<point x="524" y="908"/>
			<point x="414" y="862"/>
			<point x="326" y="756" type="curve"/>
			<point x="326" y="756" type="line"/>
			<point x="326" y="902" type="line"/>
			<point x="326" y="902"/>
			<point x="326" y="902"/>
			<point x="326" y="902" type="curve"/>
			<point x="166" y="902" type="line"/>
			<point x="166" y="902"/>
			<point x="166" y="902"/>
			<point x="166" y="902" type="curve"/>
			<point x="166" y="0" type="line"/>
			<point x="166" y="0"/>
			<point x="166" y="0"/>
			<point x="166" y="0" type="curve"/>
			<point x="340" y="0" type="line"/>
			<point x="340" y="0"/>
			<point x="340" y="0"/>
			<point x="340" y="0" type="curve"/>
			<point x="340" y="486" type="line" smooth="yes"/>
			<point x="340" y="618"/>
			<point x="396" y="776"/>
			<point x="550" y="776" type="curve" smooth="yes"/>
			<point x="756" y="776"/>
			<point x="756" y="636"/>
			<point x="756" y="578" type="curve" smooth="yes"/>
			<point x="756" y="0" type="line"/>
			<point x="756" y="0"/>
			<point x="756" y="0"/>
			<point x="756" y="0" type="curve"/>
			<point x="930" y="0" type="line"/>
			<point x="930" y="0"/>
			<point x="930" y="0"/>
			<point x="930" y="0" type="curve"/>
		</contour>
	</outline>
</glyph>
<glyph name="o" format="2">
	<unicode hex="006F"/>
	<advance width="1062"/>
	<outline>
		<contour>
			<point x="1000" y="438" type="curve" smooth="yes"/>
			<point x="1000" y="702"/>
			<point x="790" y="918"/>
			<point x="530" y="918" type="curve" smooth="yes"/>
			<point x="270" y="918"/>
			<point x="60" y="700"/>
			<point x="60" y="438" type="curve" smooth="yes"/>
			<point x="60" y="184"/>
			<point x="272" y="-20"/>
			<point x="530" y="-20" type="curve" smooth="yes"/>
			<point x="790" y="-20"/>
			<point x="1000" y="184"/>
		</contour>
		<contour>
			<point x="530" y="118" type="curve" smooth="yes"/>
			<point x="372" y="118"/>
			<point x="234" y="234"/>
			<point x="234" y="460" type="curve" smooth="yes"/>
			<point x="234" y="686"/>
			<point x="382" y="786"/>
			<point x="530" y="786" type="curve" smooth="yes"/>
			<point x="680" y="786"/>
			<point x="826" y="682"/>
			<point x="826" y="460" type="curve" smooth="yes"/>
			<point x="826" y="232"/>
			<point x="684" y="118"/>
		</contour>
	</outline>
</glyph>
<glyph name="p" format="2">
	<unicode hex="0070"/>
	<advance width="548"/>
	<outline>
		<contour>
			<point x="172" y="47" type="line"/>
			<point x="225" y="-1"/>
			<point x="282" y="-10"/>
			<point x="316" y="-10" type="curve" smooth="yes"/>
			<point x="422" y="-10"/>
			<point x="512" y="91"/>
			<point x="512" y="223" type="curve" smooth="yes"/>
			<point x="512" y="343"/>
			<point x="446" y="454"/>
			<point x="347" y="454" type="curve" smooth="yes"/>
			<point x="302" y="454"/>
			<point x="227" y="441"/>
			<point x="169" y="396" type="curve"/>
			<point x="169" y="444" type="line"/>
			<point x="169" y="444"/>
			<point x="169" y="444"/>
			<point x="169" y="444" type="curve"/>
			<point x="85" y="444" type="line"/>
			<point x="85" y="444"/>
			<point x="85" y="444"/>
			<point x="85" y="444" type="curve"/>
			<point x="85" y="-194" type="line"/>
			<point x="85" y="-194"/>
			<point x="85" y="-194"/>
			<point x="85" y="-194" type="curve"/>
			<point x="172" y="-194" type="line"/>
			<point x="172" y="-194"/>
			<point x="172" y="-194"/>
			<point x="172" y="-194" type="curve"/>
		</contour>
		<contour>
			<point x="172" y="332" type="line"/>
			<point x="195" y="360"/>
			<point x="234" y="385"/>
			<point x="282" y="385" type="curve" smooth="yes"/>
			<point x="362" y="385"/>
			<point x="425" y="311"/>
			<point x="425" y="223" type="curve" smooth="yes"/>
			<point x="425" y="124"/>
			<point x="350" y="56"/>
			<point x="272" y="56" type="curve" smooth="yes"/>
			<point x="257" y="56"/>
			<point x="232" y="58"/>
			<point x="206" y="79" type="curve" smooth="yes"/>
			<point x="176" y="102"/>
			<point x="172" y="117"/>
			<point x="172" y="136" type="curve" smooth="yes"/>
		</contour>
	</outline>
</glyph>
<glyph name="q" format="2">
	<unicode hex="0071"/>
	<advance width="548"/>
	<outline>
		<contour>
			<point x="376" y="49" type="curve"/>
			<point x="376" y="-194" type="line"/>
			<point x="376" y="-194"/>
			<point x="376" y="-194"/>
			<point x="376" y="-194" type="curve"/>
			<point x="463" y="-194" type="line"/>
			<point x="463" y="-194"/>
			<point x="463" y="-194"/>
			<point x="463" y="-194" type="curve"/>
			<point x="463" y="454" type="line"/>
			<point x="463" y="454"/>
			<point x="463" y="454"/>
			<point x="463" y="454" type="curve"/>
			<point x="379" y="454" type="line"/>
			<point x="379" y="454"/>
			<point x="379" y="454"/>
			<point x="379" y="454" type="curve"/>
			<point x="379" y="387" type="line"/>
			<point x="343" y="427"/>
			<point x="290" y="454"/>
			<point x="232" y="454" type="curve" smooth="yes"/>
			<point x="126" y="454"/>
			<point x="36" y="354"/>
			<point x="36" y="221" type="curve" smooth="yes"/>
			<point x="36" y="96"/>
			<point x="112" y="-10"/>
			<point x="212" y="-10" type="curve" smooth="yes"/>
			<point x="246" y="-10"/>
			<point x="313" y="-2"/>
		</contour>
		<contour>
			<point x="379" y="123" type="line"/>
			<point x="366.57532" y="103.67272"/>
			<point x="352.7212633972" y="89.7056022605"/>
			<point x="338.7122421212" y="79.7009046652" type="curve" smooth="yes"/>
			<point x="312.1306996211" y="60.7174018859"/>
			<point x="284.99123" y="56"/>
			<point x="266" y="56" type="curve" smooth="yes"/>
			<point x="185" y="56"/>
			<point x="123" y="132"/>
			<point x="123" y="221" type="curve" smooth="yes"/>
			<point x="123" y="319"/>
			<point x="198" y="385"/>
			<point x="276" y="385" type="curve" smooth="yes"/>
			<point x="304.19388" y="385"/>
			<point x="327.0957601804" y="373.138621094"/>
			<point x="344.0820166838" y="356.275725713" type="curve" smooth="yes"/>
			<point x="366.8594581612" y="333.6637033052"/>
			<point x="379" y="302.05844"/>
			<point x="379" y="278" type="curve" smooth="yes"/>
		</contour>
	</outline>
</glyph>
<glyph name="r" format="2">
  <advance width="362"/>
  <unicode hex="0072"/>
  <outline>
    <contour>
      <point x="169" y="213" type="line" smooth="yes"/>
      <point x="169" y="321"/>
      <point x="259" y="379"/>
      <point x="347" y="380" type="curve"/>
      <point x="347" y="454" type="line"/>
      <point x="263" y="453"/>
      <point x="202" y="412"/>
      <point x="162" y="359" type="curve"/>
      <point x="162" y="451" type="line"/>
      <point x="85" y="451" type="line"/>
      <point x="85" y="0" type="line"/>
      <point x="169" y="0" type="line"/>
    </contour>
  </outline>
</glyph>
<glyph name="s" format="2">
	<unicode hex="0073"/>
	<advance width="814"/>
	<outline>
		<contour>
			<point x="766" y="260" type="curve" smooth="yes"/>
			<point x="766" y="296"/>
			<point x="762" y="374"/>
			<point x="678" y="450" type="curve" smooth="yes"/>
			<point x="604" y="516"/>
			<point x="532" y="530"/>
			<point x="436" y="548" type="curve" smooth="yes"/>
			<point x="318" y="570"/>
			<point x="226" y="588"/>
			<point x="226" y="676" type="curve" smooth="yes"/>
			<point x="226" y="790"/>
			<point x="372" y="790"/>
			<point x="402" y="790" type="curve" smooth="yes"/>
			<point x="516" y="790"/>
			<point x="604" y="766"/>
			<point x="704" y="714" type="curve"/>
			<point x="704" y="714"/>
			<point x="704" y="714"/>
			<point x="704" y="714" type="curve"/>
			<point x="704" y="714"/>
			<point x="704" y="714"/>
			<point x="704" y="714" type="curve"/>
			<point x="713" y="761"/>
			<point x="721" y="809"/>
			<point x="730" y="856" type="curve"/>
			<point x="685" y="875"/>
			<point x="644" y="888"/>
			<point x="606" y="897" type="curve" smooth="yes"/>
			<point x="531" y="915"/>
			<point x="470" y="918"/>
			<point x="422" y="918" type="curve" smooth="yes"/>
			<point x="372" y="918"/>
			<point x="70" y="918"/>
			<point x="70" y="652" type="curve" smooth="yes"/>
			<point x="70" y="558"/>
			<point x="122" y="506"/>
			<point x="148" y="482" type="curve" smooth="yes"/>
			<point x="218" y="412"/>
			<point x="302" y="396"/>
			<point x="408" y="376" type="curve" smooth="yes"/>
			<point x="502" y="358"/>
			<point x="610" y="338"/>
			<point x="610" y="242" type="curve" smooth="yes"/>
			<point x="610" y="116"/>
			<point x="444" y="116"/>
			<point x="416" y="116" type="curve" smooth="yes"/>
			<point x="288" y="116"/>
			<point x="168" y="162"/>
			<point x="88" y="218" type="curve"/>
			<point x="88" y="218"/>
			<point x="88" y="218"/>
			<point x="88" y="218" type="curve"/>
			<point x="88" y="218"/>
			<point x="88" y="218"/>
			<point x="88" y="218" type="curve"/>
			<point x="79" y="168"/>
			<point x="69" y="118"/>
			<point x="60" y="68" type="curve"/>
			<point x="97" y="49"/>
			<point x="150" y="25"/>
			<point x="218" y="7" type="curve" smooth="yes"/>
			<point x="274" y="-9"/>
			<point x="340" y="-20"/>
			<point x="416" y="-20" type="curve" smooth="yes"/>
			<point x="506" y="-20"/>
			<point x="594" y="-6"/>
			<point x="668" y="48" type="curve" smooth="yes"/>
			<point x="742" y="104"/>
			<point x="766" y="192"/>
		</contour>
	</outline>
</glyph>
<glyph name="t" format="2">
	<unicode hex="0074"/>
	<advance width="383"/>
	<outline>
		<contour>
			<point x="188" y="381" type="line"/>
			<point x="336" y="381" type="line"/>
			<point x="336" y="381"/>
			<point x="336" y="381"/>
			<point x="336" y="381" type="curve"/>
			<point x="336" y="444" type="line"/>
			<point x="336" y="444"/>
			<point x="336" y="444"/>
			<point x="336" y="444" type="curve"/>
			<point x="188" y="444" type="line"/>
			<point x="188" y="571" type="line"/>
			<point x="188" y="571"/>
			<point x="188" y="571"/>
			<point x="188" y="571" type="curve"/>
			<point x="111" y="571" type="line"/>
			<point x="111" y="571"/>
			<point x="111" y="571"/>
			<point x="111" y="571" type="curve"/>
			<point x="111" y="444" type="line"/>
			<point x="20" y="444" type="line"/>
			<point x="20" y="444"/>
			<point x="20" y="444"/>
			<point x="20" y="444" type="curve"/>
			<point x="20" y="381" type="line"/>
			<point x="20" y="381"/>
			<point x="20" y="381"/>
			<point x="20" y="381" type="curve"/>
			<point x="108" y="381" type="line"/>
			<point x="108" y="128" type="line" smooth="yes"/>
			<point x="108" y="61"/>
			<point x="125" y="-10"/>
			<point x="197" y="-10" type="curve" smooth="yes"/>
			<point x="269" y="-10"/>
			<point x="324" y="13"/>
			<point x="354" y="27" type="curve"/>
			<point x="354" y="27"/>
			<point x="354" y="27"/>
			<point x="354" y="27" type="curve"/>
			<point x="348.339" y="48.312"/>
			<point x="342.678" y="69.624"/>
			<point x="337" y="91" type="curve"/>
			<point x="337" y="91"/>
			<point x="337" y="91"/>
			<point x="337" y="91" type="curve"/>
			<point x="337" y="91"/>
			<point x="337" y="91"/>
			<point x="337" y="91" type="curve"/>
			<point x="304" y="67"/>
			<point x="269" y="59"/>
			<point x="241" y="59" type="curve" smooth="yes"/>
			<point x="199" y="59"/>
			<point x="188" y="100"/>
			<point x="188" y="146" type="curve" smooth="yes"/>
		</contour>
	</outline>
</glyph>
<glyph name="u" format="2">
	<unicode hex="0075"/>
	<advance width="1096"/>
	<outline>
		<contour>
			<point x="384" y="-20" type="curve" smooth="yes"/>
			<point x="466" y="-20"/>
			<point x="642" y="-4"/>
			<point x="762" y="92" type="curve"/>
			<point x="762" y="0" type="line"/>
			<point x="762" y="0"/>
			<point x="762" y="0"/>
			<point x="762" y="0" type="curve"/>
			<point x="930" y="0" type="line"/>
			<point x="930" y="0"/>
			<point x="930" y="0"/>
			<point x="930" y="0" type="curve"/>
			<point x="930" y="888" type="line"/>
			<point x="930" y="888"/>
			<point x="930" y="888"/>
			<point x="930" y="888" type="curve"/>
			<point x="756" y="888" type="line"/>
			<point x="756" y="888"/>
			<point x="756" y="888"/>
			<point x="756" y="888" type="curve"/>
			<point x="756" y="308" type="line" smooth="yes"/>
			<point x="756" y="148"/>
			<point x="620" y="98"/>
			<point x="504" y="98" type="curve" smooth="yes"/>
			<point x="356" y="98"/>
			<point x="340" y="138"/>
			<point x="340" y="230" type="curve" smooth="yes"/>
			<point x="340" y="888" type="line"/>
			<point x="340" y="888"/>
			<point x="340" y="888"/>
			<point x="340" y="888" type="curve"/>
			<point x="166" y="888" type="line"/>
			<point x="166" y="888"/>
			<point x="166" y="888"/>
			<point x="166" y="888" type="curve"/>
			<point x="166" y="218" type="line" smooth="yes"/>
			<point x="166" y="40"/>
			<point x="244" y="-20"/>
		</contour>
	</outline>
</glyph>
<glyph name="v" format="2">
	<unicode hex="0076"/>
	<advance width="489"/>
	<outline>
		<contour>
			<point x="198" y="0" type="line"/>
			<point x="198" y="0"/>
			<point x="198" y="0"/>
			<point x="198" y="0" type="curve"/>
			<point x="291" y="0" type="line"/>
			<point x="291" y="0"/>
			<point x="291" y="0"/>
			<point x="291" y="0" type="curve"/>
			<point x="474" y="444" type="line"/>
			<point x="474" y="444"/>
			<point x="474" y="444"/>
			<point x="474" y="444" type="curve"/>
			<point x="474" y="444"/>
			<point x="474" y="444"/>
			<point x="474" y="444" type="curve"/>
			<point x="394" y="444" type="line"/>
			<point x="394" y="444"/>
			<point x="394" y="444"/>
			<point x="394" y="444" type="curve"/>
			<point x="333" y="294" type="line" smooth="yes"/>
			<point x="258" y="109"/>
			<point x="250" y="78"/>
			<point x="247" y="59" type="curve"/>
			<point x="246" y="59" type="line"/>
			<point x="238" y="98"/>
			<point x="210" y="167"/>
			<point x="179" y="245" type="curve" smooth="yes"/>
			<point x="99" y="444" type="line"/>
			<point x="99" y="444"/>
			<point x="99" y="444"/>
			<point x="99" y="444" type="curve"/>
			<point x="15" y="444" type="line"/>
			<point x="15" y="444"/>
			<point x="15" y="444"/>
			<point x="15" y="444" type="curve"/>
			<point x="15" y="444"/>
			<point x="15" y="444"/>
			<point x="15" y="444" type="curve"/>
		</contour>
	</outline>
</glyph>
<glyph name="w" format="2">
	<unicode hex="0077"/>
	<advance width="1450"/>
	<outline>
		<contour>
			<point x="322" y="0" type="line"/>
			<point x="322" y="0"/>
			<point x="322" y="0"/>
			<point x="322" y="0" type="curve"/>
			<point x="490" y="0" type="line"/>
			<point x="490" y="0"/>
			<point x="490" y="0"/>
			<point x="490" y="0" type="curve"/>
			<point x="590" y="292"/>
			<point x="708" y="672"/>
			<point x="716" y="766" type="curve"/>
			<point x="718" y="768" type="line"/>
			<point x="718" y="732"/>
			<point x="762" y="574"/>
			<point x="790" y="482" type="curve" smooth="yes"/>
			<point x="841" y="321"/>
			<point x="893" y="161"/>
			<point x="944" y="0" type="curve"/>
			<point x="944" y="0"/>
			<point x="944" y="0"/>
			<point x="944" y="0" type="curve"/>
			<point x="1128" y="0" type="line"/>
			<point x="1128" y="0"/>
			<point x="1128" y="0"/>
			<point x="1128" y="0" type="curve"/>
			<point x="1420" y="888" type="line"/>
			<point x="1420" y="888"/>
			<point x="1420" y="888"/>
			<point x="1420" y="888" type="curve"/>
			<point x="1264" y="888" type="line"/>
			<point x="1264" y="888"/>
			<point x="1264" y="888"/>
			<point x="1264" y="888" type="curve"/>
			<point x="1205" y="702"/>
			<point x="1145" y="516"/>
			<point x="1086" y="330" type="curve" smooth="yes"/>
			<point x="1060" y="246"/>
			<point x="1036" y="164"/>
			<point x="1030" y="118" type="curve"/>
			<point x="1028" y="118" type="line"/>
			<point x="1016" y="200"/>
			<point x="946" y="416"/>
			<point x="942" y="430" type="curve" smooth="yes"/>
			<point x="794" y="888" type="line"/>
			<point x="794" y="888"/>
			<point x="794" y="888"/>
			<point x="794" y="888" type="curve"/>
			<point x="642" y="888" type="line"/>
			<point x="642" y="888"/>
			<point x="642" y="888"/>
			<point x="642" y="888" type="curve"/>
			<point x="584" y="716"/>
			<point x="434" y="268"/>
			<point x="418" y="122" type="curve"/>
			<point x="416" y="122" type="line"/>
			<point x="406" y="202"/>
			<point x="356" y="378"/>
			<point x="306" y="534" type="curve" smooth="yes"/>
			<point x="194" y="888" type="line"/>
			<point x="194" y="888"/>
			<point x="194" y="888"/>
			<point x="194" y="888" type="curve"/>
			<point x="30" y="888" type="line"/>
			<point x="30" y="888"/>
			<point x="30" y="888"/>
			<point x="30" y="888" type="curve"/>
		</contour>
	</outline>
</glyph>
<glyph name="x" format="2">
	<unicode hex="0078"/>
	<advance width="489"/>
	<outline>
		<contour>
			<point x="206" y="229" type="line"/>
			<point x="0" y="0" type="line"/>
			<point x="0" y="0"/>
			<point x="0" y="0"/>
			<point x="0" y="0" type="curve"/>
			<point x="0" y="0"/>
			<point x="0" y="0"/>
			<point x="0" y="0" type="curve"/>
			<point x="89" y="0" type="line"/>
			<point x="89" y="0"/>
			<point x="89" y="0"/>
			<point x="89" y="0" type="curve"/>
			<point x="241" y="188" type="line"/>
			<point x="399" y="0" type="line"/>
			<point x="399" y="0"/>
			<point x="399" y="0"/>
			<point x="399" y="0" type="curve"/>
			<point x="489" y="0" type="line"/>
			<point x="489" y="0"/>
			<point x="489" y="0"/>
			<point x="489" y="0" type="curve"/>
			<point x="489" y="0"/>
			<point x="489" y="0"/>
			<point x="489" y="0" type="curve"/>
			<point x="277" y="229" type="line"/>
			<point x="471" y="444" type="line"/>
			<point x="471" y="444"/>
			<point x="471" y="444"/>
			<point x="471" y="444" type="curve"/>
			<point x="471" y="444"/>
			<point x="471" y="444"/>
			<point x="471" y="444" type="curve"/>
			<point x="383" y="444" type="line"/>
			<point x="383" y="444"/>
			<point x="383" y="444"/>
			<point x="383" y="444" type="curve"/>
			<point x="335.714" y="389.388"/>
			<point x="288.428" y="334.776"/>
			<point x="241" y="280" type="curve"/>
			<point x="96" y="444" type="line"/>
			<point x="96" y="444"/>
			<point x="96" y="444"/>
			<point x="96" y="444" type="curve"/>
			<point x="6" y="444" type="line"/>
			<point x="6" y="444"/>
			<point x="6" y="444"/>
			<point x="6" y="444" type="curve"/>
			<point x="6" y="444"/>
			<point x="6" y="444"/>
			<point x="6" y="444" type="curve"/>
		</contour>
	</outline>
</glyph>
<glyph name="y" format="2">
	<unicode hex="0079"/>
	<advance width="489"/>
	<outline>
		<contour>
			<point x="474" y="444" type="line"/>
			<point x="474" y="444"/>
			<point x="474" y="444"/>
			<point x="474" y="444" type="curve"/>
			<point x="474" y="444"/>
			<point x="474" y="444"/>
			<point x="474" y="444" type="curve"/>
			<point x="393" y="444" type="line"/>
			<point x="393" y="444"/>
			<point x="393" y="444"/>
			<point x="393" y="444" type="curve"/>
			<point x="312" y="254"/>
			<point x="257" y="125"/>
			<point x="252" y="64" type="curve"/>
			<point x="252" y="63" type="line"/>
			<point x="250" y="104"/>
			<point x="198" y="242"/>
			<point x="101" y="444" type="curve"/>
			<point x="101" y="444"/>
			<point x="101" y="444"/>
			<point x="101" y="444" type="curve"/>
			<point x="15" y="444" type="line"/>
			<point x="15" y="444"/>
			<point x="15" y="444"/>
			<point x="15" y="444" type="curve"/>
			<point x="15" y="444"/>
			<point x="15" y="444"/>
			<point x="15" y="444" type="curve"/>
			<point x="222" y="0" type="line"/>
			<point x="211.011" y="-25.308"/>
			<point x="200.022" y="-50.616"/>
			<point x="189" y="-76" type="curve" smooth="yes"/>
			<point x="165" y="-131"/>
			<point x="149" y="-144"/>
			<point x="122" y="-144" type="curve" smooth="yes"/>
			<point x="118" y="-144"/>
			<point x="81" y="-144"/>
			<point x="38" y="-126" type="curve"/>
			<point x="38" y="-126"/>
			<point x="38" y="-126"/>
			<point x="38" y="-126" type="curve"/>
			<point x="38" y="-126"/>
			<point x="38" y="-126"/>
			<point x="38" y="-126" type="curve"/>
			<point x="39.998" y="-149.31"/>
			<point x="41.996" y="-172.62"/>
			<point x="44" y="-196" type="curve"/>
			<point x="53" y="-198"/>
			<point x="90" y="-204"/>
			<point x="121" y="-204" type="curve" smooth="yes"/>
			<point x="161" y="-204"/>
			<point x="197" y="-189"/>
			<point x="239" y="-93" type="curve" smooth="yes"/>
		</contour>
	</outline>
</glyph>
<glyph name="z" format="2">
	<unicode hex="007A"/>
	<advance width="461"/>
	<outline>
		<contour>
			<point x="305" y="381" type="line"/>
			<point x="30" y="44" type="line"/>
			<point x="30" y="44"/>
			<point x="30" y="44"/>
			<point x="30" y="44" type="curve"/>
			<point x="30" y="0" type="line"/>
			<point x="30" y="0"/>
			<point x="30" y="0"/>
			<point x="30" y="0" type="curve"/>
			<point x="427" y="0" type="line"/>
			<point x="427" y="0"/>
			<point x="427" y="0"/>
			<point x="427" y="0" type="curve"/>
			<point x="427" y="67" type="line"/>
			<point x="427" y="67"/>
			<point x="427" y="67"/>
			<point x="427" y="67" type="curve"/>
			<point x="375.385" y="67"/>
			<point x="323.77" y="67"/>
			<point x="272" y="67" type="curve" smooth="yes"/>
			<point x="260" y="67"/>
			<point x="248" y="66"/>
			<point x="236" y="66" type="curve" smooth="yes"/>
			<point x="149" y="66" type="line"/>
			<point x="424" y="402" type="line"/>
			<point x="424" y="402"/>
			<point x="424" y="402"/>
			<point x="424" y="402" type="curve"/>
			<point x="424" y="444" type="line"/>
			<point x="424" y="444"/>
			<point x="424" y="444"/>
			<point x="424" y="444" type="curve"/>
			<point x="44" y="444" type="line"/>
			<point x="44" y="444"/>
			<point x="44" y="444"/>
			<point x="44" y="444" type="curve"/>
			<point x="44" y="380" type="line"/>
			<point x="44" y="380"/>
			<point x="44" y="380"/>
			<point x="44" y="380" type="curve"/>
			<point x="92.951" y="380"/>
			<point x="141.902" y="380"/>
			<point x="191" y="380" type="curve" smooth="yes"/>
			<point x="203" y="380"/>
			<point x="215" y="381"/>
			<point x="227" y="381" type="curve" smooth="yes"/>
		</contour>
	</outline>
</glyph>
<glyph name="exclamdown" format="2">
	<unicode hex="00A1"/>
	<advance width="672"/>
	<outline>
		<contour>
			<point x="414" y="286" type="curve" smooth="yes"/>
			<point x="412" y="404"/>
			<point x="410" y="522"/>
			<point x="408" y="640" type="curve"/>
			<point x="408" y="640"/>
			<point x="408" y="640"/>
			<point x="408" y="640" type="curve"/>
			<point x="264" y="640" type="line"/>
			<point x="264" y="640"/>
			<point x="264" y="640"/>
			<point x="264" y="640" type="curve"/>
			<point x="262" y="522"/>
			<point x="260" y="404"/>
			<point x="258" y="286" type="curve" smooth="yes"/>
			<point x="254" y="62"/>
			<point x="250" y="-163"/>
			<point x="246" y="-388" type="curve"/>
			<point x="246" y="-388"/>
			<point x="246" y="-388"/>
			<point x="246" y="-388" type="curve"/>
			<point x="426" y="-388" type="line"/>
			<point x="426" y="-388"/>
			<point x="426" y="-388"/>
			<point x="426" y="-388" type="curve"/>
			<point x="422" y="-164"/>
			<point x="418" y="60"/>
		</contour>
		<contour>
			<point x="426" y="1000" type="line"/>
			<point x="426" y="1000"/>
			<point x="426" y="1000"/>
			<point x="426" y="1000" type="curve"/>
			<point x="246" y="1000" type="line"/>
			<point x="246" y="1000"/>
			<point x="246" y="1000"/>
			<point x="246" y="1000" type="curve"/>
			<point x="246" y="820" type="line"/>
			<point x="246" y="820"/>
			<point x="246" y="820"/>
			<point x="246" y="820" type="curve"/>
			<point x="426" y="820" type="line"/>
			<point x="426" y="820"/>
			<point x="426" y="820"/>
			<point x="426" y="820" type="curve"/>
		</contour>
	</outline>
</glyph>
<glyph name="dieresis" format="2">
	<unicode hex="00A8"/>
	<advance width="1062"/>
	<outline>
		<contour>
			<point x="418" y="1372" type="line"/>
			<point x="418" y="1372"/>
			<point x="418" y="1372"/>
			<point x="418" y="1372" type="curve"/>
			<point x="230" y="1372" type="line"/>
			<point x="230" y="1372"/>
			<point x="230" y="1372"/>
			<point x="230" y="1372" type="curve"/>
			<point x="230" y="1184" type="line"/>
			<point x="230" y="1184"/>
			<point x="230" y="1184"/>
			<point x="230" y="1184" type="curve"/>
			<point x="418" y="1184" type="line"/>
			<point x="418" y="1184"/>
			<point x="418" y="1184"/>
			<point x="418" y="1184" type="curve"/>
		</contour>
		<contour>
			<point x="830" y="1372" type="line"/>
			<point x="830" y="1372"/>
			<point x="830" y="1372"/>
			<point x="830" y="1372" type="curve"/>
			<point x="642" y="1372" type="line"/>
			<point x="642" y="1372"/>
			<point x="642" y="1372"/>
			<point x="642" y="1372" type="curve"/>
			<point x="642" y="1184" type="line"/>
			<point x="642" y="1184"/>
			<point x="642" y="1184"/>
			<point x="642" y="1184" type="curve"/>
			<point x="830" y="1184" type="line"/>
			<point x="830" y="1184"/>
			<point x="830" y="1184"/>
			<point x="830" y="1184" type="curve"/>
		</contour>
	</outline>
</glyph>
<glyph name="macron" format="2">
	<unicode hex="00AF"/>
	<advance width="1062"/>
	<outline>
		<contour>
			<point x="912" y="1132" type="curve"/>
			<point x="912" y="1272" type="line"/>
			<point x="912" y="1272"/>
			<point x="912" y="1272"/>
			<point x="912" y="1272" type="curve"/>
			<point x="148" y="1272" type="line"/>
			<point x="148" y="1272"/>
			<point x="148" y="1272"/>
			<point x="148" y="1272" type="curve"/>
			<point x="148" y="1132" type="line"/>
			<point x="148" y="1132"/>
			<point x="148" y="1132"/>
			<point x="148" y="1132" type="curve"/>
			<point x="912" y="1132" type="line"/>
			<point x="912" y="1132"/>
			<point x="912" y="1132"/>
		</contour>
	</outline>
</glyph>
<glyph name="acute" format="2">
	<unicode hex="00B4"/>
	<advance width="1062"/>
	<outline>
		<contour>
			<point x="882" y="1388" type="line"/>
			<point x="882" y="1388"/>
			<point x="882" y="1388"/>
			<point x="882" y="1388" type="curve"/>
			<point x="882" y="1388"/>
			<point x="882" y="1388"/>
			<point x="882" y="1388" type="curve"/>
			<point x="708" y="1388" type="line"/>
			<point x="708" y="1388"/>
			<point x="708" y="1388"/>
			<point x="708" y="1388" type="curve"/>
			<point x="434" y="1054" type="line"/>
			<point x="434" y="1054"/>
			<point x="434" y="1054"/>
			<point x="434" y="1054" type="curve"/>
			<point x="478" y="1054"/>
			<point x="522" y="1054"/>
			<point x="566" y="1054" type="curve"/>
			<point x="566" y="1054" type="line"/>
			<point x="566" y="1054"/>
			<point x="566" y="1054"/>
			<point x="566" y="1054" type="curve"/>
		</contour>
	</outline>
</glyph>
<glyph name="cedilla" format="2">
	<unicode hex="00B8"/>
	<advance width="472"/>
	<outline>
		<contour>
			<point x="298" y="-23" type="line"/>
			<point x="232" y="-23" type="line"/>
			<point x="153" y="-191" type="line"/>
			<point x="229" y="-191" type="line"/>
		</contour>
	</outline>
</glyph>
<glyph name="questiondown" format="2">
	<unicode hex="00BF"/>
	<advance width="501"/>
	<outline>
		<contour>
			<point x="281" y="410" type="curve"/>
			<point x="281" y="500" type="line"/>
			<point x="281" y="500"/>
			<point x="281" y="500"/>
			<point x="281" y="500" type="curve"/>
			<point x="191" y="500" type="line"/>
			<point x="191" y="500"/>
			<point x="191" y="500"/>
			<point x="191" y="500" type="curve"/>
			<point x="191" y="410" type="line"/>
			<point x="191" y="410"/>
			<point x="191" y="410"/>
			<point x="191" y="410" type="curve"/>
			<point x="281" y="410" type="line"/>
			<point x="281" y="410"/>
			<point x="281" y="410"/>
		</contour>
		<contour>
			<point x="59" y="-48" type="curve" smooth="yes"/>
			<point x="59" y="-154"/>
			<point x="133" y="-204"/>
			<point x="238" y="-204" type="curve" smooth="yes"/>
			<point x="298" y="-204"/>
			<point x="370" y="-190"/>
			<point x="442" y="-152" type="curve"/>
			<point x="442" y="-152"/>
			<point x="442" y="-152"/>
			<point x="442" y="-152" type="curve"/>
			<point x="434.008" y="-129.356"/>
			<point x="426.016" y="-106.712"/>
			<point x="418" y="-84" type="curve"/>
			<point x="418" y="-84"/>
			<point x="418" y="-84"/>
			<point x="418" y="-84" type="curve"/>
			<point x="418" y="-84"/>
			<point x="418" y="-84"/>
			<point x="418" y="-84" type="curve"/>
			<point x="345" y="-128"/>
			<point x="284" y="-138"/>
			<point x="238" y="-138" type="curve" smooth="yes"/>
			<point x="180" y="-138"/>
			<point x="146" y="-121"/>
			<point x="146" y="-51" type="curve" smooth="yes"/>
			<point x="146" y="-6"/>
			<point x="161" y="9"/>
			<point x="176" y="24" type="curve" smooth="yes"/>
			<point x="229" y="79"/>
			<point x="272" y="168"/>
			<point x="272" y="269" type="curve" smooth="yes"/>
			<point x="272" y="320" type="line"/>
			<point x="272" y="320"/>
			<point x="272" y="320"/>
			<point x="272" y="320" type="curve"/>
			<point x="200" y="320" type="line"/>
			<point x="200" y="320"/>
			<point x="200" y="320"/>
			<point x="200" y="320" type="curve"/>
			<point x="200" y="272" type="line" smooth="yes"/>
			<point x="200" y="195"/>
			<point x="168" y="123"/>
			<point x="106" y="66" type="curve" smooth="yes"/>
			<point x="67" y="32"/>
			<point x="59" y="-14"/>
		</contour>
	</outline>
</glyph>
<glyph name="AE" format="2">
	<unicode hex="00C6"/>
	<advance width="914"/>
	<outline>
		<contour>
			<point x="445" y="219" type="line"/>
			<point x="445" y="0" type="line"/>
			<point x="445" y="0"/>
			<point x="445" y="0"/>
			<point x="445" y="0" type="curve"/>
			<point x="870" y="0" type="line"/>
			<point x="870" y="0"/>
			<point x="870" y="0"/>
			<point x="870" y="0" type="curve"/>
			<point x="870" y="78" type="line"/>
			<point x="870" y="78"/>
			<point x="870" y="78"/>
			<point x="870" y="78" type="curve"/>
			<point x="761.775" y="77.334"/>
			<point x="653.55" y="76.668"/>
			<point x="545" y="76" type="curve"/>
			<point x="545" y="328" type="line"/>
			<point x="825" y="328" type="line"/>
			<point x="825" y="328"/>
			<point x="825" y="328"/>
			<point x="825" y="328" type="curve"/>
			<point x="825" y="394" type="line"/>
			<point x="825" y="394"/>
			<point x="825" y="394"/>
			<point x="825" y="394" type="curve"/>
			<point x="545" y="394" type="line"/>
			<point x="545" y="625" type="line"/>
			<point x="648.23" y="624.667"/>
			<point x="751.46" y="624.334"/>
			<point x="855" y="624" type="curve"/>
			<point x="855" y="624"/>
			<point x="855" y="624"/>
			<point x="855" y="624" type="curve"/>
			<point x="855" y="694" type="line"/>
			<point x="855" y="694"/>
			<point x="855" y="694"/>
			<point x="855" y="694" type="curve"/>
			<point x="330" y="694" type="line"/>
			<point x="330" y="694"/>
			<point x="330" y="694"/>
			<point x="330" y="694" type="curve"/>
			<point x="30" y="0" type="line"/>
			<point x="30" y="0"/>
			<point x="30" y="0"/>
			<point x="30" y="0" type="curve"/>
			<point x="30" y="0"/>
			<point x="30" y="0"/>
			<point x="30" y="0" type="curve"/>
			<point x="113" y="0" type="line"/>
			<point x="113" y="0"/>
			<point x="113" y="0"/>
			<point x="113" y="0" type="curve"/>
			<point x="208" y="219" type="line"/>
		</contour>
		<contour>
			<point x="233" y="278" type="line"/>
			<point x="384" y="625" type="line"/>
			<point x="445" y="625" type="line"/>
			<point x="445" y="278" type="line"/>
		</contour>
	</outline>
</glyph>
<glyph name="Oslash" format="2">
  <advance width="826"/>
  <unicode hex="00D8"/>
  <outline>
    <contour>
      <point x="682" y="725" type="line"/>
      <point x="624" y="761" type="line"/>
      <point x="572" y="675" type="line"/>
      <point x="548" y="688"/>
      <point x="489" y="715"/>
      <point x="413" y="715" type="curve" smooth="yes"/>
      <point x="217" y="715"/>
      <point x="59" y="548"/>
      <point x="59" y="344" type="curve" smooth="yes"/>
      <point x="59" y="194"/>
      <point x="143" y="97"/>
      <point x="195" y="56" type="curve"/>
      <point x="143" y="-31" type="line"/>
      <point x="201" y="-67" type="line"/>
      <point x="253" y="18" type="line"/>
      <point x="277" y="6"/>
      <point x="333" y="-21"/>
      <point x="412" y="-21" type="curve" smooth="yes"/>
      <point x="607" y="-21"/>
      <point x="766" y="141"/>
      <point x="766" y="344" type="curve" smooth="yes"/>
      <point x="766" y="504"/>
      <point x="671" y="605"/>
      <point x="629" y="637" type="curve"/>
    </contour>
    <contour>
      <point x="234" y="120" type="line"/>
      <point x="226" y="128"/>
      <point x="153" y="202"/>
      <point x="153" y="344" type="curve" smooth="yes"/>
      <point x="153" y="536"/>
      <point x="277" y="649"/>
      <point x="412" y="649" type="curve" smooth="yes"/>
      <point x="469" y="649"/>
      <point x="514" y="629"/>
      <point x="535" y="616" type="curve"/>
    </contour>
    <contour>
      <point x="590" y="572" type="line"/>
      <point x="639" y="522"/>
      <point x="672" y="443"/>
      <point x="672" y="344" type="curve" smooth="yes"/>
      <point x="672" y="153"/>
      <point x="546" y="45"/>
      <point x="413" y="45" type="curve" smooth="yes"/>
      <point x="383" y="45"/>
      <point x="335" y="51"/>
      <point x="290" y="78" type="curve"/>
    </contour>
  </outline>
</glyph>
<glyph name="oslash" format="2">
	<unicode hex="00F8"/>
	<advance width="1062"/>
	<outline>
		<contour>
			<point x="66" y="438" type="curve" smooth="yes"/>
			<point x="66" y="306"/>
			<point x="124" y="174"/>
			<point x="236" y="84" type="curve"/>
			<point x="90" y="-160" type="line"/>
			<point x="90" y="-160"/>
			<point x="90" y="-160"/>
			<point x="90" y="-160" type="curve"/>
			<point x="128" y="-183"/>
			<point x="166" y="-205"/>
			<point x="204" y="-228" type="curve"/>
			<point x="204" y="-228"/>
			<point x="204" y="-228"/>
			<point x="204" y="-228" type="curve"/>
			<point x="253" y="-147"/>
			<point x="301" y="-65"/>
			<point x="350" y="16" type="curve"/>
			<point x="404" y="-8"/>
			<point x="468" y="-20"/>
			<point x="530" y="-20" type="curve" smooth="yes"/>
			<point x="786" y="-20"/>
			<point x="994" y="184"/>
			<point x="994" y="438" type="curve" smooth="yes"/>
			<point x="994" y="580"/>
			<point x="930" y="712"/>
			<point x="826" y="808" type="curve"/>
			<point x="970" y="1050" type="line"/>
			<point x="970" y="1050"/>
			<point x="970" y="1050"/>
			<point x="970" y="1050" type="curve"/>
			<point x="932" y="1073"/>
			<point x="894" y="1095"/>
			<point x="856" y="1118" type="curve"/>
			<point x="856" y="1118"/>
			<point x="856" y="1118"/>
			<point x="856" y="1118" type="curve"/>
			<point x="714" y="878" type="line"/>
			<point x="670" y="900"/>
			<point x="602" y="918"/>
			<point x="530" y="918" type="curve" smooth="yes"/>
			<point x="274" y="918"/>
			<point x="66" y="702"/>
		</contour>
		<contour>
			<point x="308" y="204" type="line"/>
			<point x="234" y="288"/>
			<point x="228" y="392"/>
			<point x="228" y="440" type="curve" smooth="yes"/>
			<point x="228" y="660"/>
			<point x="366" y="786"/>
			<point x="530" y="786" type="curve" smooth="yes"/>
			<point x="594" y="786"/>
			<point x="642" y="766"/>
			<point x="644" y="764" type="curve"/>
		</contour>
		<contour>
			<point x="752" y="686" type="line"/>
			<point x="812" y="612"/>
			<point x="832" y="524"/>
			<point x="832" y="440" type="curve" smooth="yes"/>
			<point x="832" y="216"/>
			<point x="686" y="112"/>
			<point x="530" y="112" type="curve" smooth="yes"/>
			<point x="516" y="112"/>
			<point x="472" y="112"/>
			<point x="420" y="132" type="curve"/>
		</contour>
	</outline>
</glyph>
<glyph name="dotlessi" format="2">
	<unicode hex="0131"/>
	<advance width="253"/>
	<outline>
		<contour>
			<point x="168" y="444" type="line"/>
			<point x="84" y="444" type="line"/>
			<point x="84" y="0" type="line"/>
			<point x="168" y="0" type="line"/>
		</contour>
	</outline>
</glyph>
<glyph name="OE" format="2">
	<unicode hex="0152"/>
	<advance width="2066"/>
	<outline>
		<contour>
			<point x="762" y="-42" type="curve" smooth="yes"/>
			<point x="814" y="-42"/>
			<point x="860" y="-34"/>
			<point x="924" y="-22" type="curve" smooth="yes"/>
			<point x="1034" y="-2"/>
			<point x="1070" y="0"/>
			<point x="1106" y="0" type="curve" smooth="yes"/>
			<point x="1976" y="0" type="line"/>
			<point x="1976" y="0"/>
			<point x="1976" y="0"/>
			<point x="1976" y="0" type="curve"/>
			<point x="1976" y="156" type="line"/>
			<point x="1976" y="156"/>
			<point x="1976" y="156"/>
			<point x="1976" y="156" type="curve"/>
			<point x="1717" y="156"/>
			<point x="1458" y="156"/>
			<point x="1198" y="156" type="curve"/>
			<point x="1198" y="656" type="line"/>
			<point x="1886" y="656" type="line"/>
			<point x="1886" y="656"/>
			<point x="1886" y="656"/>
			<point x="1886" y="656" type="curve"/>
			<point x="1886" y="788" type="line"/>
			<point x="1886" y="788"/>
			<point x="1886" y="788"/>
			<point x="1886" y="788" type="curve"/>
			<point x="1198" y="788" type="line"/>
			<point x="1198" y="1248" type="line"/>
			<point x="1447" y="1248"/>
			<point x="1696" y="1248"/>
			<point x="1946" y="1248" type="curve"/>
			<point x="1946" y="1248"/>
			<point x="1946" y="1248"/>
			<point x="1946" y="1248" type="curve"/>
			<point x="1946" y="1388" type="line"/>
			<point x="1946" y="1388"/>
			<point x="1946" y="1388"/>
			<point x="1946" y="1388" type="curve"/>
			<point x="1106" y="1388" type="line" smooth="yes"/>
			<point x="1072" y="1388"/>
			<point x="1034" y="1388"/>
			<point x="922" y="1412" type="curve" smooth="yes"/>
			<point x="826" y="1430"/>
			<point x="782" y="1430"/>
			<point x="762" y="1430" type="curve" smooth="yes"/>
			<point x="386" y="1430"/>
			<point x="58" y="1106"/>
			<point x="58" y="688" type="curve" smooth="yes"/>
			<point x="58" y="272"/>
			<point x="390" y="-42"/>
		</contour>
		<contour>
			<point x="774" y="90" type="curve" smooth="yes"/>
			<point x="472" y="90"/>
			<point x="254" y="384"/>
			<point x="254" y="720" type="curve" smooth="yes"/>
			<point x="254" y="1032"/>
			<point x="472" y="1298"/>
			<point x="774" y="1298" type="curve" smooth="yes"/>
			<point x="940" y="1298"/>
			<point x="1002" y="1254"/>
			<point x="1002" y="984" type="curve" smooth="yes"/>
			<point x="1002" y="886"/>
			<point x="1002" y="790"/>
			<point x="1002" y="692" type="curve" smooth="yes"/>
			<point x="1002" y="596"/>
			<point x="1002" y="500"/>
			<point x="1002" y="404" type="curve" smooth="yes"/>
			<point x="1002" y="134"/>
			<point x="940" y="90"/>
		</contour>
	</outline>
</glyph>
<glyph name="oe" format="2">
	<unicode hex="0153"/>
	<advance width="1652"/>
	<outline>
		<contour>
			<point x="514" y="-20" type="curve" smooth="yes"/>
			<point x="690" y="-20"/>
			<point x="820" y="82"/>
			<point x="886" y="174" type="curve"/>
			<point x="1024" y="-2"/>
			<point x="1188" y="-20"/>
			<point x="1270" y="-20" type="curve" smooth="yes"/>
			<point x="1416" y="-20"/>
			<point x="1528" y="40"/>
			<point x="1580" y="76" type="curve"/>
			<point x="1580" y="76"/>
			<point x="1580" y="76"/>
			<point x="1580" y="76" type="curve"/>
			<point x="1576" y="123"/>
			<point x="1572" y="171"/>
			<point x="1568" y="218" type="curve"/>
			<point x="1568" y="218"/>
			<point x="1568" y="218"/>
			<point x="1568" y="218" type="curve"/>
			<point x="1568" y="218"/>
			<point x="1568" y="218"/>
			<point x="1568" y="218" type="curve"/>
			<point x="1478" y="144"/>
			<point x="1368" y="112"/>
			<point x="1274" y="112" type="curve" smooth="yes"/>
			<point x="1118" y="112"/>
			<point x="982" y="240"/>
			<point x="972" y="438" type="curve"/>
			<point x="1590" y="438" type="line"/>
			<point x="1590" y="438"/>
			<point x="1590" y="438"/>
			<point x="1590" y="438" type="curve"/>
			<point x="1590" y="506"/>
			<point x="1590" y="918"/>
			<point x="1238" y="918" type="curve" smooth="yes"/>
			<point x="1190" y="918"/>
			<point x="1014" y="910"/>
			<point x="884" y="726" type="curve"/>
			<point x="820" y="816"/>
			<point x="690" y="918"/>
			<point x="514" y="918" type="curve" smooth="yes"/>
			<point x="260" y="918"/>
			<point x="60" y="704"/>
			<point x="60" y="450" type="curve" smooth="yes"/>
			<point x="60" y="188"/>
			<point x="264" y="-20"/>
		</contour>
		<contour>
			<point x="512" y="112" type="curve" smooth="yes"/>
			<point x="362" y="112"/>
			<point x="220" y="228"/>
			<point x="220" y="460" type="curve" smooth="yes"/>
			<point x="220" y="682"/>
			<point x="362" y="786"/>
			<point x="512" y="786" type="curve" smooth="yes"/>
			<point x="656" y="786"/>
			<point x="798" y="686"/>
			<point x="798" y="460" type="curve" smooth="yes"/>
			<point x="798" y="226"/>
			<point x="660" y="112"/>
		</contour>
		<contour>
			<point x="986" y="558" type="line"/>
			<point x="1024" y="698"/>
			<point x="1128" y="786"/>
			<point x="1240" y="786" type="curve" smooth="yes"/>
			<point x="1298" y="786"/>
			<point x="1428" y="760"/>
			<point x="1462" y="558" type="curve"/>
		</contour>
	</outline>
</glyph>
<glyph name="circumflex" format="2">
	<unicode hex="02C6"/>
	<advance width="1062"/>
	<outline>
		<contour>
			<point x="600" y="1388" type="line"/>
			<point x="600" y="1388"/>
			<point x="600" y="1388"/>
			<point x="600" y="1388" type="curve"/>
			<point x="460" y="1388" type="line"/>
			<point x="460" y="1388"/>
			<point x="460" y="1388"/>
			<point x="460" y="1388" type="curve"/>
			<point x="168" y="1054" type="line"/>
			<point x="168" y="1054"/>
			<point x="168" y="1054"/>
			<point x="168" y="1054" type="curve"/>
			<point x="168" y="1054"/>
			<point x="168" y="1054"/>
			<point x="168" y="1054" type="curve"/>
			<point x="300" y="1054" type="line"/>
			<point x="300" y="1054"/>
			<point x="300" y="1054"/>
			<point x="300" y="1054" type="curve"/>
			<point x="530" y="1296" type="line"/>
			<point x="760" y="1054" type="line"/>
			<point x="760" y="1054"/>
			<point x="760" y="1054"/>
			<point x="760" y="1054" type="curve"/>
			<point x="892" y="1054" type="line"/>
			<point x="892" y="1054"/>
			<point x="892" y="1054"/>
			<point x="892" y="1054" type="curve"/>
			<point x="892" y="1054"/>
			<point x="892" y="1054"/>
			<point x="892" y="1054" type="curve"/>
		</contour>
	</outline>
</glyph>
<glyph name="caron" format="2">
	<unicode hex="02C7"/>
	<advance width="531"/>
	<outline>
		<contour>
			<point x="446" y="653" type="line"/>
			<point x="446" y="653"/>
			<point x="446" y="653"/>
			<point x="446" y="653" type="curve"/>
			<point x="446" y="653"/>
			<point x="446" y="653"/>
			<point x="446" y="653" type="curve"/>
			<point x="380" y="653" type="line"/>
			<point x="380" y="653"/>
			<point x="380" y="653"/>
			<point x="380" y="653" type="curve"/>
			<point x="265" y="532" type="line"/>
			<point x="150" y="653" type="line"/>
			<point x="150" y="653"/>
			<point x="150" y="653"/>
			<point x="150" y="653" type="curve"/>
			<point x="84" y="653" type="line"/>
			<point x="84" y="653"/>
			<point x="84" y="653"/>
			<point x="84" y="653" type="curve"/>
			<point x="84" y="653"/>
			<point x="84" y="653"/>
			<point x="84" y="653" type="curve"/>
			<point x="230" y="486" type="line"/>
			<point x="230" y="486"/>
			<point x="230" y="486"/>
			<point x="230" y="486" type="curve"/>
			<point x="300" y="486" type="line"/>
			<point x="300" y="486"/>
			<point x="300" y="486"/>
			<point x="300" y="486" type="curve"/>
		</contour>
	</outline>
</glyph>
<glyph name="breve" format="2">
	<unicode hex="02D8"/>
	<advance width="1062"/>
	<outline>
		<contour>
			<point x="530" y="1024" type="curve" smooth="yes"/>
			<point x="712" y="1024"/>
			<point x="886" y="1164"/>
			<point x="890" y="1388" type="curve"/>
			<point x="890" y="1388"/>
			<point x="890" y="1388"/>
			<point x="890" y="1388" type="curve"/>
			<point x="758" y="1388" type="line"/>
			<point x="758" y="1388"/>
			<point x="758" y="1388"/>
			<point x="758" y="1388" type="curve"/>
			<point x="754" y="1246"/>
			<point x="638" y="1170"/>
			<point x="530" y="1170" type="curve" smooth="yes"/>
			<point x="422" y="1170"/>
			<point x="306" y="1248"/>
			<point x="302" y="1388" type="curve"/>
			<point x="302" y="1388"/>
			<point x="302" y="1388"/>
			<point x="302" y="1388" type="curve"/>
			<point x="170" y="1388" type="line"/>
			<point x="170" y="1388"/>
			<point x="170" y="1388"/>
			<point x="170" y="1388" type="curve"/>
			<point x="174" y="1164"/>
			<point x="350" y="1024"/>
		</contour>
	</outline>
</glyph>
<glyph name="dotaccent" format="2">
	<unicode hex="02D9"/>
	<advance width="295"/>
	<outline>
		<contour>
			<point x="198" y="686" type="line"/>
			<point x="97" y="686" type="line"/>
			<point x="97" y="585" type="line"/>
			<point x="198" y="585" type="line"/>
		</contour>
	</outline>
</glyph>
<glyph name="ring" format="2">
	<unicode hex="02DA"/>
	<advance width="1416"/>
	<outline>
		<contour>
			<point x="944" y="1220" type="curve" smooth="yes"/>
			<point x="944" y="1314"/>
			<point x="838" y="1388"/>
			<point x="708" y="1388" type="curve" smooth="yes"/>
			<point x="566" y="1388"/>
			<point x="470" y="1306"/>
			<point x="470" y="1222" type="curve" smooth="yes"/>
			<point x="470" y="1128"/>
			<point x="576" y="1054"/>
			<point x="706" y="1054" type="curve" smooth="yes"/>
			<point x="848" y="1054"/>
			<point x="944" y="1136"/>
		</contour>
		<contour>
			<point x="708" y="1138" type="curve" smooth="yes"/>
			<point x="688" y="1138"/>
			<point x="590" y="1138"/>
			<point x="590" y="1220" type="curve" smooth="yes"/>
			<point x="590" y="1300"/>
			<point x="678" y="1304"/>
			<point x="706" y="1304" type="curve" smooth="yes"/>
			<point x="726" y="1304"/>
			<point x="824" y="1304"/>
			<point x="824" y="1222" type="curve" smooth="yes"/>
			<point x="824" y="1142"/>
			<point x="736" y="1138"/>
		</contour>
	</outline>
</glyph>
<glyph name="tilde" format="2">
	<unicode hex="02DC"/>
	<advance width="1062"/>
	<outline>
		<contour>
			<point x="670" y="1242" type="curve" smooth="yes"/>
			<point x="620" y="1242"/>
			<point x="570" y="1278"/>
			<point x="548" y="1292" type="curve" smooth="yes"/>
			<point x="488" y="1332"/>
			<point x="442" y="1360"/>
			<point x="386" y="1360" type="curve" smooth="yes"/>
			<point x="284" y="1360"/>
			<point x="180" y="1268"/>
			<point x="178" y="1110" type="curve"/>
			<point x="178" y="1110"/>
			<point x="178" y="1110"/>
			<point x="178" y="1110" type="curve"/>
			<point x="310" y="1110" type="line"/>
			<point x="310" y="1110"/>
			<point x="310" y="1110"/>
			<point x="310" y="1110" type="curve"/>
			<point x="312" y="1174"/>
			<point x="334" y="1228"/>
			<point x="390" y="1228" type="curve" smooth="yes"/>
			<point x="440" y="1228"/>
			<point x="490" y="1192"/>
			<point x="512" y="1178" type="curve" smooth="yes"/>
			<point x="572" y="1138"/>
			<point x="618" y="1110"/>
			<point x="674" y="1110" type="curve" smooth="yes"/>
			<point x="776" y="1110"/>
			<point x="880" y="1202"/>
			<point x="882" y="1360" type="curve"/>
			<point x="882" y="1360"/>
			<point x="882" y="1360"/>
			<point x="882" y="1360" type="curve"/>
			<point x="750" y="1360" type="line"/>
			<point x="750" y="1360"/>
			<point x="750" y="1360"/>
			<point x="750" y="1360" type="curve"/>
			<point x="748" y="1296"/>
			<point x="726" y="1242"/>
		</contour>
	</outline>
</glyph>
<glyph name="hungarumlaut" format="2">
	<unicode hex="02DD"/>
	<advance width="1062"/>
	<outline>
		<contour>
			<point x="528" y="1388" type="line"/>
			<point x="528" y="1388"/>
			<point x="528" y="1388"/>
			<point x="528" y="1388" type="curve"/>
			<point x="528" y="1388"/>
			<point x="528" y="1388"/>
			<point x="528" y="1388" type="curve"/>
			<point x="354" y="1388" type="line"/>
			<point x="354" y="1388"/>
			<point x="354" y="1388"/>
			<point x="354" y="1388" type="curve"/>
			<point x="228" y="1054" type="line"/>
			<point x="228" y="1054"/>
			<point x="228" y="1054"/>
			<point x="228" y="1054" type="curve"/>
			<point x="360" y="1054" type="line"/>
			<point x="360" y="1054"/>
			<point x="360" y="1054"/>
			<point x="360" y="1054" type="curve"/>
		</contour>
		<contour>
			<point x="882" y="1388" type="line"/>
			<point x="882" y="1388"/>
			<point x="882" y="1388"/>
			<point x="882" y="1388" type="curve"/>
			<point x="882" y="1388"/>
			<point x="882" y="1388"/>
			<point x="882" y="1388" type="curve"/>
			<point x="708" y="1388" type="line"/>
			<point x="708" y="1388"/>
			<point x="708" y="1388"/>
			<point x="708" y="1388" type="curve"/>
			<point x="582" y="1054" type="line"/>
			<point x="582" y="1054"/>
			<point x="582" y="1054"/>
			<point x="582" y="1054" type="curve"/>
			<point x="714" y="1054" type="line"/>
			<point x="714" y="1054"/>
			<point x="714" y="1054"/>
			<point x="714" y="1054" type="curve"/>
		</contour>
	</outline>
</glyph>
<glyph name="endash" format="2">
	<unicode hex="2013"/>
	<advance width="531"/>
	<outline>
		<contour>
			<point x="530" y="241" type="curve"/>
			<point x="530" y="307" type="line"/>
			<point x="530" y="307"/>
			<point x="530" y="307"/>
			<point x="530" y="307" type="curve"/>
			<point x="0" y="307" type="line"/>
			<point x="0" y="307"/>
			<point x="0" y="307"/>
			<point x="0" y="307" type="curve"/>
			<point x="0" y="241" type="line"/>
			<point x="0" y="241"/>
			<point x="0" y="241"/>
			<point x="0" y="241" type="curve"/>
			<point x="530" y="241" type="line"/>
			<point x="530" y="241"/>
			<point x="530" y="241"/>
		</contour>
	</outline>
</glyph>
<glyph name="emdash" format="2">
	<unicode hex="2014"/>
	<advance width="2124"/>
	<outline>
		<contour>
			<point x="2124" y="482" type="curve"/>
			<point x="2124" y="614" type="line"/>
			<point x="2124" y="614"/>
			<point x="2124" y="614"/>
			<point x="2124" y="614" type="curve"/>
			<point x="0" y="614" type="line"/>
			<point x="0" y="614"/>
			<point x="0" y="614"/>
			<point x="0" y="614" type="curve"/>
			<point x="0" y="482" type="line"/>
			<point x="0" y="482"/>
			<point x="0" y="482"/>
			<point x="0" y="482" type="curve"/>
			<point x="2124" y="482" type="line"/>
			<point x="2124" y="482"/>
			<point x="2124" y="482"/>
		</contour>
	</outline>
</glyph>
<glyph name="quoteleft" format="2">
	<unicode hex="2018"/>
	<advance width="590"/>
	<outline>
		<contour>
			<point x="386" y="1388" type="line"/>
			<point x="386" y="1388"/>
			<point x="386" y="1388"/>
			<point x="386" y="1388" type="curve"/>
			<point x="386" y="1388"/>
			<point x="386" y="1388"/>
			<point x="386" y="1388" type="curve"/>
			<point x="296" y="1388" type="line"/>
			<point x="296" y="1388"/>
			<point x="296" y="1388"/>
			<point x="296" y="1388" type="curve"/>
			<point x="204" y="1130" type="line"/>
			<point x="204" y="952" type="line"/>
			<point x="204" y="952"/>
			<point x="204" y="952"/>
			<point x="204" y="952" type="curve"/>
			<point x="384" y="952" type="line"/>
			<point x="384" y="952"/>
			<point x="384" y="952"/>
			<point x="384" y="952" type="curve"/>
			<point x="384" y="1132" type="line"/>
			<point x="384" y="1132"/>
			<point x="384" y="1132"/>
			<point x="384" y="1132" type="curve"/>
			<point x="328" y="1132" type="line"/>
		</contour>
	</outline>
</glyph>
<glyph name="quoteright" format="2">
	<unicode hex="2019"/>
	<advance width="590"/>
	<outline>
		<contour>
			<point x="260" y="1208" type="line"/>
			<point x="202" y="952" type="line"/>
			<point x="202" y="952"/>
			<point x="202" y="952"/>
			<point x="202" y="952" type="curve"/>
			<point x="202" y="952"/>
			<point x="202" y="952"/>
			<point x="202" y="952" type="curve"/>
			<point x="292" y="952" type="line"/>
			<point x="292" y="952"/>
			<point x="292" y="952"/>
			<point x="292" y="952" type="curve"/>
			<point x="384" y="1210" type="line"/>
			<point x="384" y="1388" type="line"/>
			<point x="384" y="1388"/>
			<point x="384" y="1388"/>
			<point x="384" y="1388" type="curve"/>
			<point x="204" y="1388" type="line"/>
			<point x="204" y="1388"/>
			<point x="204" y="1388"/>
			<point x="204" y="1388" type="curve"/>
			<point x="204" y="1208" type="line"/>
			<point x="204" y="1208"/>
			<point x="204" y="1208"/>
			<point x="204" y="1208" type="curve"/>
		</contour>
	</outline>
</glyph>
<glyph name="quotedblleft" format="2">
	<unicode hex="201C"/>
	<advance width="1062"/>
	<outline>
		<contour>
			<point x="578" y="1388" type="line"/>
			<point x="578" y="1388"/>
			<point x="578" y="1388"/>
			<point x="578" y="1388" type="curve"/>
			<point x="578" y="1388"/>
			<point x="578" y="1388"/>
			<point x="578" y="1388" type="curve"/>
			<point x="488" y="1388" type="line"/>
			<point x="488" y="1388"/>
			<point x="488" y="1388"/>
			<point x="488" y="1388" type="curve"/>
			<point x="396" y="1130" type="line"/>
			<point x="396" y="952" type="line"/>
			<point x="396" y="952"/>
			<point x="396" y="952"/>
			<point x="396" y="952" type="curve"/>
			<point x="576" y="952" type="line"/>
			<point x="576" y="952"/>
			<point x="576" y="952"/>
			<point x="576" y="952" type="curve"/>
			<point x="576" y="1132" type="line"/>
			<point x="576" y="1132"/>
			<point x="576" y="1132"/>
			<point x="576" y="1132" type="curve"/>
			<point x="520" y="1132" type="line"/>
		</contour>
		<contour>
			<point x="992" y="1388" type="line"/>
			<point x="992" y="1388"/>
			<point x="992" y="1388"/>
			<point x="992" y="1388" type="curve"/>
			<point x="992" y="1388"/>
			<point x="992" y="1388"/>
			<point x="992" y="1388" type="curve"/>
			<point x="902" y="1388" type="line"/>
			<point x="902" y="1388"/>
			<point x="902" y="1388"/>
			<point x="902" y="1388" type="curve"/>
			<point x="810" y="1130" type="line"/>
			<point x="810" y="952" type="line"/>
			<point x="810" y="952"/>
			<point x="810" y="952"/>
			<point x="810" y="952" type="curve"/>
			<point x="990" y="952" type="line"/>
			<point x="990" y="952"/>
			<point x="990" y="952"/>
			<point x="990" y="952" type="curve"/>
			<point x="990" y="1132" type="line"/>
			<point x="990" y="1132"/>
			<point x="990" y="1132"/>
			<point x="990" y="1132" type="curve"/>
			<point x="934" y="1132" type="line"/>
		</contour>
	</outline>
</glyph>
<glyph name="quotedblright" format="2">
	<unicode hex="201D"/>
	<advance width="531"/>
	<outline>
		<contour>
			<point x="125" y="605" type="line"/>
			<point x="125" y="694" type="line"/>
			<point x="125" y="694"/>
			<point x="125" y="694"/>
			<point x="125" y="694" type="curve"/>
			<point x="35" y="694" type="line"/>
			<point x="35" y="694"/>
			<point x="35" y="694"/>
			<point x="35" y="694" type="curve"/>
			<point x="35" y="604" type="line"/>
			<point x="35" y="604"/>
			<point x="35" y="604"/>
			<point x="35" y="604" type="curve"/>
			<point x="63" y="604" type="line"/>
			<point x="34" y="476" type="line"/>
			<point x="34" y="476"/>
			<point x="34" y="476"/>
			<point x="34" y="476" type="curve"/>
			<point x="34" y="476"/>
			<point x="34" y="476"/>
			<point x="34" y="476" type="curve"/>
			<point x="79" y="476" type="line"/>
			<point x="79" y="476"/>
			<point x="79" y="476"/>
			<point x="79" y="476" type="curve"/>
		</contour>
		<contour>
			<point x="332" y="605" type="line"/>
			<point x="332" y="694" type="line"/>
			<point x="332" y="694"/>
			<point x="332" y="694"/>
			<point x="332" y="694" type="curve"/>
			<point x="242" y="694" type="line"/>
			<point x="242" y="694"/>
			<point x="242" y="694"/>
			<point x="242" y="694" type="curve"/>
			<point x="242" y="604" type="line"/>
			<point x="242" y="604"/>
			<point x="242" y="604"/>
			<point x="242" y="604" type="curve"/>
			<point x="270" y="604" type="line"/>
			<point x="241" y="476" type="line"/>
			<point x="241" y="476"/>
			<point x="241" y="476"/>
			<point x="241" y="476" type="curve"/>
			<point x="241" y="476"/>
			<point x="241" y="476"/>
			<point x="241" y="476" type="curve"/>
			<point x="286" y="476" type="line"/>
			<point x="286" y="476"/>
			<point x="286" y="476"/>
			<point x="286" y="476" type="curve"/>
		</contour>
	</outline>
</glyph>
<glyph name="fi" format="2">
	<unicode hex="FB01"/>
	<advance width="569"/>
	<outline>
		<contour>
			<point x="486" y="695" type="curve"/>
			<point x="486" y="695" type="line"/>
			<point x="456.03" y="695"/>
			<point x="426.06" y="695"/>
			<point x="396" y="695" type="curve"/>
			<point x="396" y="695" type="line"/>
			<point x="396" y="665.03"/>
			<point x="396" y="635.06"/>
			<point x="396" y="605" type="curve"/>
			<point x="396" y="605" type="line"/>
			<point x="425.97" y="605"/>
			<point x="455.94" y="605"/>
			<point x="486" y="605" type="curve"/>
			<point x="486" y="605" type="line"/>
			<point x="486" y="634.97"/>
			<point x="486" y="664.94"/>
		</contour>
		<contour>
			<point x="483" y="444" type="curve"/>
			<point x="399" y="444" type="line"/>
			<point x="399" y="444"/>
			<point x="399" y="444"/>
			<point x="399" y="444" type="curve"/>
			<point x="399" y="0" type="line"/>
			<point x="399" y="0"/>
			<point x="399" y="0"/>
			<point x="399" y="0" type="curve"/>
			<point x="483" y="0" type="line"/>
			<point x="483" y="0"/>
			<point x="483" y="0"/>
			<point x="483" y="0" type="curve"/>
			<point x="483" y="444" type="line"/>
			<point x="483" y="444"/>
			<point x="483" y="444"/>
		</contour>
		<contour>
			<point x="106" y="381" type="line"/>
			<point x="106" y="0" type="line"/>
			<point x="106" y="0"/>
			<point x="106" y="0"/>
			<point x="106" y="0" type="curve"/>
			<point x="190" y="0" type="line"/>
			<point x="190" y="0"/>
			<point x="190" y="0"/>
			<point x="190" y="0" type="curve"/>
			<point x="190" y="381" type="line"/>
			<point x="313" y="381" type="line"/>
			<point x="313" y="381"/>
			<point x="313" y="381"/>
			<point x="313" y="381" type="curve"/>
			<point x="313" y="444" type="line"/>
			<point x="313" y="444"/>
			<point x="313" y="444"/>
			<point x="313" y="444" type="curve"/>
			<point x="187" y="444" type="line"/>
			<point x="187" y="561" type="line" smooth="yes"/>
			<point x="187" y="625"/>
			<point x="225" y="638"/>
			<point x="249" y="638" type="curve" smooth="yes"/>
			<point x="266" y="638"/>
			<point x="291" y="634"/>
			<point x="313" y="619" type="curve"/>
			<point x="313" y="619"/>
			<point x="313" y="619"/>
			<point x="313" y="619" type="curve"/>
			<point x="313" y="619"/>
			<point x="313" y="619"/>
			<point x="313" y="619" type="curve"/>
			<point x="313" y="694" type="line"/>
			<point x="313" y="694"/>
			<point x="313" y="694"/>
			<point x="313" y="694" type="curve"/>
			<point x="310" y="695"/>
			<point x="282" y="704"/>
			<point x="249" y="704" type="curve" smooth="yes"/>
			<point x="172" y="704"/>
			<point x="106" y="635"/>
			<point x="106" y="532" type="curve" smooth="yes"/>
			<point x="106" y="444" type="line"/>
			<point x="29" y="444" type="line"/>
			<point x="29" y="444"/>
			<point x="29" y="444"/>
			<point x="29" y="444" type="curve"/>
			<point x="29" y="381" type="line"/>
			<point x="29" y="381"/>
			<point x="29" y="381"/>
			<point x="29" y="381" type="curve"/>
		</contour>
	</outline>
</glyph>
<glyph name="fl" format="2">
	<unicode hex="FB02"/>
	<advance width="1138"/>
	<outline>
		<contour>
			<point x="212" y="762" type="line"/>
			<point x="212" y="0" type="line"/>
			<point x="212" y="0"/>
			<point x="212" y="0"/>
			<point x="212" y="0" type="curve"/>
			<point x="380" y="0" type="line"/>
			<point x="380" y="0"/>
			<point x="380" y="0"/>
			<point x="380" y="0" type="curve"/>
			<point x="380" y="762" type="line"/>
			<point x="626" y="762" type="line"/>
			<point x="626" y="762"/>
			<point x="626" y="762"/>
			<point x="626" y="762" type="curve"/>
			<point x="626" y="888" type="line"/>
			<point x="626" y="888"/>
			<point x="626" y="888"/>
			<point x="626" y="888" type="curve"/>
			<point x="374" y="888" type="line"/>
			<point x="374" y="1122" type="line" smooth="yes"/>
			<point x="374" y="1242"/>
			<point x="440" y="1276"/>
			<point x="500" y="1276" type="curve" smooth="yes"/>
			<point x="562" y="1276"/>
			<point x="612" y="1250"/>
			<point x="626" y="1242" type="curve"/>
			<point x="626" y="1242"/>
			<point x="626" y="1242"/>
			<point x="626" y="1242" type="curve"/>
			<point x="626" y="1242"/>
			<point x="626" y="1242"/>
			<point x="626" y="1242" type="curve"/>
			<point x="626" y="1388" type="line"/>
			<point x="626" y="1388"/>
			<point x="626" y="1388"/>
			<point x="626" y="1388" type="curve"/>
			<point x="620" y="1390"/>
			<point x="564" y="1408"/>
			<point x="498" y="1408" type="curve" smooth="yes"/>
			<point x="344" y="1408"/>
			<point x="212" y="1270"/>
			<point x="212" y="1064" type="curve" smooth="yes"/>
			<point x="212" y="888" type="line"/>
			<point x="58" y="888" type="line"/>
			<point x="58" y="888"/>
			<point x="58" y="888"/>
			<point x="58" y="888" type="curve"/>
			<point x="58" y="762" type="line"/>
			<point x="58" y="762"/>
			<point x="58" y="762"/>
			<point x="58" y="762" type="curve"/>
		</contour>
		<contour>
			<point x="966" y="1388" type="curve"/>
			<point x="798" y="1388" type="line"/>
			<point x="798" y="1388"/>
			<point x="798" y="1388"/>
			<point x="798" y="1388" type="curve"/>
			<point x="798" y="0" type="line"/>
			<point x="798" y="0"/>
			<point x="798" y="0"/>
			<point x="798" y="0" type="curve"/>
			<point x="966" y="0" type="line"/>
			<point x="966" y="0"/>
			<point x="966" y="0"/>
			<point x="966" y="0" type="curve"/>
			<point x="966" y="1388" type="line"/>
			<point x="966" y="1388"/>
			<point x="966" y="1388"/>
		</contour>
	</outline>
</glyph>
<glyph name="dotlessj" format="2">
	<advance width="282"/>
	<outline>
		<contour>
			<point x="198" y="444" type="line"/>
			<point x="114" y="444" type="line"/>
			<point x="114" y="-67" type="line" smooth="yes"/>
			<point x="114" y="-120"/>
			<point x="74" y="-134"/>
			<point x="36" y="-134" type="curve" smooth="yes"/>
			<point x="-5" y="-134"/>
			<point x="-31" y="-114"/>
			<point x="-41" y="-104" type="curve"/>
			<point x="-65" y="-170" type="line"/>
			<point x="-19" y="-195"/>
			<point x="26" y="-204"/>
			<point x="64" y="-204" type="curve" smooth="yes"/>
			<point x="133" y="-204"/>
			<point x="198" y="-151"/>
			<point x="198" y="-59" type="curve" smooth="yes"/>
		</contour>
	</outline>
</glyph>
<glyph name="ff" format="2">
	<advance width="1238"/>
	<outline>
		<contour>
			<point x="380" y="762" type="line"/>
			<point x="610" y="762" type="line"/>
			<point x="610" y="762"/>
			<point x="610" y="762"/>
			<point x="610" y="762" type="curve"/>
			<point x="610" y="888" type="line"/>
			<point x="610" y="888"/>
			<point x="610" y="888"/>
			<point x="610" y="888" type="curve"/>
			<point x="374" y="888" type="line"/>
			<point x="374" y="1118" type="line" smooth="yes"/>
			<point x="374" y="1262"/>
			<point x="510" y="1276"/>
			<point x="566" y="1276" type="curve" smooth="yes"/>
			<point x="614" y="1276"/>
			<point x="668" y="1270"/>
			<point x="738" y="1242" type="curve"/>
			<point x="738" y="1242"/>
			<point x="738" y="1242"/>
			<point x="738" y="1242" type="curve"/>
			<point x="738" y="1242"/>
			<point x="738" y="1242"/>
			<point x="738" y="1242" type="curve"/>
			<point x="738" y="1388" type="line"/>
			<point x="738" y="1388"/>
			<point x="738" y="1388"/>
			<point x="738" y="1388" type="curve"/>
			<point x="686" y="1400"/>
			<point x="624" y="1408"/>
			<point x="570" y="1408" type="curve" smooth="yes"/>
			<point x="362" y="1408"/>
			<point x="212" y="1260"/>
			<point x="212" y="1062" type="curve" smooth="yes"/>
			<point x="212" y="888" type="line"/>
			<point x="58" y="888" type="line"/>
			<point x="58" y="888"/>
			<point x="58" y="888"/>
			<point x="58" y="888" type="curve"/>
			<point x="58" y="762" type="line"/>
			<point x="58" y="762"/>
			<point x="58" y="762"/>
			<point x="58" y="762" type="curve"/>
			<point x="212" y="762" type="line"/>
			<point x="212" y="0" type="line"/>
			<point x="212" y="0"/>
			<point x="212" y="0"/>
			<point x="212" y="0" type="curve"/>
			<point x="380" y="0" type="line"/>
			<point x="380" y="0"/>
			<point x="380" y="0"/>
			<point x="380" y="0" type="curve"/>
		</contour>
		<contour>
			<point x="968" y="762" type="line"/>
			<point x="1198" y="762" type="line"/>
			<point x="1198" y="762"/>
			<point x="1198" y="762"/>
			<point x="1198" y="762" type="curve"/>
			<point x="1198" y="888" type="line"/>
			<point x="1198" y="888"/>
			<point x="1198" y="888"/>
			<point x="1198" y="888" type="curve"/>
			<point x="962" y="888" type="line"/>
			<point x="962" y="1118" type="line" smooth="yes"/>
			<point x="962" y="1262"/>
			<point x="1098" y="1276"/>
			<point x="1154" y="1276" type="curve" smooth="yes"/>
			<point x="1202" y="1276"/>
			<point x="1256" y="1270"/>
			<point x="1326" y="1242" type="curve"/>
			<point x="1326" y="1242"/>
			<point x="1326" y="1242"/>
			<point x="1326" y="1242" type="curve"/>
			<point x="1326" y="1242"/>
			<point x="1326" y="1242"/>
			<point x="1326" y="1242" type="curve"/>
			<point x="1326" y="1388" type="line"/>
			<point x="1326" y="1388"/>
			<point x="1326" y="1388"/>
			<point x="1326" y="1388" type="curve"/>
			<point x="1274" y="1400"/>
			<point x="1212" y="1408"/>
			<point x="1158" y="1408" type="curve" smooth="yes"/>
			<point x="950" y="1408"/>
			<point x="800" y="1260"/>
			<point x="800" y="1062" type="curve" smooth="yes"/>
			<point x="800" y="0" type="line"/>
			<point x="800" y="0"/>
			<point x="800" y="0"/>
			<point x="800" y="0" type="curve"/>
			<point x="968" y="0" type="line"/>
			<point x="968" y="0"/>
			<point x="968" y="0"/>
			<point x="968" y="0" type="curve"/>
		</contour>
	</outline>
</glyph>
<glyph name="ffi" format="2">
	<advance width="1728"/>
	<outline>
		<contour>
			<point x="212" y="1064" type="curve" smooth="yes"/>
			<point x="212" y="888" type="line"/>
			<point x="58" y="888" type="line"/>
			<point x="58" y="888"/>
			<point x="58" y="888"/>
			<point x="58" y="888" type="curve"/>
			<point x="58" y="762" type="line"/>
			<point x="58" y="762"/>
			<point x="58" y="762"/>
			<point x="58" y="762" type="curve"/>
			<point x="212" y="762" type="line"/>
			<point x="212" y="0" type="line"/>
			<point x="212" y="0"/>
			<point x="212" y="0"/>
			<point x="212" y="0" type="curve"/>
			<point x="380" y="0" type="line"/>
			<point x="380" y="0"/>
			<point x="380" y="0"/>
			<point x="380" y="0" type="curve"/>
			<point x="380" y="762" type="line"/>
			<point x="626" y="762" type="line"/>
			<point x="626" y="762"/>
			<point x="626" y="762"/>
			<point x="626" y="762" type="curve"/>
			<point x="626" y="888" type="line"/>
			<point x="626" y="888"/>
			<point x="626" y="888"/>
			<point x="626" y="888" type="curve"/>
			<point x="374" y="888" type="line"/>
			<point x="374" y="1120" type="line" smooth="yes"/>
			<point x="374" y="1256"/>
			<point x="476" y="1276"/>
			<point x="530" y="1276" type="curve" smooth="yes"/>
			<point x="580" y="1276"/>
			<point x="630" y="1264"/>
			<point x="678" y="1242" type="curve"/>
			<point x="678" y="1242"/>
			<point x="678" y="1242"/>
			<point x="678" y="1242" type="curve"/>
			<point x="678" y="1242"/>
			<point x="678" y="1242"/>
			<point x="678" y="1242" type="curve"/>
			<point x="678" y="1388" type="line"/>
			<point x="678" y="1388"/>
			<point x="678" y="1388"/>
			<point x="678" y="1388" type="curve"/>
			<point x="656" y="1394"/>
			<point x="598" y="1408"/>
			<point x="532" y="1408" type="curve" smooth="yes"/>
			<point x="348" y="1408"/>
			<point x="212" y="1260"/>
		</contour>
		<contour>
			<point x="970" y="762" type="line"/>
			<point x="1216" y="762" type="line"/>
			<point x="1216" y="762"/>
			<point x="1216" y="762"/>
			<point x="1216" y="762" type="curve"/>
			<point x="1216" y="888" type="line"/>
			<point x="1216" y="888"/>
			<point x="1216" y="888"/>
			<point x="1216" y="888" type="curve"/>
			<point x="964" y="888" type="line"/>
			<point x="964" y="1122" type="line" smooth="yes"/>
			<point x="964" y="1242"/>
			<point x="1030" y="1276"/>
			<point x="1090" y="1276" type="curve" smooth="yes"/>
			<point x="1150" y="1276"/>
			<point x="1198" y="1252"/>
			<point x="1216" y="1240" type="curve"/>
			<point x="1216" y="1240"/>
			<point x="1216" y="1240"/>
			<point x="1216" y="1240" type="curve"/>
			<point x="1216" y="1240"/>
			<point x="1216" y="1240"/>
			<point x="1216" y="1240" type="curve"/>
			<point x="1216" y="1390" type="line"/>
			<point x="1216" y="1390"/>
			<point x="1216" y="1390"/>
			<point x="1216" y="1390" type="curve"/>
			<point x="1168" y="1404"/>
			<point x="1154" y="1408"/>
			<point x="1090" y="1408" type="curve" smooth="yes"/>
			<point x="928" y="1408"/>
			<point x="802" y="1264"/>
			<point x="802" y="1064" type="curve" smooth="yes"/>
			<point x="802" y="0" type="line"/>
			<point x="802" y="0"/>
			<point x="802" y="0"/>
			<point x="802" y="0" type="curve"/>
			<point x="970" y="0" type="line"/>
			<point x="970" y="0"/>
			<point x="970" y="0"/>
			<point x="970" y="0" type="curve"/>
		</contour>
		<contour>
			<point x="1558" y="888" type="curve"/>
			<point x="1390" y="888" type="line"/>
			<point x="1390" y="888"/>
			<point x="1390" y="888"/>
			<point x="1390" y="888" type="curve"/>
			<point x="1390" y="0" type="line"/>
			<point x="1390" y="0"/>
			<point x="1390" y="0"/>
			<point x="1390" y="0" type="curve"/>
			<point x="1558" y="0" type="line"/>
			<point x="1558" y="0"/>
			<point x="1558" y="0"/>
			<point x="1558" y="0" type="curve"/>
			<point x="1558" y="888" type="line"/>
			<point x="1558" y="888"/>
			<point x="1558" y="888"/>
		</contour>
		<contour>
			<point x="1564" y="1390" type="curve"/>
			<point x="1384" y="1390" type="line"/>
			<point x="1384" y="1390"/>
			<point x="1384" y="1390"/>
			<point x="1384" y="1390" type="curve"/>
			<point x="1384" y="1210" type="line"/>
			<point x="1384" y="1210"/>
			<point x="1384" y="1210"/>
			<point x="1384" y="1210" type="curve"/>
			<point x="1564" y="1210" type="line"/>
			<point x="1564" y="1210"/>
			<point x="1564" y="1210"/>
			<point x="1564" y="1210" type="curve"/>
			<point x="1564" y="1390" type="line"/>
			<point x="1564" y="1390"/>
			<point x="1564" y="1390"/>
		</contour>
	</outline>
</glyph>
<glyph name="ffl" format="2">
	<advance width="1728"/>
	<outline>
		<contour>
			<point x="380" y="762" type="line"/>
			<point x="626" y="762" type="line"/>
			<point x="626" y="762"/>
			<point x="626" y="762"/>
			<point x="626" y="762" type="curve"/>
			<point x="626" y="888" type="line"/>
			<point x="626" y="888"/>
			<point x="626" y="888"/>
			<point x="626" y="888" type="curve"/>
			<point x="374" y="888" type="line"/>
			<point x="374" y="1120" type="line" smooth="yes"/>
			<point x="374" y="1256"/>
			<point x="476" y="1276"/>
			<point x="530" y="1276" type="curve" smooth="yes"/>
			<point x="580" y="1276"/>
			<point x="630" y="1264"/>
			<point x="678" y="1242" type="curve"/>
			<point x="678" y="1242"/>
			<point x="678" y="1242"/>
			<point x="678" y="1242" type="curve"/>
			<point x="678" y="1242"/>
			<point x="678" y="1242"/>
			<point x="678" y="1242" type="curve"/>
			<point x="678" y="1388" type="line"/>
			<point x="678" y="1388"/>
			<point x="678" y="1388"/>
			<point x="678" y="1388" type="curve"/>
			<point x="656" y="1394"/>
			<point x="598" y="1408"/>
			<point x="532" y="1408" type="curve" smooth="yes"/>
			<point x="348" y="1408"/>
			<point x="212" y="1260"/>
			<point x="212" y="1064" type="curve" smooth="yes"/>
			<point x="212" y="888" type="line"/>
			<point x="58" y="888" type="line"/>
			<point x="58" y="888"/>
			<point x="58" y="888"/>
			<point x="58" y="888" type="curve"/>
			<point x="58" y="762" type="line"/>
			<point x="58" y="762"/>
			<point x="58" y="762"/>
			<point x="58" y="762" type="curve"/>
			<point x="212" y="762" type="line"/>
			<point x="212" y="0" type="line"/>
			<point x="212" y="0"/>
			<point x="212" y="0"/>
			<point x="212" y="0" type="curve"/>
			<point x="380" y="0" type="line"/>
			<point x="380" y="0"/>
			<point x="380" y="0"/>
			<point x="380" y="0" type="curve"/>
		</contour>
		<contour>
			<point x="1558" y="1388" type="curve"/>
			<point x="1390" y="1388" type="line"/>
			<point x="1390" y="1388"/>
			<point x="1390" y="1388"/>
			<point x="1390" y="1388" type="curve"/>
			<point x="1390" y="0" type="line"/>
			<point x="1390" y="0"/>
			<point x="1390" y="0"/>
			<point x="1390" y="0" type="curve"/>
			<point x="1558" y="0" type="line"/>
			<point x="1558" y="0"/>
			<point x="1558" y="0"/>
			<point x="1558" y="0" type="curve"/>
			<point x="1558" y="1388" type="line"/>
			<point x="1558" y="1388"/>
			<point x="1558" y="1388"/>
		</contour>
		<contour>
			<point x="970" y="762" type="line"/>
			<point x="1216" y="762" type="line"/>
			<point x="1216" y="762"/>
			<point x="1216" y="762"/>
			<point x="1216" y="762" type="curve"/>
			<point x="1216" y="888" type="line"/>
			<point x="1216" y="888"/>
			<point x="1216" y="888"/>
			<point x="1216" y="888" type="curve"/>
			<point x="964" y="888" type="line"/>
			<point x="964" y="1122" type="line" smooth="yes"/>
			<point x="964" y="1242"/>
			<point x="1030" y="1276"/>
			<point x="1090" y="1276" type="curve" smooth="yes"/>
			<point x="1152" y="1276"/>
			<point x="1202" y="1250"/>
			<point x="1216" y="1242" type="curve"/>
			<point x="1216" y="1242"/>
			<point x="1216" y="1242"/>
			<point x="1216" y="1242" type="curve"/>
			<point x="1216" y="1242"/>
			<point x="1216" y="1242"/>
			<point x="1216" y="1242" type="curve"/>
			<point x="1216" y="1388" type="line"/>
			<point x="1216" y="1388"/>
			<point x="1216" y="1388"/>
			<point x="1216" y="1388" type="curve"/>
			<point x="1210" y="1390"/>
			<point x="1154" y="1408"/>
			<point x="1088" y="1408" type="curve" smooth="yes"/>
			<point x="934" y="1408"/>
			<point x="802" y="1270"/>
			<point x="802" y="1064" type="curve" smooth="yes"/>
			<point x="802" y="0" type="line"/>
			<point x="802" y="0"/>
			<point x="802" y="0"/>
			<point x="802" y="0" type="curve"/>
			<point x="970" y="0" type="line"/>
			<point x="970" y="0"/>
			<point x="970" y="0"/>
			<point x="970" y="0" type="curve"/>
		</contour>
	</outline>
</glyph>
<glyph name="l" format="2">
	<advance width="253"/>
	<outline>
		<contour>
			<point x="84" y="694" type="curve"/>
			<point x="84" y="0" type="line"/>
			<point x="84" y="0"/>
			<point x="84" y="0"/>
			<point x="84" y="0" type="curve"/>
			<point x="168" y="0" type="line"/>
			<point x="168" y="0"/>
			<point x="168" y="0"/>
			<point x="168" y="0" type="curve"/>
			<point x="168" y="694" type="line"/>
			<point x="168" y="694"/>
			<point x="168" y="694"/>
			<point x="168" y="694" type="curve"/>
			<point x="84" y="694" type="line"/>
			<point x="84" y="694"/>
			<point x="84" y="694"/>
		</contour>
	</outline>
</glyph>
<glyph name="sfthyphen" format="2">
	<advance width="354"/>
	<outline>
		<contour>
			<point x="294" y="191" type="curve"/>
			<point x="294" y="211.979"/>
			<point x="294" y="232.958"/>
			<point x="294" y="254" type="curve"/>
			<point x="294" y="254"/>
			<point x="294" y="254"/>
			<point x="294" y="254" type="curve"/>
			<point x="200.094" y="254"/>
			<point x="106.188" y="254"/>
			<point x="12" y="254" type="curve"/>
			<point x="12" y="254"/>
			<point x="12" y="254"/>
			<point x="12" y="254" type="curve"/>
			<point x="12" y="233.021"/>
			<point x="12" y="212.042"/>
			<point x="12" y="191" type="curve"/>
			<point x="12" y="191"/>
			<point x="12" y="191"/>
			<point x="12" y="191" type="curve"/>
			<point x="105.906" y="191"/>
			<point x="199.812" y="191"/>
			<point x="294" y="191" type="curve"/>
			<point x="294" y="191"/>
			<point x="294" y="191"/>
		</contour>
	</outline>
</glyph>
